<svg version="1.1" viewBox="0.0 0.0 960.0 540.0" fill="none" stroke="none" stroke-linecap="square" stroke-miterlimit="10" xmlns:xlink="http://www.w3.org/1999/xlink" xmlns="http://www.w3.org/2000/svg"><clipPath id="p1.0"><path d="m0 0l960.0 0l0 540.0l-960.0 0l0 -540.0z" clip-rule="nonzero"/></clipPath><g clip-path="url(#p1.0)"><path fill="#0060c1" d="m0 0l960.0 0l0 540.0l-960.0 0z" fill-rule="evenodd"/><path fill="#184eab" fill-opacity="0.49803922" d="m761.5108 -1.0204724c-0.98547363 7.526462 -1.5233765 15.143226 -1.5233765 22.763914c0 23.568779 4.8411865 47.04726 15.147888 68.554794c26.883728 56.101006 80.65912 90.87113 132.63623 124.5655c17.2995 11.201355 34.86212 22.493011 51.62372 34.770126l0 -3.2233734c-16.310059 -11.829544 -33.429016 -22.854218 -50.186707 -33.698288c-54.13263 -35.037125 -105.21454 -68.01692 -131.74493 -123.48973c-13.439941 -28.13884 -17.476196 -59.595287 -13.439941 -90.24294z" fill-rule="evenodd"/><path fill="#184eab" fill-opacity="0.49803922" d="m675.81354 -1.0204724c12.7247925 20.614012 23.565613 41.404716 32.61267 62.376038c37.89569 88.102325 42.19751 182.74223 11.735718 259.7287c-9.765381 24.913513 -23.381104 48.664795 -36.553345 71.60721c-14.063232 24.469788 -28.57782 49.7406 -38.523743 76.53882c-8.419067 22.40451 -13.348816 45.888794 -14.958069 69.72644l2.5080566 0c1.6995239 -23.480347 6.5390015 -46.784027 14.781494 -68.83118c9.941956 -26.617615 24.366272 -51.802032 38.34314 -76.17761c13.258606 -23.032745 26.878296 -46.783997 36.82025 -71.968445c30.642334 -77.61076 26.340576 -172.96922 -11.825989 -261.60947c-8.866516 -20.700394 -19.5307 -41.13379 -31.980713 -61.39049z" fill-rule="evenodd"/><path fill="#184eab" fill-opacity="0.49803922" d="m859.5289 316.87952c-15.50116 0 -29.848022 5.759918 -38.86682 16.043c-8.873535 10.035675 -12.187378 23.38913 -15.414795 36.294983c-3.137146 12.187347 -6.274292 24.826202 -14.068054 34.323975c-8.068665 9.768738 -19.537476 15.057495 -31.638428 20.61325c-6.721924 3.0468445 -13.530212 6.18396 -19.804443 10.035706c-18.46167 11.830017 -30.919922 31.728668 -35.042603 56.103333c-0.98547363 5.7363586 -1.4331055 11.649414 -1.4331055 17.476105c0 10.66391 1.5234375 21.241425 4.6605835 31.18686l2.6895142 0c-4.8411865 -15.324463 -6.093689 -31.99176 -3.408081 -48.305664c3.945984 -23.569763 16.04303 -42.836273 33.966797 -54.30902c6.003357 -3.7614136 12.815552 -6.8985596 19.356812 -9.855072c11.920349 -5.469391 24.19806 -11.0251465 32.53363 -21.331757c8.2453 -9.949341 11.472778 -22.851257 14.606018 -35.30951c3.227417 -12.634918 6.454895 -25.631073 14.967163 -35.30948c8.512329 -9.631287 22.187744 -15.096741 37.03717 -15.096741c2.972229 0 5.9954834 0.21987915 9.030579 0.66748047c14.248657 2.0613098 28.854675 8.692902 45.97351 20.880219c16.757568 11.920349 31.815063 26.259308 44.720947 42.211975l0 -4.2129517c-12.72522 -15.234161 -27.335144 -28.677917 -43.28784 -40.060333c-17.385864 -12.36795 -32.353027 -19.176208 -47.049316 -21.32785c-3.1999512 -0.48294067 -6.3881836 -0.71850586 -9.529236 -0.71850586z" fill-rule="evenodd"/><path fill="#184eab" fill-opacity="0.49803922" d="m162.84874 -1.0204724c-1.7904358 8.964312 -3.3138885 18.282013 -4.6606445 27.874573c-3.0468903 23.209833 -4.570343 46.5139 -4.570343 69.90435c0 63.45697 11.292343 126.91 33.339127 186.60141c19.537796 52.96521 43.46924 86.753174 75.37128 106.38199c15.831268 9.72998 35.475098 15.121155 54.836212 15.121155c25.584442 0 50.685974 -9.404114 65.88507 -30.627106c9.230988 -12.99295 13.711029 -28.679504 18.014374 -43.82422c3.9421082 -13.89212 8.064819 -28.322174 15.952972 -40.510193c15.41507 -23.932312 41.31366 -35.40178 68.73959 -47.680084c14.068329 -6.184326 28.497833 -12.639572 41.31363 -20.88533c31.277771 -19.98613 53.95276 -53.055527 64.07898 -93.1181c9.678589 -38.80609 6.721985 -79.76392 -8.331848 -115.43662c-2.0613403 -4.8375087 -4.2130127 -9.411939 -6.545288 -13.801821l-2.866272 0c2.5089722 4.7511244 4.8412476 9.678944 7.0792847 14.787384c9.230957 21.780571 13.534302 45.171024 13.534302 68.294464c0 55.2976 -25.003357 109.34261 -68.29199 137.12689c-12.635132 8.155441 -27.064697 14.516449 -40.95633 20.70076c-26.617096 11.830704 -54.04303 24.109024 -69.90573 48.665665c-8.064819 12.458923 -12.187561 27.06961 -16.21997 41.13846c-4.3033447 14.967987 -8.693054 30.383636 -17.747375 43.019257c-14.649414 20.504456 -38.918518 29.598328 -63.701996 29.598328c-18.88208 0 -38.06259 -5.2772827 -53.520844 -14.807007c-31.368057 -19.271515 -55.02858 -52.70215 -74.38577 -105.04306c-29.934921 -81.1971 -39.88443 -169.4777 -28.501785 -255.24925c1.2564545 -9.769255 2.8702087 -19.181192 4.6606445 -28.231888z" fill-rule="evenodd"/><path fill="#184eab" fill-opacity="0.49803922" d="m535.4497 347.3803c-39.43167 0 -83.12683 17.042358 -102.90939 33.503693c-39.34137 32.62036 -62.547333 87.013794 -62.547333 144.811c0 4.3930664 0.17666626 8.872559 0.4475708 13.261719l2.598938 0c-3.8552246 -61.919434 19.354645 -121.42047 61.110413 -156.09799c19.421387 -16.170807 62.39029 -32.92267 101.08386 -32.92267c9.339722 0 18.432068 0.9736328 26.880615 3.1721497c19.802185 5.107605 33.06775 16.217896 39.608337 32.883392c2.1513672 5.7357483 3.0464478 12.189941 3.0464478 19.268341c0 23.476929 -10.215149 52.689606 -17.654724 73.65787c-1.1659546 3.2270813 -2.237732 6.27359 -3.1367798 9.053131c-6.0026855 17.560577 -13.081055 34.58722 -21.32544 50.98578l2.8659058 0c7.977417 -16.127625 14.965515 -32.973724 20.881836 -50.18097c0.89508057 -2.779541 1.9707642 -5.82605 3.1367798 -9.049194c9.763672 -27.512756 24.371948 -69.178406 14.513977 -94.630066c-6.8114014 -17.564514 -20.697266 -29.122375 -41.217896 -34.49695c-8.617371 -2.2299194 -17.874634 -3.2192383 -27.383118 -3.2192383z" fill-rule="evenodd"/><path fill="#184eab" fill-opacity="0.49803922" d="m38.74204 -1.0204724c-9.677559 20.614012 -13.890144 43.737045 -13.890144 67.127075c0 30.740402 7.2591515 61.928413 18.821182 88.63633c17.023079 39.16661 42.29466 74.47743 66.84778 108.62602c13.799843 19.357544 28.227844 39.433624 40.8656 59.867004c30.198685 48.931793 61.111908 121.25751 36.919968 188.74582c-3.4077454 9.58847 -7.706711 18.552643 -12.814407 26.974945l2.9562683 0c4.8368073 -8.155334 8.959091 -16.848572 12.27655 -26.169983c24.553131 -68.37964 -6.721283 -141.51422 -37.190872 -190.80725c-12.724121 -20.614014 -27.061829 -40.686157 -40.951965 -60.047638c-24.46283 -34.054337 -49.644108 -69.27878 -66.58081 -108.264786c-20.25024 -46.69368 -27.061827 -107.63655 -4.4795494 -154.68755z" fill-rule="evenodd"/><path fill="#184eab" fill-opacity="0.49803922" d="m-0.6008005 290.91415l0 3.493988c9.939199 9.049042 19.077927 18.906769 26.957088 29.84021c26.69026 36.918457 38.065605 94.89502 8.063581 134.14148c-9.58605 12.546936 -22.570183 21.866852 -35.020668 28.94513l0 2.8658447c13.074383 -7.1685486 26.866837 -16.936005 36.99046 -30.28775c30.810337 -40.14154 19.254501 -99.46469 -7.9733353 -137.18793c-8.416731 -11.73822 -18.269606 -22.22409 -29.017124 -31.810974z" fill-rule="evenodd"/><path fill="#184eab" fill-opacity="0.49803922" d="m232.77313 -1.0204724c-0.71850586 6.5406547 -0.8951874 13.085236 -0.8951874 19.2647l0 1.2563095c0.09030151 33.602318 2.7758942 67.475525 7.974304 100.63422c3.6750183 23.657852 11.472641 56.545654 37.280197 69.2697c7.0280457 3.4626923 14.330963 4.938858 21.590698 4.938858c19.042542 0 37.763123 -10.156464 50.284058 -21.247314c12.010559 -10.757141 21.779175 -23.928741 31.190521 -36.652786c5.645996 -7.616379 11.468689 -15.413338 17.652618 -22.67244c7.6170044 -8.872681 16.133148 -17.113274 24.378387 -25.18113c12.81543 -12.366783 25.98816 -25.18113 35.937378 -40.233273c8.69281 -12.994938 15.771942 -31.545113 15.862244 -49.37684l-2.5089111 0c-0.09030151 8.511488 -1.7943115 17.293867 -4.574127 25.448092c-2.7759094 8.33482 -6.631531 16.131783 -10.840515 22.49577c-9.858917 14.875473 -22.945282 27.599522 -35.58008 39.87601c-8.335541 8.063927 -16.93805 16.398743 -24.555084 25.267494c-6.2742004 7.3494034 -12.10083 15.236664 -17.746857 22.853027c-9.40741 12.633759 -19.085724 25.718994 -30.91565 36.20131c-12.933228 11.518784 -31.182648 20.49353 -48.870605 20.49353c-6.9456177 0 -13.808777 -1.3819427 -20.228271 -4.542343c-24.64537 -12.095886 -32.26239 -44.26523 -35.84709 -67.38522c-5.108124 -32.978096 -7.797638 -66.670715 -7.9743195 -100.18666c0 -6.540655 0.17668152 -13.532796 0.98550415 -20.52101z" fill-rule="evenodd"/><path fill="#184eab" d="m-17.234646 -20.711811l0 314.44797c4.2104435 -1.1705627 8.263651 -2.6469116 12.316858 -4.35907c25.01807 -10.832214 45.35399 -32.112213 54.93668 -57.672684c7.7919426 -20.808289 9.276955 -44.96231 24.240623 -61.3329c16.833038 -18.388504 44.34069 -20.493805 68.65119 -25.639084c47.930923 -10.203232 92.03575 -37.56324 122.58331 -75.903946c20.729004 -26.02346 35.142365 -56.965084 41.999603 -89.54027z" fill-rule="evenodd"/><path fill="#184eab" fill-opacity="0.49803922" d="m0.23690249 426.4819l0 112.47873l430.73248 0c-8.3984375 -1.3569946 -16.807037 -2.9874268 -25.12445 -4.8811646c-0.90164185 -0.18225098 -1.7120972 -0.364563 -2.6137695 -0.5366821c-25.945038 -5.873596 -51.606445 -13.651001 -77.09561 -22.228424c-0.90164185 -0.364563 -1.8032837 -0.62783813 -2.806244 -0.99243164c-57.92807 -19.696686 -115.31923 -43.72766 -174.33131 -59.991333c-29.55162 -8.04071 -59.832672 -14.177582 -90.46831 -18.339722c-0.8205986 -0.09112549 -1.6310616 -0.26327515 -2.3503532 -0.35443115c-10.850117 -1.4481201 -21.781284 -2.6228333 -32.72258 -3.5241394c-7.6791687 -0.6380005 -15.449515 -1.1747131 -23.219862 -1.6304016z" fill-rule="evenodd"/><path fill="#184eab" d="m940.9126 365.48032c-36.10559 0 -71.040344 17.181396 -83.423645 51.24884c-1.6349487 -0.04220581 -3.2593384 -0.06329346 -4.883728 -0.06329346c-44.01654 0 -87.92761 15.884094 -121.58612 44.19278c-24.745483 20.799072 -43.84778 47.989746 -55.239563 78.10199l284.18268 0l0 -171.90878c-2.637024 -0.4640808 -5.3688965 -0.8437805 -8.00592 -1.0336304c-3.6706543 -0.35861206 -7.3624268 -0.53790283 -11.043701 -0.53790283z" fill-rule="evenodd"/><path fill="#184eab" fill-opacity="0.49803922" d="m1092.2585 212.30244l45.30017 -202.99422l-777.11804 -173.42169c14.605804 5.830414 29.119751 12.158356 43.36316 18.924774c1.5533142 0.6919861 2.9421082 1.3472748 4.4995117 2.0209808c44.44394 21.046234 87.609344 45.414192 130.14182 71.156624c1.4799194 1.0209656 3.0006104 1.859169 4.663269 2.9209213c96.579895 58.870316 190.44537 125.34669 290.3636 178.4578c50.078064 26.409416 102.23889 49.676598 155.83472 69.52265c1.4437866 0.49487305 2.83667 1.1318817 4.0977173 1.585968c18.99231 6.9819946 38.240967 13.503143 57.618042 19.534912c13.597656 4.2431946 27.400513 8.340332 41.236084 12.291275z" fill-rule="evenodd"/><path fill="#2160bb" d="m-219.88455 390.8876c21.67778 6.3595886 40.23166 20.667664 42.96335 38.980865c0.9437866 0.26538086 1.8981323 0.5338745 2.8388062 0.809845c26.317734 7.720764 50.453735 23.034912 66.73546 42.34912c11.823502 14.1249695 19.44799 30.394165 22.15049 46.654755l-170.00836 -49.875l23.880981 -81.40277c1.6623688 0.28097534 3.3247528 0.5619812 4.8889008 0.8256531c2.20578 0.4633484 4.394211 1.0249939 6.5503693 1.6575317z" fill-rule="evenodd"/><path fill="#73f7ff" d="m-161.95447 330.70276c5.190262 1.522644 10.246918 3.1094055 15.4092865 4.727173c14.0993805 4.6528015 28.034431 9.865692 41.58699 15.678009c0.38054657 0.1116333 0.828331 0.34628296 1.1983109 0.45483398c11.723656 5.0806274 23.310905 10.626282 34.593163 16.50711c0.35575104 0.19616699 0.72572327 0.30471802 1.0783691 0.5114746c15.435505 8.120758 30.323338 17.090881 44.445023 26.559326c9.755313 6.5462036 19.20874 13.417023 28.634266 20.382965l0.92742825 0.6737671c6.3919306 4.7445984 12.660822 9.556366 19.052752 14.300964c0.35264778 0.20675659 0.6804905 0.49804688 0.9379997 0.6768799c12.526354 9.310333 24.985472 18.49762 38.048363 27.035645c0.35264587 0.20675659 0.6101532 0.38562012 0.92433167 0.6843872c14.367767 9.334015 29.268974 17.906342 45.134445 24.913666c0.53234863 0.25949097 1.0752716 0.5220642 1.54039 0.6585083c6.453865 2.811554 13.17115 5.390503 19.969032 7.694702c2.4773865 0.8300781 4.956604 1.6147766 7.440735 2.3435364c2.4947205 0.73187256 4.983795 1.4046936 7.4641266 2.0290527l1.4164886 0.41555786c13.462387 3.3411255 27.041458 5.5802 40.65036 7.0131226c0.49301147 0.0413208 0.99661255 0.085754395 1.5001984 0.1302185c14.415237 1.4628601 28.993942 2.055481 43.578537 2.2366638c0.5283966 -0.040130615 1.0319824 0.004333496 1.5250092 0.045654297c33.200714 0.31695557 66.562164 -1.361969 99.8519 0.7256775c16.611267 0.9823303 33.450165 2.9496155 50.18976 5.920807c0.38052368 0.1116333 0.77841187 0.12506104 1.2541199 0.2645874c5.8506775 0.99334717 11.73764 2.215332 17.733368 3.4578247c6.1475525 1.3903198 12.281433 2.788086 18.373169 4.3685913c4.837616 1.315918 9.580109 2.6038818 14.305267 3.9901123c5.5602417 1.6311646 11.09259 3.357483 16.512451 5.154114c11.677948 3.8276367 23.118164 8.113525 34.326782 12.836487l-39.07956 133.21008l-703.7836 -206.46759l44.170303 -150.5628c6.2281647 1.1155396 12.526642 2.3435364 18.702103 3.6387024c2.695404 0.5956421 5.270874 1.2478943 7.9693756 1.8329468l1.4164886 0.41555786c0.30274963 -0.014465332 0.49302673 0.04135132 0.7784424 0.12506104c6.7750244 1.6777039 13.53273 3.4535828 20.22406 5.416626z" fill-rule="evenodd"/><path fill="#41d5ff" d="m-164.73958 369.68057c6.035721 1.7706909 12.138672 3.6643982 18.24472 5.5475464c16.551193 5.372101 33.033195 11.332245 49.12961 17.902374c0.47566986 0.13955688 0.9128647 0.37112427 1.3606262 0.6057739c14.016289 5.6385193 27.766907 11.830414 41.218746 18.336365c0.35263443 0.20675659 0.78982925 0.43829346 1.1424599 0.64505005c18.461117 8.99707 36.293655 18.727997 53.23703 29.024475c11.646992 7.1013184 22.98153 14.52417 34.27083 22.14038l1.1145515 0.74017334c7.6209106 5.0937805 15.333855 10.226044 22.951664 15.330383c0.32472992 0.30187988 0.76192474 0.53344727 1.1145554 0.74020386c14.953316 10.11438 29.987251 19.95398 45.569138 29.334534c0.35263062 0.20675659 0.78982544 0.43832397 1.2375946 0.67297363c17.094315 10.134155 34.827774 19.537598 53.77243 27.551636c0.5708008 0.16748047 1.1982727 0.45483398 1.7411652 0.7174072c7.66922 3.1681519 15.514191 6.0894165 23.674698 8.678589c2.942398 0.9664917 5.8654785 1.8814697 8.793488 2.7404175c2.9174347 0.855896 5.839813 1.6558228 8.742874 2.4041748l1.6912689 0.49621582c15.886368 4.1555176 31.72705 7.0579834 47.731216 9.090149c0.58813477 0.0692749 1.1589355 0.23669434 1.6519318 0.27801514c16.997635 2.12854 33.925644 3.3987427 50.96962 4.312683c0.58813477 0.06921387 1.2147522 0.046447754 1.813446 0.118774414c38.654083 1.9163818 77.49011 1.8430176 116.34943 5.56427c17.932892 1.6797485 35.94162 4.1967163 54.005066 7.5446777l-28.18631 96.07837l-703.7585 -206.4602l19.582535 -66.75076l-0.75050354 -0.22015381l13.8311615 -47.14615c0.1902771 0.05581665 0.4756775 0.13952637 0.77841187 0.12506104c7.056244 1.461731 14.105026 2.90979 21.190033 4.5865784c3.078949 0.6966553 6.242462 1.4181213 9.282944 2.2068176c0.5987091 0.07232666 1.1695099 0.23977661 1.7297516 0.4041443l0.84562683 0.2480774c8.039444 1.9453125 16.009415 4.088318 23.926666 6.41098z" fill-rule="evenodd"/><path fill="#10b2fd" d="m469.0697 606.2667l-20.54184 70.02069l-268.35342 -78.72626c5.532776 0.7052002 11.018738 1.178772 16.54007 1.5708618c0.588089 0.0692749 1.2115326 0.057128906 1.7996216 0.12634277c17.20787 1.055481 34.557083 0.9246826 52.06311 0.22033691c0.62654114 -0.022766113 1.2394257 -0.037963867 1.8659668 -0.06072998c39.739594 -1.7542725 79.8425 -6.1557007 119.60208 -5.552063c19.941742 0.4232788 39.93982 2.102234 59.733307 5.14386c0.49295044 0.0413208 0.9964905 0.08581543 1.4615479 0.222229c7.0721436 1.0535889 14.080994 2.2836914 21.031006 3.7144775c4.9207764 1.0305786 9.841553 2.0610962 14.798553 3.3202515z" fill-rule="evenodd"/><path fill="#10b2fd" d="m-220.17667 407.27267c6.130493 1.7984924 12.137955 3.6641846 18.202087 5.6497803c16.676392 5.2939453 33.15439 11.26413 49.253036 17.82306c0.4477539 0.23461914 0.8282623 0.34625244 1.2654419 0.5777893c14.012436 5.648529 27.76545 11.829132 41.21662 18.33432c0.35261536 0.20672607 0.80036163 0.44137573 1.1424103 0.644989c18.460197 8.996002 36.288803 18.736237 53.242 29.034393c11.63591 7.0972595 23.075668 14.550079 34.357033 22.15152l1.0193787 0.7121582c7.7126236 5.131531 15.330118 10.235107 22.950714 15.328186c0.41984606 0.3297119 0.76189184 0.5333252 1.1145074 0.74005127c14.949605 10.123535 30.081133 19.979065 45.564102 29.341003c0.44774246 0.23461914 0.80036163 0.4413452 1.2406349 0.6623535c15.863487 9.473511 32.25287 18.171875 49.600487 25.716858l-355.11426 -104.17917l19.578156 -66.73581c5.1504517 1.3044128 10.272995 2.7039185 15.3676605 4.198517z" fill-rule="evenodd"/><path fill="#0060c1" d="m5.0624394 415.49005l0.92718077 0.67367554c-1.7548952 2.1477356 -3.7951317 4.2117615 -6.2445674 5.949188c-3.3942368 2.493103 -7.423269 4.6852417 -11.321818 6.823822c-9.700225 5.130493 -18.724365 10.069122 -19.361317 18.891357c-0.58551025 6.886322 5.0450516 14.884705 14.536396 20.951477c6.4120636 4.004242 13.825152 6.787262 20.71561 8.808716c3.0436387 0.8929138 5.9945593 1.6323547 8.687475 2.2731934c32.658108 7.7330933 66.5857 8.987122 97.05865 3.9025269c0.5322113 0.25942993 1.074997 0.52194214 1.5399933 0.65838623c-30.951332 5.3459167 -65.50851 4.125244 -98.723625 -3.7827454c-2.7823944 -0.6097107 -5.8327966 -1.4013062 -8.939844 -2.3128052c-6.9750047 -2.0462341 -14.448402 -4.858429 -21.006023 -9.031647c-9.864334 -6.1647034 -15.611988 -14.507294 -15.024223 -21.714294c0.62244034 -9.124908 10.353666 -14.361053 19.71585 -19.39563c3.898549 -2.1385803 7.9275813 -4.330719 11.290817 -6.7181396c2.354322 -1.7653198 4.489672 -3.8014526 6.1494536 -5.9770813z" fill-rule="evenodd"/><path fill="#0060c1" d="m24.908663 430.43488c0.3524475 0.206604 0.68011475 0.49768066 0.9374809 0.6763916c-8.256237 2.290802 -15.129344 6.2028503 -18.228132 10.820831c-3.4983053 5.3149414 -3.3960266 10.872009 0.27071476 15.112579c2.6076279 3.001068 6.4481564 4.8501587 10.378179 6.003113c5.1026897 1.4969482 10.346645 1.8084106 13.22574 1.8503418c7.9247017 0.16906738 22.860626 -1.8936157 32.380848 -6.7720947c0.35245132 0.206604 0.6098137 0.38531494 0.9238167 0.6838379c-3.1417084 1.6354675 -6.815468 3.0116272 -10.690842 4.0190125c-8.105404 2.128662 -16.766636 3.0622253 -22.463982 2.9273682c-2.9561443 -0.053100586 -8.274052 -0.38623047 -13.556341 -1.9358826c-4.236394 -1.2428284 -8.291311 -3.143341 -11.114767 -6.425598c-3.9210103 -4.42984 -4.1050406 -10.412231 -0.45589972 -15.889313c3.154542 -4.8080444 10.150607 -8.787231 18.393185 -11.070587z" fill-rule="evenodd"/><path fill="#0060c1" d="m147.93486 496.9385c-1.0091705 0.6224365 -1.9829407 1.1634216 -2.9815369 1.788971c-1.5013428 0.89138794 -2.9248962 1.9089355 -4.4156647 2.8034363c-18.042236 11.607513 -36.615128 23.57602 -62.015472 23.598724c-9.5349655 0.061584473 -17.145721 -1.505249 -24.745728 -3.7348633c-3.2767715 -0.9613037 -6.561714 -2.0512695 -9.99464 -3.1846924c-3.5852737 -1.2010498 -7.3291016 -2.4486084 -11.377506 -3.6362915c-9.756332 -2.8622131 -21.312763 -5.3799133 -36.86155 -6.106659c-16.789618 -0.72335815 -28.855532 0.96087646 -36.03251 2.024231c-14.754921 2.123932 -27.76992 5.986725 -39.317795 10.7966l-1.5115433 -0.4434204c11.821877 -5.0394897 25.298038 -9.065552 40.355698 -11.203949c7.2752075 -1.0460205 19.464165 -2.7975159 36.348915 -2.0462341c15.890707 0.735199 27.551004 3.3292847 37.43418 6.2286987c4.0061226 1.175293 7.72134 2.402954 11.305351 3.5692139c3.4540634 1.1395874 6.7601433 2.2357788 10.06863 3.206421c7.420311 2.17688 14.842068 3.7227173 24.048222 3.7254028c25.125519 -0.10333252 43.564796 -12.00769 61.466644 -23.449738c1.4907684 -0.89450073 2.914322 -1.9120483 4.4050903 -2.806549c0.7630768 -0.48797607 1.5434875 -1.0741882 2.4048004 -1.5448303zm-216.99525 -128.89642c0.3557129 0.19619751 0.7256775 0.30471802 1.0782928 0.5115051c-3.4125977 7.0932007 -5.352951 14.411652 -5.6413803 22.008057c-0.482399 10.409821 2.138382 16.81601 4.9639206 23.58078c2.9713745 7.3242188 6.3884735 15.59436 6.2998734 30.218567c-0.3128395 30.023773 -15.047745 54.07141 -30.364693 73.1376l-1.2261429 -0.35968018c15.412079 -19.03833 30.119068 -42.990814 30.403996 -72.91943c0.15582275 -14.50116 -3.0875359 -22.307007 -6.2605705 -30.000366c-2.8224335 -6.77536 -5.4289703 -13.269226 -5.0032196 -23.799011c0.3163376 -7.6915283 2.3125153 -15.200256 5.7499237 -22.378021z" fill-rule="evenodd"/><path fill="#0060c1" d="m-182.84317 325.09912c3.147522 4.6079407 7.2462006 9.494934 12.257553 14.752991c1.9412689 2.107605 3.9776459 4.2431335 6.0419464 6.2835083c10.784454 11.0494995 21.991776 22.418182 25.961472 35.061157c2.560608 8.017029 1.9811096 15.939301 1.474762 23.57312c-0.10223389 1.4048157 -0.20445251 2.8096313 -0.31414795 4.200775c-0.5028839 9.069641 -0.22668457 18.574432 5.8320465 27.617706c3.9613876 5.9027405 11.60173 11.863159 20.22551 14.393127c3.3078995 0.97042847 6.764618 1.4335327 10.220245 1.196167c13.082855 -0.9713745 18.975327 -11.627899 17.882393 -21.16571c-0.74355316 -7.598755 -4.750229 -15.225037 -8.62249 -22.605286c-1.3398361 -2.4362488 -2.6381073 -4.9750366 -3.7598038 -7.450592c-8.006256 -16.685303 -11.088272 -33.762543 -9.219063 -49.915283c0.38046265 0.1116333 0.8281326 0.34625244 1.1980286 0.45477295c-1.8134003 15.962494 1.2293091 32.821594 9.073235 49.355988c1.1465073 2.3909912 2.447876 4.91922 3.7846146 7.366028c3.8443527 7.475342 7.918236 15.22467 8.76001 22.84076c1.0795288 9.935608 -5.117897 20.927399 -18.732132 21.949493c-3.6569977 0.25863647 -7.4039993 -0.23226929 -10.891556 -1.2554016c-8.961967 -2.6291504 -16.86229 -8.838013 -20.9991 -14.964386c-6.0308228 -9.138397 -6.441452 -18.889252 -5.938553 -27.958893c0.11279297 -1.4017029 0.2150116 -2.8065186 0.3141327 -4.200775c0.49578857 -7.636902 1.0579376 -15.460968 -1.3478088 -23.340729c-4.028595 -12.4422 -15.042587 -23.765625 -25.827042 -34.815094c-1.9691772 -2.0125122 -4.008667 -4.137451 -6.0729523 -6.1778564c-5.2303314 -5.5289 -9.435516 -10.75705 -12.717453 -15.611053z" fill-rule="evenodd"/><path fill="#0060c1" d="m-215.55739 334.84644c3.8038483 13.912537 16.113678 28.174286 26.478668 38.893005l2.621643 2.6053772c16.569443 17.152557 33.72409 34.775208 33.688354 53.402985c0.0552063 6.776001 -2.3941498 13.01236 -4.7130127 19.19519c-2.4524689 6.2469177 -4.974945 12.771698 -4.757416 19.698608c0.31192017 11.143646 7.6692963 22.724487 15.061615 32.77768l-1.6063995 -0.47125244c-7.2299805 -9.902313 -14.206894 -21.371521 -14.546722 -32.420044c-0.28474426 -7.0499573 2.2656403 -13.66983 4.746002 -20.01184c2.2909698 -6.087738 4.740326 -12.324097 4.7417603 -18.980194c-0.037399292 -18.339355 -17.029709 -35.811066 -33.47528 -52.720703l-2.5800934 -2.7079773c-10.078796 -10.32489 -21.86232 -23.915771 -26.210938 -37.379852l0.55181885 -1.8809814z" fill-rule="evenodd"/><path fill="#0060c1" d="m-114.6894 473.14352c-0.5910263 -0.17340088 -1.1882477 -0.3256836 -1.7872849 -0.43270874c-3.7170486 -0.5750427 -6.9570236 -0.0022277832 -9.188026 1.7027283c-2.1434708 1.7191467 -2.8497849 4.478424 -1.7560806 7.3534546c1.0795059 2.9624634 3.6842957 5.5706787 6.8657913 6.9163513c0.47310638 0.18460083 0.93875885 0.3555603 1.4242477 0.49798584c3.271759 0.95983887 6.752289 0.7782898 9.606873 -0.43447876c3.3006058 -1.4827881 4.9462357 -3.9664917 4.5594788 -6.828827c-0.23578644 -1.3061523 -0.87190247 -2.6152344 -1.8486633 -3.8180542c-1.7597351 -2.245758 -4.6784515 -4.0183105 -7.876335 -4.9564514zm0.33885193 -0.72525024c3.3878555 0.99386597 6.6059036 2.957306 8.4613495 5.3456726c1.1283417 1.3504028 1.7471619 2.7574768 2.0426254 4.1727905c0.4932022 3.2027893 -1.3587952 6.0382996 -4.972206 7.5324097c-3.1499252 1.3208008 -6.8966675 1.5502625 -10.474503 0.50064087c-0.5593643 -0.16409302 -1.1292801 -0.33129883 -1.5763702 -0.56555176c-3.645874 -1.4819031 -6.5214233 -4.2611694 -7.693733 -7.5715637c-1.1051483 -3.187622 -0.41337585 -6.2489624 2.0601883 -8.077454c2.4841232 -1.8254089 6.057289 -2.518097 10.056206 -1.8489075c0.6821976 0.0970459 1.3471069 0.29211426 2.0964432 0.5119629z" fill-rule="evenodd"/><path fill="#0060c1" d="m-230.05002 384.00607c5.824051 6.001465 10.378906 12.457031 13.020874 19.487793c3.2755737 8.743225 3.1584473 17.512726 3.1250305 25.996857c-0.088027954 4.4851685 -0.10575867 9.082764 0.27108765 13.704285c1.5444641 14.996094 8.19455 29.642029 18.170166 44.13867l-1.5002747 -0.4401245c-9.813339 -14.345764 -16.283829 -28.938995 -17.761093 -43.812073c-0.4719391 -4.649414 -0.45419312 -9.247009 -0.3382721 -13.8272705c0.1006012 -8.361145 0.20716858 -17.133728 -3.11055 -25.694183c-2.4541016 -6.654236 -6.6844025 -12.807983 -12.152908 -18.613342l0.27593994 -0.9406128z" fill-rule="evenodd"/><path fill="#0060c1" d="m333.32806 530.0558c18.180603 5.333618 35.15869 14.100952 51.43222 22.569824c12.180298 6.338623 24.702637 12.880859 37.752747 17.937073c4.9360046 1.9185181 9.979401 3.6275635 15.084747 5.125305c12.58902 3.6932373 25.594055 6.0856934 38.475494 7.099365l-0.2758484 0.9403076c-13.105957 -1.1484375 -26.157654 -3.5775146 -38.66211 -7.2459106c-5.115906 -1.5008545 -10.14563 -3.2173462 -15.060486 -5.1296997c-13.117371 -5.179199 -25.63971 -11.721436 -37.809418 -18.056946c-16.521576 -8.484253 -33.52954 -17.306274 -51.868713 -22.686401c-0.23251343 -0.068237305 -0.47564697 -0.13952637 -0.71875 -0.21087646c-41.50415 -11.762878 -83.50513 -4.027527 -122.62665 6.1015625c-2.2236938 0.5753784 -4.4368134 1.1538696 -6.660507 1.729248c-36.127808 9.355103 -73.39163 19.099731 -114.317955 13.036987c-12.35939 -1.8932495 -24.816864 -5.1348267 -36.876488 -8.362915c-18.17574 -4.723999 -37.077164 -9.752747 -55.261303 -9.556763c-8.523628 0.058166504 -16.439034 1.2127686 -23.77133 3.15802l-1.7863483 -0.52404785c7.9089603 -2.189148 16.26068 -3.4223022 25.305183 -3.5342407c18.46643 -0.10168457 37.39575 4.83197 55.736958 9.69635c11.989288 3.1156616 24.429436 6.4554443 36.591095 8.279175c40.637833 5.989624 77.88432 -3.6568604 113.79709 -12.983215c2.2410126 -0.673584 4.436798 -1.1539307 6.6499176 -1.7324219c39.364487 -10.252869 81.55884 -17.942932 123.4404 -6.0578613c0.47875977 0.12902832 0.95440674 0.2685547 1.4300537 0.40808105z" fill-rule="evenodd"/><path fill="#0060c1" d="m235.09645 506.33447l0 0c-5.9515076 5.310608 -16.248444 10.379028 -23.544052 13.975769c-2.772766 1.4354858 -5.148758 2.5743408 -6.6384583 3.4682617c-4.086014 2.3927002 -7.951706 4.425476 -12.886887 4.825012c-1.9772034 0.13134766 -4.254059 -0.123535156 -6.419342 -0.75878906c-3.306015 -0.96984863 -6.2305603 -2.84906 -7.432907 -5.3588867c-1.6787262 -3.3495483 0.35438538 -6.447754 2.3678894 -9.127197c2.2480316 -3.1269226 4.7698517 -6.483368 7.9858246 -9.429596c0.49264526 0.041229248 0.9958496 0.08560181 1.4990387 0.12994385l0 0c-3.4339905 2.9855652 -6.106674 6.5042725 -8.505554 9.793488c-2.0134888 2.6794434 -3.7727966 5.5481567 -2.2986755 8.539368c1.0549316 2.1912231 3.661209 3.7475586 6.565857 4.5996704c1.9962921 0.5856323 4.126541 0.8319702 5.996277 0.7149658c2.2902832 -0.14276123 4.417511 -0.7463989 6.3998413 -1.5991211c1.9650116 -0.7545166 3.9465332 -1.9172974 5.914398 -3.0725708c1.4897003 -0.89398193 3.8793488 -2.0402222 6.747177 -3.447815c6.9546356 -3.4902954 16.664703 -8.31781 22.725739 -13.297943c0.5279999 -0.040161133 1.031189 0.004180908 1.5238342 0.045440674z" fill-rule="evenodd"/><path fill="#0060c1" d="m338.99332 569.04224c22.38739 6.567749 43.96692 17.06311 64.98422 27.244446c4.466339 2.2281494 9.055664 4.389099 13.522003 6.6171875c1.1703491 0.5498657 2.4358215 1.1276245 3.701294 1.7053833c12.43985 6.001404 26.260162 12.579895 39.641876 16.505615c1.1944275 0.35040283 2.3844604 0.6765747 3.5595703 0.97546387l-0.22314453 0.7605591c-1.3578796 -0.34100342 -2.7276306 -0.71984863 -4.1017456 -1.1229858c-13.392242 -3.928894 -27.009918 -10.493774 -39.38199 -16.452332c-1.2685852 -0.5671997 -2.4389038 -1.1170654 -3.609253 -1.6669312c-4.4911194 -2.1436157 -9.147705 -4.4275513 -13.546783 -6.532654c-21.030457 -10.254028 -42.552765 -20.709717 -64.82388 -27.243347c-9.513031 -2.7908325 -19.177795 -4.8688965 -28.98587 -5.9106445c-23.355438 -2.446106 -45.547577 1.2772217 -66.86711 4.843628c-18.113037 3.0843506 -36.86685 6.2790527 -56.478577 5.7457886c-8.238998 -0.168396 -16.676956 -1.1064453 -24.81894 -1.9576416c-6.367111 -0.6403198 -13.019608 -1.3643188 -19.470383 -1.7194214c-16.201294 -0.96691895 -28.52349 0.5350952 -37.67771 4.503845l-1.4058151 -0.41241455c9.350342 -4.3242188 22.108849 -5.904724 38.93361 -4.950012c6.5459137 0.3829956 13.092712 1.0760498 19.554947 1.7442627c8.152557 0.8543091 16.484802 1.7613525 24.734375 1.9328003c19.39357 0.5725708 38.05536 -2.6606445 56.137405 -5.6393433c21.470444 -3.7286377 43.665665 -7.4625854 67.29286 -4.925232c9.936737 1.0335693 19.710266 3.132141 29.32904 5.9539795z" fill-rule="evenodd"/><path fill="#0060c1" d="m371.06293 603.6395c27.356995 8.025696 52.026306 24.161865 67.696045 45.324707c7.0182495 9.394897 9.183075 17.662598 6.58136 24.42926l-1.125 -0.3300171c2.5462646 -6.5775757 0.42367554 -14.638977 -6.4466553 -23.876343c-15.456207 -20.917664 -39.910187 -36.85376 -66.9202 -44.77765c-11.544189 -3.3867188 -23.490845 -5.362671 -35.47104 -5.5115967c-30.265442 -0.6416626 -56.09726 9.292908 -79.12839 19.022278l-1.4929504 -0.43798828c23.26532 -9.866028 49.583496 -20.05719 80.47525 -19.448608c12.101471 0.24157715 24.213776 2.1976929 35.831573 5.605957z" fill-rule="evenodd"/><path fill="#0060c1" d="m251.8197 582.9068c1.786087 0.5239258 3.4198456 1.3338013 4.709076 2.3845825l-0.7613373 0.494812c-1.1488342 -0.9069824 -2.5668488 -1.5965576 -4.1217957 -2.0527344c-1.828125 -0.5363159 -3.8313904 -0.74786377 -5.802765 -0.56243896c-3.6351776 0.25579834 -6.3564453 1.9082642 -7.0153656 4.154358c-0.7812042 2.3128052 0.52456665 5.135254 3.3336334 7.3842163c1.601532 1.3475342 3.5017548 2.3381958 5.4454346 2.9083862c1.4288788 0.41918945 2.866806 0.6130371 4.2253723 0.5328369c3.1451874 -0.29699707 5.67424 -1.9943848 6.5662994 -4.6850586c0.95581055 -2.5579224 0.048553467 -5.3775024 -2.308014 -7.3796997l0.77853394 -0.5923462c2.686798 2.3156738 3.6648865 5.5549927 2.625946 8.396301c-0.94744873 2.8795776 -3.843338 4.7771606 -7.383957 5.060791c-1.5710602 0.14324951 -3.128891 -0.10864258 -4.8099213 -0.6017456c-2.0697632 -0.60723877 -4.2072906 -1.6446533 -5.925659 -3.06073c-3.0936584 -2.6401978 -4.5054016 -5.8015137 -3.6718597 -8.292786c0.7420654 -2.529419 3.799347 -4.2770996 7.8013306 -4.7330933c2.138214 -0.1706543 4.318817 0.05871582 6.315048 0.64434814z" fill-rule="evenodd"/><path fill="#73f7ff" d="m59.140186 387.37308c1.8492317 0.6133728 3.5635567 1.7856445 5.181118 2.9453125c11.724197 8.581818 20.26873 22.18457 23.662888 37.72052c0.584465 2.8032837 1.1537781 5.6015015 2.6670227 7.836548c0.79689026 1.1990356 1.9713593 2.1727905 3.2294464 2.5900574c1.121666 0.3720398 2.316536 0.3204956 3.394455 -0.39300537c3.5450287 -2.1151123 3.3668747 -7.9187927 5.8922424 -11.423676c1.9369507 -2.9990234 5.4897385 -3.7679443 8.506111 -2.767456c1.2883987 0.42736816 2.4720612 1.1704712 3.3784332 2.1916199c3.1144333 3.2919006 3.8589478 8.75766 3.837326 13.794037c-0.015808105 5.0188293 -0.80911255 10.14978 -0.3691101 15.164001c0.6136322 4.896576 2.832611 9.975098 6.9789124 11.525635c4.18351 1.3876038 10.046364 -2.237091 10.068001 -7.273468c-0.14259338 -6.823944 2.845047 -15.374847 6.1873474 -21.393433c2.944046 -5.2743835 9.065659 -8.969025 13.779694 -7.4054565c0.66693115 0.22122192 1.2896118 0.52511597 1.8715668 0.95181274c7.8546143 5.740448 1.6365204 22.255402 8.186417 29.646729c6.872818 -0.8360901 13.486664 -4.036438 19.92688 -7.11911c6.555649 -3.0249023 13.117126 -6.0673523 20.079819 -6.717865c2.952713 -0.22793579 5.975708 0.093170166 8.764709 1.0182495c3.6226807 1.2015991 6.8717346 3.4281921 9.045456 6.8170166c3.68956 6.0726013 2.7382202 16.194672 -3.1078339 20.681763c-8.232483 6.3049316 -19.5513 -0.75979614 -28.135132 4.7275696c-5.5224915 3.562317 -7.9082184 10.755005 -11.181625 16.97171c-6.254669 11.653992 -12.013138 8.1666565 -21.271744 5.7967224c-10.759216 -2.8676453 -21.361313 -6.208954 -31.911041 -9.70816c-21.099464 -6.998413 -41.84887 -15.458038 -61.880898 -25.21811l0.18260956 -6.8913574c1.8745346 -20.565063 -2.9611053 -41.291626 -13.396469 -56.904144c-2.5797462 -3.9908752 -5.5704 -8.974823 -3.344017 -13.45517c1.4450111 -2.9869385 4.5975876 -4.3754272 7.383869 -4.1522827c0.8335266 0.02331543 1.6205063 0.1869812 2.393547 0.4433899z" fill-rule="evenodd"/><path fill="#000000" fill-opacity="0.0" d="m144.7937 176.76851l670.3748 0l0 186.4063l-670.3748 0z" fill-rule="evenodd"/><path fill="#ffffff" d="m374.98022 197.06418l-21.59375 94.390625l-36.796875 0l-10.9375 -53.59375l-10.9375 53.59375l-36.796875 0l-21.59375 -94.390625l31.859375 0l8.53125 59.453125l12.8125 -59.453125l32.265625 0l12.796875 59.453125l8.53125 -59.453125l31.859375 0zm71.207886 80.125l-31.46875 0l-4.671875 14.265625l-31.0625 0l34.53125 -94.390625l34.125 0l34.40625 94.390625l-31.203125 0l-4.65625 -14.265625zm-7.203125 -22.265625l-8.53125 -26.265625l-8.53125 26.265625l17.0625 0zm123.85956 -57.859375l0 23.453125l-25.0625 0l0 70.9375l-29.609344 0l0 -70.9375l-24.796875 0l0 -23.453125l79.46872 0zm37.598938 23.59375l0 11.59375l29.328125 0l0 22.265625l-29.328125 0l0 13.34375l33.328125 0l0 23.59375l-62.921875 0l0 -94.390625l62.921875 0l0 23.59375l-33.328125 0zm91.98987 70.796875l-17.71875 -33.859375l-0.140625 0l0 33.859375l-29.59375 0l0 -94.390625l44.0 0q11.453125 0 19.578125 4.0625q8.140625 4.0625 12.203125 11.0625q4.078125 7.0 4.078125 15.796875q0 9.46875 -5.265625 16.8125q-5.265625 7.328125 -15.140625 10.53125l20.53125 36.125l-32.53125 0zm-17.859375 -53.59375l11.734375 0q4.265625 0 6.390625 -1.9375q2.140625 -1.9375 2.140625 -6.0625q0 -3.734375 -2.203125 -5.859375q-2.203125 -2.140625 -6.328125 -2.140625l-11.734375 0l0 16.0z" fill-rule="nonzero"/><path fill="#ffffff" d="m227.88611 342.61017l-9.125 0l-1.359375 4.140625l-9.0 0l10.015625 -27.375l9.890625 0l9.96875 27.375l-9.046875 0l-1.34375 -4.140625zm-2.09375 -6.453125l-2.46875 -7.609375l-2.46875 7.609375l4.9375 0zm34.749695 10.59375l-5.1406097 -9.8125l-0.03125 0l0 9.8125l-8.578125 0l0 -27.375l12.749985 0q3.328125 0 5.6875 1.1875q2.359375 1.171875 3.53125 3.203125q1.1875 2.03125 1.1875 4.578125q0 2.75 -1.53125 4.875q-1.53125 2.125 -4.390625 3.0625l5.953125 10.46875l-9.4375 0zm-5.1718597 -15.546875l3.4062347 0q1.234375 0 1.84375 -0.546875q0.625 -0.5625 0.625 -1.765625q0 -1.078125 -0.640625 -1.6875q-0.640625 -0.625 -1.828125 -0.625l-3.4062347 0l0 4.625zm25.899673 -4.984375l0 3.375l8.5 0l0 6.453125l-8.5 0l0 3.859375l9.65625 0l0 6.84375l-18.234375 0l0 -27.375l18.234375 0l0 6.84375l-9.65625 0zm23.617859 20.796875q-4.90625 0 -8.09375 -2.296875q-3.1875 -2.296875 -3.46875 -6.75l9.125 0q0.203125 2.359375 2.09375 2.359375q0.6875 0 1.171875 -0.328125q0.484375 -0.328125 0.484375 -1.015625q0 -0.96875 -1.046875 -1.5625q-1.03125 -0.609375 -3.25 -1.375q-2.625 -0.9375 -4.34375 -1.8125q-1.71875 -0.890625 -2.953125 -2.59375q-1.234375 -1.703125 -1.203125 -4.375q0 -2.671875 1.375 -4.546875q1.375 -1.875 3.75 -2.828125q2.375 -0.96875 5.359375 -0.96875q5.015625 0 7.96875 2.328125q2.96875 2.3125 3.125 6.515625l-9.25 0q-0.03125 -1.15625 -0.578125 -1.65625q-0.53125 -0.5 -1.3125 -0.5q-0.53125 0 -0.890625 0.375q-0.34375 0.359375 -0.34375 1.015625q0 0.921875 1.015625 1.53125q1.03125 0.59375 3.28125 1.4375q2.578125 0.96875 4.265625 1.859375q1.6875 0.890625 2.921875 2.484375q1.234375 1.578125 1.234375 3.96875q0 2.515625 -1.234375 4.515625q-1.234375 1.984375 -3.59375 3.109375q-2.359375 1.109375 -5.609375 1.109375zm26.785156 0q-3.859375 0 -7.09375 -1.8125q-3.21875 -1.8125 -5.125 -5.015625q-1.890625 -3.21875 -1.890625 -7.234375q0 -4.03125 1.890625 -7.234375q1.90625 -3.203125 5.125 -5.0q3.234375 -1.796875 7.09375 -1.796875q3.875 0 7.078125 1.796875q3.203125 1.796875 5.078125 5.0q1.875 3.203125 1.875 7.234375q0 4.015625 -1.875 7.234375q-1.875 3.203125 -5.109375 5.015625q-3.21875 1.8125 -7.046875 1.8125zm0 -8.0q2.5625 0 3.953125 -1.640625q1.390625 -1.640625 1.390625 -4.421875q0 -2.828125 -1.390625 -4.46875q-1.390625 -1.640625 -3.953125 -1.640625q-2.59375 0 -3.984375 1.640625q-1.390625 1.640625 -1.390625 4.46875q0 2.78125 1.390625 4.421875q1.390625 1.640625 3.984375 1.640625zm25.52362 -19.640625l0 15.4375q0 1.890625 0.828125 3.0q0.828125 1.09375 2.6875 1.09375q1.84375 0 2.734375 -1.09375q0.890625 -1.109375 0.890625 -3.0l0 -15.4375l8.546875 0l0 15.4375q0 3.890625 -1.625 6.65625q-1.625 2.765625 -4.453125 4.15625q-2.8125 1.390625 -6.296875 1.390625q-3.46875 0 -6.15625 -1.390625q-2.6875 -1.390625 -4.203125 -4.125q-1.5 -2.75 -1.5 -6.6875l0 -15.4375l8.546875 0zm33.1532 27.375l-5.140625 -9.8125l-0.03125 0l0 9.8125l-8.578125 0l0 -27.375l12.75 0q3.328125 0 5.6875 1.1875q2.359375 1.171875 3.53125 3.203125q1.1875 2.03125 1.1875 4.578125q0 2.75 -1.53125 4.875q-1.53125 2.125 -4.390625 3.0625l5.953125 10.46875l-9.4375 0zm-5.171875 -15.546875l3.40625 0q1.234375 0 1.84375 -0.546875q0.625 -0.5625 0.625 -1.765625q0 -1.078125 -0.640625 -1.6875q-0.640625 -0.625 -1.828125 -0.625l-3.40625 0l0 4.625zm16.540314 1.828125q0 -4.0625 1.640625 -7.234375q1.65625 -3.171875 4.703125 -4.921875q3.046875 -1.765625 7.1875 -1.765625q3.5625 0 6.359375 1.34375q2.796875 1.328125 4.5625 3.765625q1.765625 2.4375 2.34375 5.671875l-9.046875 0q-0.625 -1.34375 -1.765625 -2.09375q-1.140625 -0.765625 -2.609375 -0.765625q-2.15625 0 -3.421875 1.625q-1.25 1.625 -1.25 4.375q0 2.734375 1.25 4.359375q1.265625 1.625 3.421875 1.625q1.46875 0 2.609375 -0.75q1.140625 -0.75 1.765625 -2.109375l9.046875 0q-0.578125 3.25 -2.34375 5.6875q-1.765625 2.4375 -4.5625 3.765625q-2.796875 1.328125 -6.359375 1.328125q-4.140625 0 -7.1875 -1.75q-3.046875 -1.765625 -4.703125 -4.921875q-1.640625 -3.171875 -1.640625 -7.234375zm38.46753 -6.8125l0 3.375l8.5 0l0 6.453125l-8.5 0l0 3.859375l9.65625 0l0 6.84375l-18.234375 0l0 -27.375l18.234375 0l0 6.84375l-9.65625 0zm38.814423 -6.84375l0 6.8125l-10.75 0l0 3.78125l7.734375 0l0 6.453125l-7.734375 0l0 10.328125l-8.578125 0l0 -27.375l19.328125 0zm16.227325 27.640625q-3.859375 0 -7.09375 -1.8125q-3.21875 -1.8125 -5.125 -5.015625q-1.890625 -3.21875 -1.890625 -7.234375q0 -4.03125 1.890625 -7.234375q1.90625 -3.203125 5.125 -5.0q3.234375 -1.796875 7.09375 -1.796875q3.875 0 7.078125 1.796875q3.203125 1.796875 5.078125 5.0q1.875 3.203125 1.875 7.234375q0 4.015625 -1.875 7.234375q-1.875 3.203125 -5.109375 5.015625q-3.21875 1.8125 -7.046875 1.8125zm0 -8.0q2.5625 0 3.953125 -1.640625q1.390625 -1.640625 1.390625 -4.421875q0 -2.828125 -1.390625 -4.46875q-1.390625 -1.640625 -3.953125 -1.640625q-2.59375 0 -3.984375 1.640625q-1.390625 1.640625 -1.390625 4.46875q0 2.78125 1.390625 4.421875q1.390625 1.640625 3.984375 1.640625zm30.882996 7.734375l-5.140625 -9.8125l-0.03125 0l0 9.8125l-8.578125 0l0 -27.375l12.75 0q3.328125 0 5.6875 1.1875q2.359375 1.171875 3.53125 3.203125q1.1875 2.03125 1.1875 4.578125q0 2.75 -1.53125 4.875q-1.53125 2.125 -4.390625 3.0625l5.953125 10.46875l-9.4375 0zm-5.171875 -15.546875l3.40625 0q1.234375 0 1.84375 -0.546875q0.625 -0.5625 0.625 -1.765625q0 -1.078125 -0.640625 -1.6875q-0.640625 -0.625 -1.828125 -0.625l-3.40625 0l0 4.625zm32.47119 -4.984375l0 3.375l8.5 0l0 6.453125l-8.5 0l0 3.859375l9.65625 0l0 6.84375l-18.234375 0l0 -27.375l18.234375 0l0 6.84375l-9.65625 0zm40.477295 -6.84375l-9.203125 27.375l-11.09375 0l-9.203125 -27.375l9.125 0l5.640625 18.828125l5.609375 -18.828125l9.125 0zm10.510315 6.84375l0 3.375l8.5 0l0 6.453125l-8.5 0l0 3.859375l9.65625 0l0 6.84375l-18.234375 0l0 -27.375l18.234375 0l0 6.84375l-9.65625 0zm26.664734 20.53125l-5.140625 -9.8125l-0.03125 0l0 9.8125l-8.578125 0l0 -27.375l12.75 0q3.328125 0 5.6875 1.1875q2.359375 1.171875 3.53125 3.203125q1.1875 2.03125 1.1875 4.578125q0 2.75 -1.53125 4.875q-1.53125 2.125 -4.390625 3.0625l5.953125 10.46875l-9.4375 0zm-5.171875 -15.546875l3.40625 0q1.234375 0 1.84375 -0.546875q0.625 -0.5625 0.625 -1.765625q0 -1.078125 -0.640625 -1.6875q-0.640625 -0.625 -1.828125 -0.625l-3.40625 0l0 4.625zm43.602783 -11.828125l-9.8125 19.0625l0 8.3125l-8.59375 0l0 -8.3125l-9.8125 -19.0625l9.8125 0l4.375 9.703125l4.375 -9.703125l9.65625 0zm15.26593 27.640625q-3.859375 0 -7.09375 -1.8125q-3.21875 -1.8125 -5.125 -5.015625q-1.890625 -3.21875 -1.890625 -7.234375q0 -4.03125 1.890625 -7.234375q1.90625 -3.203125 5.125 -5.0q3.234375 -1.796875 7.09375 -1.796875q3.875 0 7.078125 1.796875q3.203125 1.796875 5.078125 5.0q1.875 3.203125 1.875 7.234375q0 4.015625 -1.875 7.234375q-1.875 3.203125 -5.109375 5.015625q-3.21875 1.8125 -7.046875 1.8125zm0 -8.0q2.5625 0 3.953125 -1.640625q1.390625 -1.640625 1.390625 -4.421875q0 -2.828125 -1.390625 -4.46875q-1.390625 -1.640625 -3.953125 -1.640625q-2.59375 0 -3.984375 1.640625q-1.390625 1.640625 -1.390625 4.46875q0 2.78125 1.390625 4.421875q1.390625 1.640625 3.984375 1.640625zm43.382996 7.734375l-8.59375 0l-9.078125 -13.765625l0 13.765625l-8.578125 0l0 -27.375l8.578125 0l9.078125 14.0l0 -14.0l8.59375 0l0 27.375zm12.441345 -20.53125l0 3.375l8.5 0l0 6.453125l-8.5 0l0 3.859375l9.65625 0l0 6.84375l-18.234375 0l0 -27.375l18.234375 0l0 6.84375l-9.65625 0z" fill-rule="nonzero"/><path fill="#0060c1" d="m472.5885 517.9652c2.9332275 5.515808 7.3946533 10.472351 9.656372 12.844971c15.040161 15.482971 33.73712 26.975342 52.577698 32.502563c0.5164795 0.15148926 1.036438 0.29125977 1.5529175 0.44281006c12.000244 3.2908936 29.160461 4.116272 44.16455 2.6000366l-0.27563477 0.9394531c-15.004089 1.5162354 -32.02765 0.61621094 -44.133484 -2.7056885c-0.65319824 -0.07684326 -1.1813965 -0.23181152 -1.8035889 -0.41430664c-19.063599 -5.5926514 -37.92218 -17.272705 -53.11026 -32.990417c-2.2617188 -2.3725586 -6.969757 -7.618347 -10.02124 -13.513184c0.4225769 0.1239624 0.8644409 0.13879395 1.3926697 0.2937622z" fill-rule="evenodd"/><path fill="#41d5ff" d="m141.77853 91.55382l-2.3139648 0.24595642l1.578949 16.20546l2.3139648 -0.24594879l-1.578949 -16.205467z" fill-rule="evenodd"/><path fill="#41d5ff" d="m129.05885 87.76063l-10.330261 12.547485l1.8261871 1.460907l10.330261 -12.547478l-1.8261871 -1.4609146z" fill-rule="evenodd"/><path fill="#41d5ff" d="m124.63 77.480316l-16.19535 1.4564362l0.24559021 2.4364777l16.19535 -1.578949l-0.24559021 -2.3139648z" fill-rule="evenodd"/><path fill="#41d5ff" d="m116.2536 56.73071l-1.5827332 1.703537l12.539055 10.466541l1.5827255 -1.8261948l-12.539047 -10.3438835z" fill-rule="evenodd"/><path fill="#41d5ff" d="m137.50768 46.33701l-2.31398 0.24559021l1.4564514 16.195354l2.4364624 -0.24559402l-1.5789337 -16.19535z" fill-rule="evenodd"/><path fill="#41d5ff" d="m157.9964 52.72441l-10.330261 12.547478l1.8262024 1.4609146l10.330246 -12.547478l-1.8261871 -1.4609146z" fill-rule="evenodd"/><path fill="#41d5ff" d="m169.83315 73.10963l-16.195343 1.5734406l0.24559021 2.2923431l16.195343 -1.5734406l-0.24559021 -2.2923431z" fill-rule="evenodd"/><path fill="#41d5ff" d="m151.18066 85.544334l-1.4599304 1.8261948l12.539047 10.330261l1.5827332 -1.8261948l-12.66185 -10.330261z" fill-rule="evenodd"/><path fill="#000000" fill-opacity="0.0" d="m690.5421 455.3471l0 0c-2.937439 -19.400208 10.408203 -37.508453 29.80841 -40.445923l0 0c9.316345 -1.4106445 18.811401 0.93740845 26.396484 6.5275574c7.585083 5.5901794 12.638855 13.964539 14.049438 23.280853l0 0c2.9375 19.400208 -10.408203 37.508453 -29.80841 40.445923l0 0c-19.400208 2.9374695 -37.508423 -10.408203 -40.445923 -29.80841z" fill-rule="evenodd"/><path stroke="#41d5ff" stroke-width="2.0" stroke-linejoin="round" stroke-linecap="butt" d="m690.5421 455.3471l0 0c-2.937439 -19.400208 10.408203 -37.508453 29.80841 -40.445923l0 0c9.316345 -1.4106445 18.811401 0.93740845 26.396484 6.5275574c7.585083 5.5901794 12.638855 13.964539 14.049438 23.280853l0 0c2.9375 19.400208 -10.408203 37.508453 -29.80841 40.445923l0 0c-19.400208 2.9374695 -37.508423 -10.408203 -40.445923 -29.80841z" fill-rule="evenodd"/><path fill="#000000" fill-opacity="0.0" d="m68.18268 100.36536l0 0c0 -4.2060623 3.4096832 -7.615753 7.6157455 -7.615753l0 0c2.0198212 0 3.9569168 0.8023758 5.385147 2.230606c1.4282303 1.4282303 2.230606 3.365326 2.230606 5.385147l0 0c0 4.2060623 -3.4096909 7.6157455 -7.615753 7.6157455l0 0c-4.2060623 0 -7.6157455 -3.4096832 -7.6157455 -7.6157455z" fill-rule="evenodd"/><path stroke="#41d5ff" stroke-width="2.0" stroke-linejoin="round" stroke-linecap="butt" d="m68.18268 100.36536l0 0c0 -4.2060623 3.4096832 -7.615753 7.6157455 -7.615753l0 0c2.0198212 0 3.9569168 0.8023758 5.385147 2.230606c1.4282303 1.4282303 2.230606 3.365326 2.230606 5.385147l0 0c0 4.2060623 -3.4096909 7.6157455 -7.615753 7.6157455l0 0c-4.2060623 0 -7.6157455 -3.4096832 -7.6157455 -7.6157455z" fill-rule="evenodd"/><path fill="#41d5ff" d="m96.41575 187.1244l0 0c0 -2.5674744 2.0813446 -4.648819 4.648819 -4.648819l0 0c1.2329407 0 2.41539 0.48979187 3.2872086 1.361618c0.8718262 0.8718109 1.3616104 2.0542603 1.3616104 3.287201l0 0c0 2.5674744 -2.0813446 4.648819 -4.648819 4.648819l0 0c-2.5674744 0 -4.648819 -2.0813446 -4.648819 -4.648819z" fill-rule="evenodd"/><path fill="#41d5ff" d="m665.19684 478.67715l0 0c0 -2.5674744 2.0813599 -4.6488037 4.6488037 -4.6488037l0 0c1.2329712 0 2.4154053 0.4897766 3.2872314 1.3616028c0.8718262 0.8718262 1.3616333 2.0542603 1.3616333 3.287201l0 0c0 2.5674744 -2.0813599 4.648834 -4.6488647 4.648834l0 0c-2.5674438 0 -4.6488037 -2.0813599 -4.6488037 -4.648834z" fill-rule="evenodd"/><path fill="#41d5ff" d="m874.66675 447.24515l-2.3139648 0.24597168l1.5789185 16.205444l2.3139648 -0.24594116l-1.5789185 -16.205475z" fill-rule="evenodd"/><path fill="#41d5ff" d="m861.947 443.45197l-10.330261 12.547485l1.8262329 1.460907l10.330261 -12.547485l-1.8262329 -1.460907z" fill-rule="evenodd"/><path fill="#41d5ff" d="m857.55597 433.20944l-16.195312 1.4564514l0.24554443 2.4364624l16.195374 -1.578949l-0.24560547 -2.3139648z" fill-rule="evenodd"/><path fill="#41d5ff" d="m849.1418 412.45984l-1.5827026 1.7035522l12.539001 10.466522l1.5827637 -1.8261719l-12.5390625 -10.343903z" fill-rule="evenodd"/><path fill="#41d5ff" d="m870.3959 402.06613l-2.3139648 0.24560547l1.4564209 16.195343l2.4364624 -0.24557495l-1.5789185 -16.195374z" fill-rule="evenodd"/><path fill="#41d5ff" d="m890.8846 408.41574l-10.330261 12.547485l1.8262329 1.460907l10.3302 -12.547485l-1.8261719 -1.460907z" fill-rule="evenodd"/><path fill="#41d5ff" d="m902.7213 428.80096l-16.195312 1.5734558l0.24554443 2.292328l16.195374 -1.5734253l-0.24560547 -2.2923584z" fill-rule="evenodd"/><path fill="#41d5ff" d="m884.06885 441.27347l-1.4598999 1.8262024l12.539001 10.330261l1.5827637 -1.8262024l-12.661865 -10.330261z" fill-rule="evenodd"/><path fill="#41d5ff" d="m806.862 101.83414l-2.3139648 0.24594879l1.5789185 16.20546l2.3139648 -0.24594879l-1.5789185 -16.20546z" fill-rule="evenodd"/><path fill="#41d5ff" d="m794.14233 98.04095l-10.330261 12.547478l1.8261719 1.4609146l10.330261 -12.547478l-1.8261719 -1.4609146z" fill-rule="evenodd"/><path fill="#41d5ff" d="m789.7513 87.79842l-16.195374 1.4564438l0.24560547 2.43647l16.195312 -1.5789413l-0.24554443 -2.3139725z" fill-rule="evenodd"/><path fill="#41d5ff" d="m781.3749 67.011024l-1.5827637 1.703537l12.5390625 10.466537l1.5827637 -1.8261871l-12.5390625 -10.343887z" fill-rule="evenodd"/><path fill="#41d5ff" d="m802.5911 56.655117l-2.3139648 0.24559021l1.4564209 16.195354l2.4365234 -0.24559021l-1.5789795 -16.195354z" fill-rule="evenodd"/><path fill="#41d5ff" d="m823.07983 63.004723l-10.3302 12.547478l1.8261719 1.4609146l10.330261 -12.547478l-1.8262329 -1.4609146z" fill-rule="evenodd"/><path fill="#41d5ff" d="m834.9166 83.38994l-16.195374 1.5734482l0.24560547 2.2923431l16.195374 -1.5734482l-0.24560547 -2.2923431z" fill-rule="evenodd"/><path fill="#41d5ff" d="m816.30194 95.82465l-1.4599609 1.8261948l12.5390625 10.330254l1.5827637 -1.8261948l-12.661865 -10.330254z" fill-rule="evenodd"/><path fill="#41d5ff" d="m738.74646 122.94803l0 0c0 -2.5674667 2.0813599 -4.648819 4.6488037 -4.648819l0 0c1.2329712 0 2.4154053 0.48978424 3.2872314 1.3616104c0.8718262 0.8718262 1.3615723 2.054268 1.3615723 3.2872086l0 0c0 2.5674744 -2.0812988 4.648819 -4.6488037 4.648819l0 0c-2.5674438 0 -4.6488037 -2.0813446 -4.6488037 -4.648819z" fill-rule="evenodd"/><path fill="#41d5ff" d="m880.4409 158.66457l0 0c0 -2.5674744 2.0813599 -4.648819 4.6488647 -4.648819l0 0c1.2329102 0 2.4153442 0.48979187 3.2871704 1.3616028c0.8718262 0.8718262 1.3616333 2.0542755 1.3616333 3.2872162l0 0c0 2.5674744 -2.0813599 4.648819 -4.6488037 4.648819l0 0c-2.567505 0 -4.6488647 -2.0813446 -4.6488647 -4.648819z" fill-rule="evenodd"/><path fill="#000000" fill-opacity="0.0" d="m854.2866 187.14331l0 0c0 -4.20607 3.409668 -7.615753 7.6157227 -7.615753l0 0c2.0198364 0 3.9569092 0.80236816 5.385193 2.230606c1.4282227 1.4282227 2.2305908 3.365326 2.2305908 5.385147l0 0c0 4.2060547 -3.409729 7.615738 -7.6157837 7.615738l0 0c-4.2060547 0 -7.6157227 -3.4096832 -7.6157227 -7.615738z" fill-rule="evenodd"/><path stroke="#41d5ff" stroke-width="2.0" stroke-linejoin="round" stroke-linecap="butt" d="m854.2866 187.14331l0 0c0 -4.20607 3.409668 -7.615753 7.6157227 -7.615753l0 0c2.0198364 0 3.9569092 0.80236816 5.385193 2.230606c1.4282227 1.4282227 2.2305908 3.365326 2.2305908 5.385147l0 0c0 4.2060547 -3.409729 7.615738 -7.6157837 7.615738l0 0c-4.2060547 0 -7.6157227 -3.4096832 -7.6157227 -7.615738z" fill-rule="evenodd"/><path fill="#000000" fill-opacity="0.0" d="m300.88818 96.850395l0 0c0 4.2060623 3.4096985 7.6157455 7.615753 7.6157455l0 0c2.0198364 0 3.9569092 -0.80236816 5.3851624 -2.2305984c1.4282227 -1.4282303 2.2305908 -3.365326 2.2305908 -5.385147l0 0c0 -4.2060623 -3.4096985 -7.615753 -7.615753 -7.615753l0 0c-4.2060547 0 -7.615753 3.4096909 -7.615753 7.615753z" fill-rule="evenodd"/><path stroke="#41d5ff" stroke-width="2.0" stroke-linejoin="round" stroke-linecap="butt" d="m300.88818 96.850395l0 0c0 4.2060623 3.4096985 7.6157455 7.615753 7.6157455l0 0c2.0198364 0 3.9569092 -0.80236816 5.3851624 -2.2305984c1.4282227 -1.4282303 2.2305908 -3.365326 2.2305908 -5.385147l0 0c0 -4.2060623 -3.4096985 -7.615753 -7.615753 -7.615753l0 0c-4.2060547 0 -7.615753 3.4096909 -7.615753 7.615753z" fill-rule="evenodd"/><path fill="#41d5ff" d="m109.00014 342.7482c6.682289 3.2895203 12.608665 9.000702 16.258957 14.572601c7.8294983 11.758575 5.916626 33.67108 -5.0622025 41.15857c-3.507141 2.3891602 -7.59272 2.381256 -10.939346 0.73379517c-3.478302 -1.7123108 -6.1582413 -5.1848145 -6.5853653 -9.60614c-0.72647095 -7.6622314 -8.278397 -13.560364 -14.415726 -18.898407c-12.660072 -11.083832 -10.229599 -29.838806 8.693871 -30.73059c4.073227 -0.21621704 8.187477 0.86880493 12.049812 2.770172z" fill-rule="evenodd"/><path fill="#73f7ff" d="m108.60474 345.33624c6.0340576 2.9704285 11.397842 8.105347 14.753593 13.083252c6.8964767 10.6875 5.3064804 30.446533 -4.55085 37.152985c-3.2025604 2.1310425 -6.910614 2.1049194 -9.938614 0.61431885c-3.1267395 -1.5392151 -5.5467606 -4.6524963 -5.96463 -8.565826c-0.68317413 -7.0290527 -7.3545456 -12.24881 -12.896744 -17.049011c-11.376556 -9.975952 -9.1399765 -26.867706 7.829918 -27.755524c3.630249 -0.17578125 7.311455 0.8185425 10.767326 2.519806z" fill-rule="evenodd"/><path fill="#ffffff" d="m109.37946 348.08755c3.8059006 1.8743896 8.6137085 8.317627 10.469452 10.382416c4.0953903 4.6707153 6.411667 9.074524 8.2892685 14.589142c0.59262085 1.7406006 0.8425293 3.4342651 0.3695526 5.1374817c-0.64611053 2.6875916 -3.3061981 4.071869 -5.465416 3.008484c-0.53435516 -0.2631836 -1.0261154 -0.6678467 -1.4536514 -1.2304382c-1.3747101 -1.6383362 -1.6292572 -4.0654297 -2.0340576 -6.1874084c-0.049850464 -0.14639282 -0.05139923 -0.39086914 -0.101249695 -0.5372925c-1.0456772 -5.470459 -3.7037964 -10.638367 -7.264145 -14.937256c-1.5725479 -1.9794922 -10.680527 -8.523132 -5.546112 -10.584381c0.7916031 -0.31417847 1.7221832 -0.14022827 2.7363586 0.35925293z" fill-rule="evenodd"/><path fill="#ffffff" d="m101.81805 344.33002c0.6060791 0.29849243 1.0621796 0.8468933 1.2276154 1.5758972c0.33532715 1.2578125 -0.4304428 2.566925 -1.6758881 2.9113464c-0.61444855 0.21002197 -1.2301865 0.14959717 -1.7496719 -0.10626221c-0.595253 -0.29315186 -1.0567093 -0.8306885 -1.2975159 -1.5158691c-0.29254913 -1.344696 0.4732132 -2.6538086 1.7186661 -2.99823c0.6415634 -0.18313599 1.2681274 -0.11740112 1.7767944 0.13311768z" fill-rule="evenodd"/><path fill="#41d5ff" d="m297.05072 455.74225c2.874878 0.8434143 5.502411 2.2257996 7.5004272 4.2770996c9.21228 9.3020935 1.734436 20.065308 -9.984283 19.697845c-5.5545654 -0.049713135 -12.21579 -0.6279297 -16.22522 2.9607239c-2.2702026 2.047699 -5.2420044 2.577301 -7.78833 1.8302917c-2.4759216 -0.7263489 -4.5504456 -2.6471863 -5.2206726 -5.5320435c-2.1481934 -8.924225 7.1829224 -20.965607 16.643585 -23.413727c4.4978333 -1.126648 10.146118 -1.2659912 15.074493 0.17980957z" fill-rule="evenodd"/><path fill="#73f7ff" d="m296.1305 457.30072c2.5811462 0.75723267 4.9322205 1.9946594 6.7434998 3.8125c8.235382 8.326141 1.5184937 18.06128 -8.986725 17.819824c-5.072876 -0.12530518 -10.959534 -0.6040039 -14.636658 2.6352234c-2.0243835 1.775238 -4.723236 2.2445068 -7.034546 1.5664368c-2.2409058 -0.65740967 -4.118347 -2.3800354 -4.6862183 -5.004944c-1.9817505 -7.969055 6.44812 -18.895721 15.040192 -21.036987c4.022522 -0.98526 9.113831 -1.0965576 13.560455 0.20794678z" fill-rule="evenodd"/><path fill="#ffffff" d="m295.92072 459.43213c0.76257324 0.22369385 1.317688 0.5899658 1.5777893 1.1366272c1.7139587 3.4520874 -6.0914917 2.522461 -7.868164 2.802124c-3.8154602 0.58413696 -7.6326294 1.9559326 -10.790558 4.2075806c-0.030914307 0.10534668 -0.16738892 0.17971802 -0.30389404 0.25408936c-1.1694641 0.9027405 -2.4007568 2.0161438 -3.8380737 2.2682495c-0.4807129 0.07507324 -0.91882324 0.04824829 -1.3059692 -0.06530762c-1.642456 -0.48187256 -2.3901367 -2.4936523 -1.4492798 -4.137207c0.55114746 -1.0968323 1.4593811 -1.8473816 2.5361328 -2.434082c3.6549683 -1.9914551 6.8549194 -3.2138062 11.1831665 -3.6347656c1.9320374 -0.1578064 7.4314575 -1.2267761 10.25885 -0.39730835z" fill-rule="evenodd"/><path fill="#ffffff" d="m301.64227 461.0995c0.38235474 0.1121521 0.738678 0.35601807 0.98916626 0.7461548c0.43276978 0.7982178 0.23257446 1.8666992 -0.5662842 2.3162842c-0.45233154 0.2979126 -0.96713257 0.33688354 -1.4074097 0.20770264c-0.38238525 -0.1121521 -0.71551514 -0.34921265 -0.9367676 -0.66741943c-0.5336304 -0.84051514 -0.2291565 -1.8783875 0.6086426 -2.4178772c0.37728882 -0.2565918 0.8607483 -0.31741333 1.3126526 -0.18484497z" fill-rule="evenodd"/><path fill="#41d5ff" d="m154.69606 397.41733l0 0c0 2.5674744 2.0813446 4.6488037 4.648819 4.6488037l0 0c1.2329407 0 2.41539 -0.4897766 3.2872162 -1.3616028c0.8718262 -0.8718262 1.3616028 -2.0542603 1.3616028 -3.287201l0 0c0 -2.5674744 -2.0813446 -4.648834 -4.648819 -4.648834l0 0c-2.5674744 0 -4.648819 2.0813599 -4.648819 4.648834z" fill-rule="evenodd"/></g></svg>