<svg version="1.1" viewBox="0.0 0.0 960.0 540.0" fill="none" stroke="none" stroke-linecap="square" stroke-miterlimit="10" xmlns:xlink="http://www.w3.org/1999/xlink" xmlns="http://www.w3.org/2000/svg"><clipPath id="p11.0"><path d="m0 0l960.0 0l0 540.0l-960.0 0l0 -540.0z" clip-rule="nonzero"/></clipPath><g clip-path="url(#p11.0)"><path fill="#0060c1" d="m0 0l960.0 0l0 540.0l-960.0 0z" fill-rule="evenodd"/><path fill="#184eab" fill-opacity="0.49803922" d="m761.5108 537.75116c-0.98547363 -7.526428 -1.5233765 -15.143188 -1.5233765 -22.763916c0 -23.568756 4.8411865 -47.04724 15.147888 -68.55478c26.883728 -56.100983 80.65912 -90.871124 132.63623 -124.56549c17.2995 -11.201355 34.86212 -22.493011 51.62372 -34.77014l0 3.2233887c-16.310059 11.829529 -33.429016 22.854218 -50.186707 33.698303c-54.13263 35.03711 -105.21454 68.01691 -131.74493 123.489716c-13.439941 28.138824 -17.476196 59.595276 -13.439941 90.24292z" fill-rule="evenodd"/><path fill="#184eab" fill-opacity="0.49803922" d="m675.81354 537.6756c12.7247925 -20.614014 23.565613 -41.404724 32.61267 -62.376038c37.89569 -88.102325 42.19751 -182.74225 11.735718 -259.7287c-9.765381 -24.913498 -23.381104 -48.664764 -36.553345 -71.60718c-14.063232 -24.469818 -28.57782 -49.74063 -38.523743 -76.53885c-8.419067 -22.404488 -13.348816 -45.888756 -14.958069 -69.7264l2.5080566 0c1.6995239 23.480343 6.5390015 46.783993 14.781494 68.83116c9.941956 26.6176 24.366272 51.802032 38.34314 76.17762c13.258606 23.032715 26.878296 46.78398 36.82025 71.968414c30.642334 77.61076 26.340576 172.96922 -11.825989 261.6095c-8.866516 20.700409 -19.5307 41.13379 -31.980713 61.390503z" fill-rule="evenodd"/><path fill="#184eab" fill-opacity="0.49803922" d="m859.5289 219.8512c-15.50116 0 -29.848022 -5.7599335 -38.86682 -16.042984c-8.873535 -10.035706 -12.187378 -23.38916 -15.414795 -36.295013c-3.137146 -12.187332 -6.274292 -24.826187 -14.068054 -34.323975c-8.068665 -9.768715 -19.537476 -15.05748 -31.638428 -20.613235c-6.721924 -3.0468369 -13.530212 -6.183975 -19.804443 -10.035706c-18.46167 -11.830032 -30.919922 -31.728676 -35.042603 -56.103336c-0.98547363 -5.73637 -1.4331055 -11.649422 -1.4331055 -17.476097c0 -10.663914 1.5234375 -21.24145 4.6605835 -31.186844l2.6895142 0c-4.8411865 15.324469 -6.093689 31.991741 -3.408081 48.305645c3.945984 23.569763 16.04303 42.836266 33.966797 54.309006c6.003357 3.7614212 12.815552 6.8985596 19.356812 9.855087c11.920349 5.4693832 24.19806 11.025139 32.53363 21.331757c8.2453 9.949326 11.472778 22.851242 14.606018 35.309494c3.227417 12.634933 6.454895 25.631088 14.967163 35.309494c8.512329 9.631287 22.187744 15.096741 37.03717 15.096741c2.972229 0 5.9954834 -0.21987915 9.030579 -0.66748047c14.248657 -2.061325 28.854675 -8.692902 45.97351 -20.880234c16.757568 -11.920334 31.815063 -26.259293 44.720947 -42.211975l0 4.2129517c-12.72522 15.234161 -27.335144 28.677917 -43.28784 40.06035c-17.385864 12.36795 -32.353027 19.176208 -47.049316 21.327835c-3.1999512 0.48294067 -6.3881836 0.7185211 -9.529236 0.7185211z" fill-rule="evenodd"/><path fill="#184eab" fill-opacity="0.49803922" d="m162.84874 537.6378c-1.7904358 -8.964355 -3.3138885 -18.282043 -4.6606445 -27.874603c-3.0468903 -23.209839 -4.570343 -46.513885 -4.570343 -69.90436c0 -63.45694 11.292343 -126.90997 33.339127 -186.60138c19.537796 -52.965225 43.46924 -86.75319 75.37128 -106.382c15.831268 -9.729996 35.475098 -15.12114 54.836212 -15.12114c25.584442 0 50.685974 9.404083 65.88507 30.627075c9.230988 12.99295 13.711029 28.67952 18.014374 43.82422c3.9421082 13.892136 8.064819 28.322205 15.952972 40.51021c15.41507 23.932327 41.31366 35.40178 68.73959 47.6801c14.068329 6.1842957 28.497833 12.639557 41.31363 20.885315c31.277771 19.986115 53.95276 53.05551 64.07898 93.1181c9.678589 38.80609 6.721985 79.763916 -8.331848 115.436646c-2.0613403 4.8374634 -4.2130127 9.411926 -6.545288 13.801819l-2.866272 0c2.5089722 -4.7511597 4.8412476 -9.678955 7.0792847 -14.787415c9.230957 -21.780548 13.534302 -45.17102 13.534302 -68.294464c0 -55.297577 -25.003357 -109.34262 -68.29199 -137.12686c-12.635132 -8.155457 -27.064697 -14.5164795 -40.95633 -20.700775c-26.617096 -11.830688 -54.04303 -24.109009 -69.90573 -48.665665c-8.064819 -12.458939 -12.187561 -27.069626 -16.21997 -41.138443c-4.3033447 -14.968018 -8.693054 -30.383636 -17.747375 -43.01927c-14.649414 -20.50444 -38.918518 -29.598328 -63.701996 -29.598328c-18.88208 0 -38.06259 5.2772675 -53.520844 14.807007c-31.368057 19.2715 -55.02858 52.70215 -74.38577 105.043045c-29.934921 81.19711 -39.88443 169.47772 -28.501785 255.24927c1.2564545 9.769257 2.8702087 19.181183 4.6606445 28.231903z" fill-rule="evenodd"/><path fill="#184eab" fill-opacity="0.49803922" d="m535.4497 189.27481c-39.43167 0 -83.12683 -17.042358 -102.90939 -33.503693c-39.34137 -32.620354 -62.547333 -87.013794 -62.547333 -144.81099c0 -4.3930893 0.17666626 -8.872549 0.4475708 -13.261713l2.598938 0c-3.8552246 61.919403 19.354645 121.42044 61.110413 156.09799c19.421387 16.170807 62.39029 32.922653 101.08386 32.922653c9.339722 0 18.432068 -0.9736328 26.880615 -3.1721344c19.802185 -5.107605 33.06775 -16.217926 39.608337 -32.883392c2.1513672 -5.7357635 3.0464478 -12.189941 3.0464478 -19.268356c0 -23.476921 -10.215149 -52.689598 -17.654724 -73.65787c-1.1659546 -3.2270966 -2.237732 -6.2736015 -3.1367798 -9.053143c-6.0026855 -17.560581 -13.081055 -34.58724 -21.32544 -50.985752l2.8659058 0c7.977417 16.127625 14.965515 32.97369 20.881836 50.180943c0.89508057 2.779541 1.9707642 5.826046 3.1367798 9.049213c9.763672 27.512753 24.371948 69.178406 14.513977 94.63005c-6.8114014 17.564514 -20.697266 29.122375 -41.217896 34.49695c-8.617371 2.2299194 -17.874634 3.2192383 -27.383118 3.2192383z" fill-rule="evenodd"/><path fill="#184eab" fill-opacity="0.49803922" d="m38.74204 537.6756c-9.677559 -20.614014 -13.890144 -43.73706 -13.890144 -67.127075c0 -30.740417 7.2591515 -61.928436 18.821182 -88.63632c17.023079 -39.166626 42.29466 -74.47745 66.84778 -108.62604c13.799843 -19.357544 28.227844 -39.433624 40.8656 -59.86702c30.198685 -48.931778 61.111908 -121.25751 36.919968 -188.74582c-3.4077454 -9.588461 -7.706711 -18.552612 -12.814407 -26.974909l2.9562683 0c4.8368073 8.155296 8.959091 16.84852 12.27655 26.16998c24.553131 68.37962 -6.721283 141.5142 -37.190872 190.80722c-12.724121 20.614014 -27.061829 40.686172 -40.951965 60.047653c-24.46283 34.05432 -49.644108 69.27878 -66.58081 108.26477c-20.25024 46.693695 -27.061827 107.636566 -4.4795494 154.68756z" fill-rule="evenodd"/><path fill="#184eab" fill-opacity="0.49803922" d="m-0.56300527 245.74095l0 -3.4939728c9.939199 -9.0490265 19.077927 -18.906784 26.957087 -29.840195c26.690262 -36.918457 38.065605 -94.895035 8.063583 -134.14151c-9.58605 -12.546936 -22.570183 -21.86684 -35.020668 -28.945103l0 -2.8658524c13.074384 7.168556 26.866837 16.936008 36.99046 30.287739c30.810337 40.141556 19.254501 99.4647 -7.9733353 137.18793c-8.416733 11.73822 -18.269608 22.224106 -29.017126 31.810959z" fill-rule="evenodd"/><path fill="#184eab" fill-opacity="0.49803922" d="m232.77313 537.6756c-0.71850586 -6.5406494 -0.8951874 -13.085266 -0.8951874 -19.26471l0 -1.2562866c0.09030151 -33.602325 2.7758942 -67.475555 7.974304 -100.63425c3.6750183 -23.657837 11.472641 -56.545624 37.280197 -69.269684c7.0280457 -3.4627075 14.330963 -4.9388733 21.590698 -4.9388733c19.042542 0 37.763123 10.156494 50.284058 21.247314c12.010559 10.757141 21.779175 23.928772 31.190521 36.6528c5.645996 7.6163635 11.468689 15.41333 17.652618 22.672424c7.6170044 8.872681 16.133148 17.113281 24.378387 25.181152c12.81543 12.36676 25.98816 25.181122 35.937378 40.233246c8.69281 12.994965 15.771942 31.545135 15.862244 49.37686l-2.5089111 0c-0.09030151 -8.511475 -1.7943115 -17.293884 -4.574127 -25.44812c-2.7759094 -8.334808 -6.631531 -16.131775 -10.840515 -22.495758c-9.858917 -14.875458 -22.945282 -27.599518 -35.58008 -39.876007c-8.335541 -8.063934 -16.93805 -16.398743 -24.555084 -25.267487c-6.2742004 -7.3493958 -12.10083 -15.236664 -17.746857 -22.853027c-9.40741 -12.633759 -19.085724 -25.718994 -30.91565 -36.201324c-12.933228 -11.518768 -31.182648 -20.49353 -48.870605 -20.49353c-6.9456177 0 -13.808777 1.381958 -20.228271 4.5423584c-24.64537 12.095886 -32.26239 44.26523 -35.84709 67.38522c-5.108124 32.97809 -7.797638 66.670715 -7.9743195 100.186676c0 6.5406494 0.17668152 13.532776 0.98550415 20.520996z" fill-rule="evenodd"/><path fill="#184eab" d="m-5.329134 541.2661l0 -314.44794c4.2104435 1.1705627 8.263651 2.6468964 12.316858 4.35907c25.01807 10.832199 45.35399 32.112198 54.93668 57.672684c7.7919426 20.808289 9.276951 44.96231 24.24062 61.332886c16.833038 18.38852 44.340683 20.493805 68.6512 25.6391c47.930923 10.203217 92.03575 37.563232 122.58331 75.90393c20.729004 26.023468 35.142334 56.965088 41.999603 89.54025z" fill-rule="evenodd"/><path fill="#184eab" fill-opacity="0.49803922" d="m0.19910721 105.37323l0 -112.478745l430.7325 0c-8.398468 1.3569956 -16.807068 2.9874158 -25.124481 4.8811336c-0.90164185 0.18228316 -1.7120972 0.3645661 -2.613739 0.5367223c-25.945068 5.8735633 -51.606445 13.650971 -77.09561 22.2284c-0.90164185 0.3645668 -1.8032837 0.62786484 -2.806244 0.99242973c-57.9281 19.696693 -115.319244 43.72767 -174.33131 59.991364c-29.551636 8.040703 -59.832687 14.177567 -90.46832 18.339691c-0.8205948 0.09114838 -1.6310616 0.26329803 -2.3503532 0.3544464c-10.850117 1.4481354 -21.781284 2.6228485 -32.72258 3.5241318c-7.6791697 0.63799286 -15.449516 1.1747131 -23.219862 1.6304245z" fill-rule="evenodd"/><path fill="#184eab" d="m940.8748 171.32599c-36.10559 0 -71.040405 -17.181396 -83.423645 -51.24884c-1.6349487 0.04219055 -3.2593384 0.06328583 -4.883728 0.06328583c-44.01654 0 -87.92767 -15.884087 -121.58612 -44.192764c-24.745483 -20.799072 -43.84784 -47.98975 -55.239563 -78.102l284.18268 0l0 171.90878c-2.637024 0.46406555 -5.3689575 0.84376526 -8.00592 1.0336151c-3.6706543 0.35861206 -7.362488 0.5379181 -11.043701 0.5379181z" fill-rule="evenodd"/><path fill="#184eab" fill-opacity="0.49803922" d="m1092.1074 324.46606l45.30017 202.9942l-777.11816 173.42169c14.605804 -5.8303833 29.119751 -12.158325 43.36316 -18.924744c1.5533142 -0.6920166 2.9421082 -1.34729 4.4995117 -2.020996c44.44394 -21.046265 87.609375 -45.414185 130.14188 -71.15662c1.4798584 -1.0209961 3.0005493 -1.8591919 4.663208 -2.9209595c96.579895 -58.8703 190.44537 -125.34665 290.3636 -178.45776c50.078064 -26.409424 102.23889 -49.676605 155.83472 -69.522675c1.4437866 -0.49487305 2.83667 -1.1318665 4.0977173 -1.585968c18.99231 -6.981964 38.241028 -13.503143 57.61798 -19.534912c13.597656 -4.2431946 27.400635 -8.340332 41.236206 -12.29126z" fill-rule="evenodd"/><path fill="#000000" fill-opacity="0.0" d="m74.872444 251.45197l599.01733 0l0 174.31183l-599.01733 0z" fill-rule="evenodd"/><path fill="#ffffff" d="m110.028694 322.45447q-10.15625 0 -16.765625 -4.75q-6.59375 -4.765625 -7.15625 -13.96875l18.890625 0q0.390625 4.875 4.3125 4.875q1.4375 0 2.4375 -0.671875q1.0 -0.6875 1.0 -2.125q0 -2.0 -2.15625 -3.234375q-2.15625 -1.25 -6.71875 -2.84375q-5.4375 -1.921875 -9.0 -3.765625q-3.5625 -1.84375 -6.125 -5.359375q-2.5625 -3.515625 -2.46875 -9.03125q0 -5.53125 2.828125 -9.40625q2.84375 -3.875 7.765625 -5.875q4.921875 -2.0 11.078125 -2.0q10.40625 0 16.515625 4.796875q6.1249924 4.796875 6.4531174 13.515625l-19.124992 0q-0.078125 -2.40625 -1.203125 -3.4375q-1.125 -1.046875 -2.71875 -1.046875q-1.125 0 -1.84375 0.765625q-0.71875 0.765625 -0.71875 2.125q0 1.921875 2.125 3.15625q2.125 1.234375 6.75 3.0q5.375 2.0 8.84375 3.84375q3.484375 1.828125 6.0468674 5.109375q2.5625 3.28125 2.5625 8.25q0 5.203125 -2.5625 9.328125q-2.5624924 4.109375 -7.4531174 6.4375q-4.875 2.3125 -11.59375 2.3125zm64.1562 -9.125l-18.875 0l-2.796875 8.5625l-18.640625 0l20.71875 -56.640625l20.484375 0l20.640625 56.640625l-18.71875 0l-2.8125 -8.5625zm-4.3125 -13.359375l-5.125 -15.765625l-5.109375 15.765625l10.234375 0zm86.886826 -34.71875l-19.04689 56.640625l-22.953125 0l-19.046875 -56.640625l18.875 0l11.6875 38.953125l11.59375 -38.953125l18.89064 0zm21.758698 14.15625l0 6.96875l17.59375 0l0 13.359375l-17.59375 0l0 8.0l20.0 0l0 14.15625l-37.765625 0l0 -56.640625l37.765625 0l0 14.15625l-20.0 0z" fill-rule="nonzero"/><path fill="#73f7ff" d="m169.46619 342.05136l-12.953125 56.640625l-22.078125 0l-6.5624924 -32.15625l-6.5625 32.15625l-22.078125 0l-12.953125 -56.640625l19.109375 0l5.125 35.6875l7.671875 -35.6875l19.374992 0l7.671875 35.6875l5.125 -35.6875l19.109375 0zm42.718674 48.078125l-18.875 0l-2.796875 8.5625l-18.640625 0l20.71875 -56.640625l20.484375 0l20.640625 56.640625l-18.71875 0l-2.8125 -8.5625zm-4.3125 -13.359375l-5.125 -15.765625l-5.109375 15.765625l10.234375 0zm74.324326 -34.71875l0 14.078125l-15.046875 0l0 42.5625l-17.750015 0l0 -42.5625l-14.890625 0l0 -14.078125l47.687515 0zm22.561188 14.15625l0 6.96875l17.59375 0l0 13.359375l-17.59375 0l0 8.0l20.0 0l0 14.15625l-37.765625 0l0 -56.640625l37.765625 0l0 14.15625l-20.0 0zm55.19873 42.484375l-10.640625 -20.3125l-0.078125 0l0 20.3125l-17.765625 0l0 -56.640625l26.40625 0q6.875 0 11.75 2.4375q4.890625 2.4375 7.328125 6.640625q2.4375 4.203125 2.4375 9.484375q0 5.671875 -3.171875 10.078125q-3.15625 4.40625 -9.0625 6.3125l12.3125 21.6875l-19.515625 0zm-10.71875 -32.15625l7.03125 0q2.5625 0 3.84375 -1.15625q1.28125 -1.171875 1.28125 -3.640625q0 -2.25 -1.328125 -3.53125q-1.3125 -1.28125 -3.796875 -1.28125l-7.03125 0l0 9.609375z" fill-rule="nonzero"/><path fill="#000000" fill-opacity="0.0" d="m74.872444 114.21732l165.12756 0l0 108.58582l-165.12756 0z" fill-rule="evenodd"/><path fill="#ffffff" d="m110.028694 195.16565q-10.15625 0 -16.765625 -4.75q-6.59375 -4.765625 -7.15625 -13.96875l18.890625 0q0.390625 4.875 4.3125 4.875q1.4375 0 2.4375 -0.671875q1.0 -0.6875 1.0 -2.125q0 -2.0 -2.15625 -3.234375q-2.15625 -1.25 -6.71875 -2.84375q-5.4375 -1.921875 -9.0 -3.765625q-3.5625 -1.84375 -6.125 -5.359375q-2.5625 -3.515625 -2.46875 -9.03125q0 -5.53125 2.828125 -9.40625q2.84375 -3.875 7.765625 -5.875q4.921875 -2.0 11.078125 -2.0q10.40625 0 16.515625 4.796875q6.1249924 4.796875 6.4531174 13.515625l-19.124992 0q-0.078125 -2.40625 -1.203125 -3.4375q-1.125 -1.046875 -2.71875 -1.046875q-1.125 0 -1.84375 0.765625q-0.71875 0.765625 -0.71875 2.125q0 1.921875 2.125 3.15625q2.125 1.234375 6.75 3.0q5.375 2.0 8.84375 3.84375q3.484375 1.828125 6.0468674 5.109375q2.5625 3.28125 2.5625 8.25q0 5.203125 -2.5625 9.328125q-2.5624924 4.109375 -7.4531174 6.4375q-4.875 2.3125 -11.59375 2.3125zm55.437447 0q-8.0 0 -14.6875 -3.75q-6.671875 -3.765625 -10.59375 -10.40625q-3.90625 -6.640625 -3.90625 -14.96875q0 -8.3125 3.90625 -14.953125q3.921875 -6.640625 10.59375 -10.359375q6.6875 -3.71875 14.6875 -3.71875q8.0 0 14.640625 3.71875q6.640625 3.71875 10.515625 10.359375q3.890625 6.640625 3.890625 14.953125q0 8.328125 -3.890625 14.96875q-3.875 6.640625 -10.5625 10.40625q-6.671875 3.75 -14.59375 3.75zm0 -16.5625q5.28125 0 8.15625 -3.390625q2.890625 -3.40625 2.890625 -9.171875q0 -5.84375 -2.890625 -9.234375q-2.875 -3.40625 -8.15625 -3.40625q-5.359375 0 -8.234375 3.40625q-2.875 3.390625 -2.875 9.234375q0 5.765625 2.875 9.171875q2.875 3.390625 8.234375 3.390625z" fill-rule="nonzero"/><path fill="#000000" fill-opacity="0.0" d="m180.51024 229.41733l-93.46772 0.03779602" fill-rule="evenodd"/><path stroke="#73f7ff" stroke-width="2.0" stroke-linejoin="round" stroke-linecap="butt" d="m180.51024 229.41733l-93.46772 0.03779602" fill-rule="evenodd"/><path fill="#f29e79" d="m833.093 331.1921l-35.538574 86.74783l-9.656067 23.355713l-58.297363 -12.634491l-5.3691406 9.654297l-0.3043213 0.5699463l-0.7319336 1.3155823l-8.208313 14.935913l95.84094 45.891327l18.146118 -30.811981l19.20819 -32.618378l48.486572 -82.06021l-63.57611 -24.34555z" fill-rule="evenodd"/><path fill="#f29e79" d="m729.6193 428.62115l-5.369751 9.648804l0.19555664 0.12838745c-0.14526367 0.11450195 -0.37145996 0.24578857 -0.49993896 0.44125366c-0.20233154 0.20135498 -0.39501953 0.49456787 -0.50671387 0.7709961c-0.128479 0.19546509 -0.17596436 0.3741455 -0.22528076 0.54382324c-0.5960083 1.9715271 0.46740723 3.8432922 0.5878296 4.062256c4.468384 3.7651978 8.936768 7.5303955 13.377502 11.207489c-0.44628906 -0.16085815 -0.89349365 -0.19021606 -1.3074951 -0.10446167c-0.68395996 0.14163208 -1.2739258 0.601532 -1.545105 1.2862244c-0.53741455 1.0306396 -0.09411621 2.3553772 1.0197144 2.8845825l19.821472 13.634857c0 0 43.03174 -1.1907959 54.49762 -3.565277c0.9989624 -0.20687866 1.7617798 -0.42114258 2.230713 -0.64956665c2.317566 -1.1366272 2.9052734 -1.924408 3.913269 -2.1331482c1.4310303 -0.29632568 3.7369385 0.59576416 13.169861 3.3609924l19.210266 -32.600006l-28.410645 -6.1617737l-0.2498169 0.38006592l-7.9571533 -2.029541l-14.00354 -11.828339l-9.657898 23.342072l-58.290466 -12.61969z" fill-rule="evenodd"/><path fill="#e66239" d="m708.3462 411.5951c-1.1607056 0.24035645 -2.0882568 1.380188 -1.8199463 2.6758118c0.18261719 0.8817749 0.381958 1.8445129 0.6623535 2.7904663c0.39770508 1.5128174 2.246704 6.8162537 6.887146 11.05365c6.397217 5.7878113 11.617065 3.5339355 13.575684 7.735565c2.071289 4.3378296 -2.6313477 7.9108887 -2.3475952 14.129608c0.16149902 4.404907 2.8961792 10.360046 14.217529 17.314453c3.3374023 1.570282 9.529541 3.966217 17.427246 4.085388c3.2890015 0.022644043 6.2924805 -0.3366089 8.955872 -0.8881836c4.930847 -1.0211182 8.693054 -2.7010498 10.912964 -3.8082275c-0.34124756 -4.86499 -1.6951294 -12.62619 -6.8459473 -20.098389c-3.369629 -4.9885254 -5.5740967 -9.561523 -16.343872 -13.852661c-18.507019 -7.305481 -36.190247 -16.70514 -43.76068 -20.908173c-0.49743652 -0.27233887 -1.0348511 -0.32992554 -1.520752 -0.22930908z" fill-rule="evenodd"/><path fill="#f29e79" d="m687.7686 422.94446c-0.60302734 0.12487793 -1.052063 0.35861206 -1.2478638 0.7275696c-0.92181396 2.0299377 5.189026 6.88208 8.483398 9.465088c3.7094116 2.9099426 9.099487 6.7290955 16.45996 10.318512c0 0 -6.1243286 -1.2463379 -7.2057495 -2.0263672c-1.0813599 -0.7800293 -20.801208 -13.106934 -20.801208 -13.106934c-0.7079468 -0.20056152 -1.4344482 -0.21899414 -2.0914917 -0.08291626c-1.0709839 0.22177124 -1.9824219 0.851532 -2.4105835 1.7752686c-0.97216797 1.7870483 -0.09851074 4.3740845 2.1730957 5.236023c2.375061 1.7694397 4.7333374 3.4578857 7.1083374 5.2273254l-11.826599 -4.578644c-1.0031128 -0.40213013 -2.0332031 -0.5266113 -2.8881836 -0.34954834c-0.5579834 0.11557007 -1.0430908 0.3567505 -1.3884277 0.72854614c-1.3306885 1.2795105 -1.2095947 4.2663574 1.182251 6.1167603c2.4866943 1.4929504 5.071228 3.0501404 7.565735 4.6259155l7.854126 5.157318c0 0 -13.771118 -5.855438 -14.524658 -5.868286c-0.018005371 0.0037231445 -0.04498291 0.009307861 -0.06298828 0.013031006c-0.92700195 0.19198608 -4.3031006 2.6082153 1.2816162 6.687317c5.6359253 4.1904907 23.535767 15.796509 28.05011 17.789093c4.6139526 2.065796 32.419434 -6.7981873 40.574646 -1.3654175c1.9259033 1.1868591 5.085205 2.7094421 9.108704 3.5557556c4.04126 0.79571533 8.991089 0.8121643 13.401123 -0.10110474c5.3010254 -1.0978088 9.832214 -3.5561829 11.041199 -7.644165c1.5375366 -5.0849304 -2.793518 -10.634064 -4.554077 -12.6996155c0 0 -7.9004517 -18.706024 -38.503174 -14.873749c0 0 -1.9595337 0.23690796 -4.9016724 0.17062378c-2.2035522 -0.12539673 -5.6969604 -0.40594482 -10.581787 -1.7400513c-7.1967163 -2.0282288 -12.510986 -5.028015 -19.661133 -9.233337c-2.567749 -1.4761963 -4.665283 -2.721344 -5.925415 -3.5487976c-2.0700684 -0.38760376 -4.31427 -0.66412354 -5.7092896 -0.37521362z" fill-rule="evenodd"/><path fill="#ffffff" d="m863.0403 276.7316c-0.0071411133 0.010864258 -49.97882 47.69699 -51.085815 73.88788l35.095276 38.113373l15.99054 -112.00125z" fill-rule="evenodd"/><path fill="#ffffff" d="m898.4061 247.17226c-0.8371582 0.1733551 -1.6956177 0.37930298 -2.5575562 0.6141205c-18.092041 4.8356323 -27.415527 22.096222 -32.784668 28.896973c-31.749634 40.830048 -22.214172 84.83536 -34.164734 226.07632c-1.8609009 22.154999 -3.6692505 40.121674 -4.8841553 51.253387c60.0506 -12.0979 120.11023 -24.197693 180.14215 -36.38568c-0.47961426 -29.37741 -1.031311 -58.73996 -1.5997314 -88.1835c-0.9621582 -57.59024 0.097351074 -87.28644 -13.172546 -125.07361c-10.263855 -28.937714 -20.908386 -40.720734 -32.31201 -47.239746c-15.4001465 -8.864334 -35.35669 -10.176285 -40.179077 -10.435547c-6.720154 -0.4482727 -12.375916 -0.7884064 -18.48767 0.47727966z" fill-rule="evenodd"/><path fill="#41d5ff" d="m703.0956 268.373c-0.10797119 0.022369385 -0.20513916 0.051879883 -0.3112793 0.08325195c-1.0916138 0.39501953 -1.7910767 1.4598083 -1.9630737 2.6688538c-0.23730469 2.4804382 -0.91326904 4.882721 -1.5891724 7.285034c-4.385315 15.223663 -8.688293 27.172943 -11.759216 35.00888c-14.091553 36.665314 -25.630554 50.526123 -25.364075 74.84018c0.12207031 13.96167 4.1760864 25.015747 6.914673 31.395172c9.673767 19.606049 27.32965 33.287903 47.042114 37.907593c7.1397705 1.7037048 14.523621 2.1834412 21.885864 1.3346863c2.0014038 -0.21734619 3.9733276 -0.53182983 5.9265747 -0.93634033c29.821106 -6.175659 53.21924 -33.484802 54.503418 -66.765625c0.2434082 -4.49057 0.13934326 -11.837982 -1.9708252 -20.440887c-5.916748 -23.312897 -22.143494 -34.94391 -54.77301 -65.53845c-7.2717285 -6.78302 -18.054749 -17.19455 -31.088684 -30.406708c-1.5715332 -1.5144348 -3.0806885 -3.1356812 -4.199707 -4.9128113c-0.11456299 -0.14523315 -0.12945557 -0.21725464 -0.22723389 -0.28149414c-0.74053955 -0.9918823 -1.9821777 -1.45755 -3.0263672 -1.241333z" fill-rule="evenodd"/><path fill="#10b2fd" d="m707.91425 278.09735l0 0c0.016784668 0.08099365 0.11456299 0.14523315 0.13134766 0.2262268c1.0853882 1.6149292 2.3988647 3.1075134 3.855713 4.476532c3.7503662 3.8319397 7.3132324 7.3929443 10.6380005 10.665405l0 0c-4.4437256 -5.3215637 -9.329712 -10.467041 -14.625061 -15.368164zm14.625061 15.368164c28.981384 34.696564 39.638245 77.3179 26.641846 112.73883c-7.4993286 20.400452 -21.298706 34.22116 -32.256836 42.769836c6.4261475 1.522583 13.136963 1.9725342 19.832092 1.1679688c1.7995605 -0.19433594 3.5804443 -0.4786682 5.3356323 -0.84213257c27.14624 -5.6217346 48.546875 -30.421509 49.67328 -60.69986c0.1486206 -4.1325073 0.095947266 -10.823334 -1.8480835 -18.624237c-5.3859863 -21.157928 -20.149902 -31.757324 -49.682922 -59.553497c-4.5319824 -4.252014 -10.573608 -9.946594 -17.695007 -16.95691z" fill-rule="evenodd"/><path fill="#ffffff" d="m696.2665 325.44464c-1.4352417 0.2972412 -2.3883667 1.748169 -2.0911255 3.1834106c0.37982178 1.4274597 1.75 2.3972778 3.2659912 2.0833435c1.4442139 -0.29910278 2.3165283 -1.7333069 2.0007324 -3.2582397c-0.29718018 -1.4352417 -1.7314453 -2.3075867 -3.1755981 -2.0085144z" fill-rule="evenodd"/><path fill="#ffffff" d="m693.85504 333.5668c-2.3154297 0.4795227 -5.079773 3.4014893 -6.7631836 7.4756165c-2.1937866 5.134613 -1.9006348 10.166046 0.5596924 11.154236c0.51379395 0.22122192 1.0910034 0.25146484 1.6833496 0.12878418c2.333374 -0.48321533 5.0618286 -3.397766 6.8099365 -7.4759216c2.113037 -5.1178894 1.8365479 -10.0685425 -0.6333618 -11.148346c-0.5029907 -0.21411133 -1.0730591 -0.255188 -1.6564331 -0.1343689z" fill-rule="evenodd"/><path fill="#f29e79" d="m859.8673 190.51144c-1.0438843 0.21617126 -2.3139648 0.5636749 -3.7460938 0.9447174c-6.3008423 1.8867493 -15.489746 6.0516205 -23.09784 14.994904c-7.574524 9.105286 -10.146179 18.938995 -10.926758 26.046036c-0.4389038 4.3613434 -0.27624512 7.593872 -0.17175293 8.914368l2.3208008 2.2787628l1.6766968 1.6613007l26.479065 26.756104l23.79602 23.95169l0.11450195 0.14523315l0.14526367 -0.11456299c4.1119995 0.91293335 9.356323 1.3567505 15.1067505 0.16589355c11.779907 -2.4394836 25.729797 -11.757538 36.6438 -38.09189c-18.57196 -19.345825 -37.143982 -38.69165 -55.715942 -58.03749c-0.53912354 -0.5641022 -1.076416 -1.1192169 -1.6047363 -1.6761932c-0.4413452 -0.4998932 -0.95288086 -0.97587585 -1.3942871 -1.475769c-2.2475586 -2.3784027 -4.4873047 -4.673935 -6.7199707 -6.9803467c-0.6647339 0.05319214 -1.6276245 0.252594 -2.9055176 0.51724243z" fill-rule="evenodd"/><path fill="#e66239" d="m862.70526 187.32347l-2.8509521 3.1806793l-2.3198853 2.5732727l-35.447083 39.4093c-0.43884277 4.3610535 -0.27618408 7.5933533 -0.17163086 8.913757l2.3205566 2.2786255l1.6765747 1.6611938l26.476685 26.754425l23.793945 23.950195l0.11450195 0.14520264l0.14520264 -0.11453247l2.4282837 -2.0044556c31.669006 -40.29744 0.89416504 -83.41142 -0.21777344 -83.931946l-6.921692 -9.950607l-0.57855225 -0.7999115l-1.6745605 -2.4217987l-6.7736206 -9.643402z" fill-rule="evenodd"/><path fill="#f29e79" d="m799.83374 125.07093c-24.927063 5.1621475 -47.176147 27.969032 -47.343872 55.39193c-0.17480469 26.664093 20.636108 43.45395 23.433777 45.634033c22.817993 24.080063 26.311401 32.066772 61.89026 50.65085c0.37982178 -0.0692749 0.75775146 -0.14755249 1.126709 -0.22393799c54.515625 -11.289642 35.39508 -74.298615 22.806458 -104.54242l0 0c0.05029297 0.24299622 -0.078125 0.4385376 -0.1975708 0.6322174c0.520813 -5.551697 0.5985718 -15.282227 -4.66156 -24.911652c-10.389832 -19.445404 -35.310608 -25.763557 -53.619385 -23.220322c-1.1506348 0.1538086 -2.2919922 0.352623 -3.4348145 0.58930206z" fill-rule="evenodd"/><path fill="#21215b" d="m791.67096 121.993805c-0.46801758 0.09692383 -0.932312 0.2118454 -1.3947144 0.33576965c-4.385681 1.0771942 -8.819885 3.506691 -12.77887 5.8283997c0 0 -16.509766 9.61409 -26.771729 23.969833c-2.3244019 3.32547 -4.3554688 6.843628 -5.744568 10.65123l-11.486938 28.248001c0 0 6.1446533 2.838791 11.625916 1.7036743c2.835205 -0.58714294 5.4882812 -2.234787 7.020813 -5.893753l0 0c0.5553589 7.168915 -5.7251587 13.2378845 -9.411865 19.27658c3.178772 -0.15144348 7.6904907 0.6037903 11.092712 -0.100753784c1.6470947 -0.34109497 3.0429688 -1.0337982 3.901245 -2.328537l0 0c0.3591919 3.7740784 1.034668 4.2255554 -0.40667725 7.781143c10.652649 -8.072617 19.944702 -22.715591 22.94635 -35.9151l0 0c-0.7826538 5.512375 4.9400024 10.710083 10.708923 10.782562c1.1033936 0.02494812 2.1878052 -0.08699036 3.2408447 -0.30506897c4.7973022 -0.99346924 9.028931 -4.3102875 12.455994 -7.9767456c4.1914062 -4.4630127 7.638977 -9.616791 12.488159 -13.305542c1.8653564 4.9733887 8.139893 10.206985 13.450806 10.787338c1.4863892 0.15211487 2.9802246 0.06803894 4.4382935 -0.23391724c3.7802124 -0.7828369 7.269287 -3.0166168 9.381714 -6.232483l0 0c-1.1690063 5.686264 2.6391602 11.928101 8.16626 13.5525055c1.782898 0.541275 3.6777344 0.58065796 5.4868164 0.20600891c3.8162231 -0.79029846 7.290039 -3.4151611 8.759949 -7.014206c1.1608887 -2.9155579 1.7211304 -5.875702 1.8242188 -9.003967c0.2692871 -7.583725 -2.24469 -15.689301 -6.270996 -22.984192c-3.7785034 -6.9144287 -8.931885 -13.215622 -14.351196 -17.537498c-9.975647 -7.9213715 -23.26477 -10.857529 -35.541443 -8.315163c-4.491211 0.93009186 -8.8585205 2.594818 -12.87085 5.0214386c-3.1201782 -1.5596695 -6.5389404 -1.7058411 -9.9591675 -0.9975586z" fill-rule="evenodd"/><path fill="#21215b" d="m790.2714 122.35686l0 0c-4.3848877 1.0769196 -8.818237 3.5054398 -12.776611 5.826187c0 0 -16.506958 9.610153 -26.767761 23.959015c3.0379028 4.971573 7.1036987 9.242432 12.563477 10.95433c4.3078613 1.4063263 8.950073 1.6176453 13.341492 0.7082367c2.4836426 -0.51434326 4.892761 -1.388504 7.119385 -2.6001282c3.8723145 4.967636 10.036926 8.043976 16.34021 8.164597c1.5428467 0.018218994 3.0791626 -0.131073 4.58197 -0.44229126c4.6973267 -0.97276306 9.039795 -3.5231628 12.089661 -7.194336c0.6288452 1.04245 1.4435425 2.12146 2.3795166 3.0158691c3.1773071 3.197754 7.6434937 5.3687134 11.998657 4.96402c0.6286621 -0.04576111 1.2498779 -0.12750244 1.8618164 -0.25422668c4.868286 -1.0081787 9.159424 -4.4860992 11.0998535 -9.118942c3.2718506 4.923126 9.35553 8.01622 15.265686 8.640411c1.9909668 0.18811035 4.012329 0.06971741 5.983032 -0.33840942c1.8267212 -0.3782959 3.6121826 -1.0013428 5.288025 -1.8362274c0.26971436 -7.579727 -2.243164 -15.680832 -6.2680664 -22.971588c-1.6165161 1.8920593 -3.8381348 3.3090515 -6.2767944 3.8140717c-0.71087646 0.1472168 -1.4475708 0.21533203 -2.1829834 0.19877625c-5.1449585 -0.19165039 -9.792603 -4.4170685 -10.417847 -9.475494l0 0c-1.3043213 4.6230774 -4.0996704 8.888855 -8.169678 11.486023c-1.3947754 0.83296204 -2.9586182 1.4382629 -4.57843 1.7737122c-3.1225586 0.6466522 -6.43573 0.28205872 -9.1502075 -1.3604279c-3.4362793 -2.0465088 -5.5093384 -6.392334 -4.88855 -10.282822l0 0c-2.0144653 5.408081 -7.1815796 9.414505 -12.8237915 10.582947c-2.9695435 0.614975 -6.0723267 0.45072937 -8.915222 -0.72424316c-8.962097 -3.6696625 -12.873779 -16.077988 -7.683899 -24.188797c0.6993408 -1.0642014 0.96014404 -2.206459 0.98706055 -3.3002625z" fill-rule="evenodd"/><path fill="#f29e79" d="m861.38947 170.71667c0.09893799 -0.020477295 0.20526123 -0.004989624 0.3171997 0.037490845c0.35717773 0.09487915 0.7005005 0.5302887 0.7015381 0.9427948c-0.06121826 0.5192108 -0.12432861 1.029419 -0.10467529 1.5318604c-0.040527344 1.4341583 0.006958008 2.8406982 0.20916748 4.224594c0.085754395 -0.3554535 0.36102295 -0.6563263 0.5366821 -1.0303955l0.3375244 -0.4075775c0.8062134 -0.8610687 1.9345093 -1.7513275 3.0942993 -1.9915009c0.5124512 -0.10612488 1.0311279 -0.09161377 1.5331421 0.113967896c0.72216797 0.2725525 0.9046631 1.1539917 0.25061035 1.6177368c-1.0873413 0.8161316 -2.4065552 0.92048645 -3.364624 1.9537048c-0.20019531 0.21031189 -0.40942383 0.4224701 -0.52093506 0.6988373c-0.5228882 0.6898346 -0.9552002 1.4547119 -1.104065 2.3203735c0.13708496 0.29989624 0.18737793 0.54273987 0.31860352 0.76882935c0.5732422 1.1382141 1.3773804 1.8065033 2.7478638 2.3575134c0.17858887 0.047424316 0.3739624 0.17581177 0.55255127 0.22325134c0.60772705 0.12741089 0.85443115 0.9111481 0.45983887 1.4055634c-0.14508057 0.114471436 -0.20922852 0.21217346 -0.35424805 0.32662964c-0.26843262 0.24319458 -0.55737305 0.38745117 -0.85406494 0.44888306c-1.8161011 0.37609863 -4.0168457 -2.282318 -4.658325 -3.6596375c-0.016784668 -0.080947876 -0.033569336 -0.16189575 -0.033569336 -0.16189575c-1.6872559 -3.6652222 -1.8371582 -7.648834 -0.43304443 -11.372681c0.09576416 -0.21681213 0.22473145 -0.31855774 0.36853027 -0.3483429zm-6.6741943 -10.586716c-0.44952393 0.09309387 -0.89160156 0.22215271 -1.3172607 0.38534546c-2.0847778 0.8444519 -3.59729 2.4146118 -4.5820312 4.541443c-1.552063 3.416809 -1.5324707 8.356018 0.14593506 13.608292c0.5939331 2.0531616 1.5193481 4.122101 2.623352 6.2384796c1.3418579 2.4048004 2.88208 4.5902863 4.5267334 6.5102844c0.45587158 0.5715637 0.9945679 1.1353607 1.4247437 1.6278381c4.4349976 4.437546 9.43634 7.172577 13.773743 7.1091614c0.17858887 0.047439575 0.25952148 0.030685425 0.41235352 -9.765625E-4c0.25952148 0.030685425 0.5022583 -0.019592285 0.7449951 -0.06985474c0.33825684 -0.041915894 0.6585083 -0.080093384 0.97314453 -0.14526367c0.4315796 -0.08935547 0.8447876 -0.22184753 1.2487183 -0.399292c6.8170166 -2.6686554 7.6567993 -13.55452 1.7300415 -24.380447c-1.6251221 -3.0027466 -3.6063232 -5.687851 -5.8202515 -7.9120483l-0.2456665 -0.37123108c-2.3097534 -2.2793884 -4.7803345 -4.1127625 -7.2786255 -5.26503c-0.47161865 -0.24002075 -0.93426514 -0.48188782 -1.3872681 -0.631958c-0.17858887 -0.047424316 -0.27624512 -0.11161804 -0.3649292 -0.17767334c-2.3608398 -0.805542 -4.602844 -1.0822754 -6.607727 -0.6670685z" fill-rule="evenodd"/><path fill="#f29e79" d="m861.36774 170.6959c-0.15222168 0.03152466 -0.27874756 0.14201355 -0.36132812 0.37452698c-1.3966675 3.7169952 -1.2286377 7.774933 0.47052002 11.515778c0.6956177 1.4199829 2.8080444 4.045044 4.6436157 3.664917c0.4208374 -0.0871582 0.8279419 -0.33067322 1.201294 -0.78260803c0.3927002 -0.4934082 0.16333008 -1.1951599 -0.45874023 -1.4034882c-1.9874878 -0.75909424 -2.9284668 -1.6506195 -3.6063843 -3.345871c0.2588501 -1.1399994 0.7929077 -2.1684265 1.6170654 -3.0134125c0.95373535 -1.0310516 2.3482666 -1.1512451 3.4309082 -1.9654846c0.5706787 -0.44596863 0.38842773 -1.3260498 -0.33099365 -1.5985107c-0.5072632 -0.19465637 -1.034729 -0.21653748 -1.5629883 -0.10713196c-1.3341675 0.27627563 -2.6262817 1.3867645 -3.3811646 2.3859863c-0.17480469 0.3733673 -0.4487915 0.6736145 -0.5340576 1.0284271c-0.31744385 -1.9384918 -0.3046875 -3.8610535 -0.106933594 -5.7470093c0.017822266 -0.50006104 -0.58203125 -1.0969849 -1.020813 -1.0061188z" fill-rule="evenodd"/><path fill="#e66239" d="m861.37366 170.72176c-0.15222168 0.03152466 -0.27874756 0.14202881 -0.36138916 0.37454224c-1.3968506 3.717041 -1.2288818 7.7749786 0.4703369 11.515808c0.6956787 1.4199829 2.8082275 4.0450134 4.643982 3.664856c0.4208374 -0.08717346 0.8280029 -0.33070374 1.201355 -0.78263855c0.39282227 -0.49342346 0.16345215 -1.1951599 -0.45874023 -1.4034729c-1.9876099 -0.759079 -2.92865 -1.650589 -3.6066284 -3.3458405c-0.14752197 -0.30659485 -0.23120117 -0.7107086 -0.32977295 -1.186676c-0.21264648 -0.62091064 -0.36328125 -1.3483276 -0.43145752 -2.083435c-0.3173828 -1.9384918 -0.30462646 -3.8610687 -0.10687256 -5.7470245c0.0178833 -0.5000763 -0.58203125 -1.0969849 -1.020813 -1.0061188z" fill-rule="evenodd"/><path fill="#e66239" d="m866.4543 174.05426c-1.333435 0.2761383 -2.6254883 1.3831024 -3.3806152 2.3788452c-0.17492676 0.37199402 -0.4489746 0.67123413 -0.5344238 1.0246735c-0.7260742 1.3161774 -0.7352905 2.8942566 -0.50097656 4.4312286c0.07409668 0.35772705 0.44781494 0.49482727 0.743103 0.43367004c0.23272705 -0.048187256 0.43048096 -0.2197113 0.4088745 -0.504364c-0.0028076172 -0.41911316 0.011108398 -0.7577362 0.10736084 -1.1040955c0.25946045 -1.1356049 0.7939453 -2.1602783 1.6181641 -3.002472c0.9538574 -1.0275879 2.3474731 -1.1483154 3.4299927 -1.9600677c0.57055664 -0.44458008 0.38909912 -1.3209991 -0.32965088 -1.5918427c-0.50671387 -0.19351196 -1.0338135 -0.21492004 -1.5618286 -0.10557556z" fill-rule="evenodd"/><path fill="#21215b" d="m786.963 215.71751c-0.5211792 0.107940674 -1.0256348 0.29664612 -1.4935303 0.5713806c-4.458069 2.6828156 -2.4870605 11.79335 -1.5720215 12.184174c0.030639648 0.012359619 0.059448242 0.01574707 0.08642578 0.0101623535c0.64697266 -0.13397217 0.79937744 -4.6019897 4.1658325 -6.899643c0.8171387 -0.5342407 1.678833 -0.8530884 2.5235596 -1.0280151c2.7496948 -0.56944275 5.3778076 0.35575867 6.105713 0.20501709c0.11682129 -0.02418518 0.19024658 -0.076828 0.1986084 -0.17216492c0.09423828 -0.9929199 -5.61145 -5.7827454 -10.014587 -4.8709106z" fill-rule="evenodd"/><path fill="#21215b" d="m821.8462 187.70224c-0.5211792 0.107940674 -1.0256348 0.29664612 -1.5006714 0.58221436c-4.4599 2.6738434 -2.4888916 11.784378 -1.5720215 12.184174c0.030639648 0.012359619 0.059509277 0.01574707 0.08642578 0.010177612c0.64697266 -0.13398743 0.8065796 -4.6128387 4.1729736 -6.910492c0.8171387 -0.5342407 1.6698608 -0.8512268 2.5235596 -1.0280151c2.7407227 -0.5675812 5.3796997 0.36473083 6.107544 0.21400452c0.11682129 -0.02420044 0.18127441 -0.07498169 0.18963623 -0.1703186c0.09429932 -0.9929199 -5.6132812 -5.7917175 -10.007446 -4.8817444z" fill-rule="evenodd"/><path fill="#e66239" d="m795.72064 206.03815l-1.187439 1.5032196c1.0155029 0.8781128 1.6279907 2.252533 2.234558 3.5531006c2.5338745 6.1746216 4.236023 12.765442 5.0980835 19.370728c0.27172852 2.5334015 0.9571533 7.8335114 4.9577026 9.01297c0.86712646 0.25202942 1.7019043 0.25743103 2.510315 0.090026855c2.2006226 -0.45573425 4.1815186 -2.1983337 5.749634 -3.8085175l5.3397217 -5.290558l-1.3735962 -1.3856964l-5.322937 5.3715363c-1.3624878 1.4268646 -3.0483398 2.9207 -4.754944 3.2741241c-0.52996826 0.10974121 -1.0714111 0.118652344 -1.5996094 -0.03466797c-2.486206 -0.7424469 -3.2806396 -4.1715546 -3.6314087 -7.448593c-0.91241455 -6.8482056 -2.6312866 -13.520004 -5.279541 -19.839813c-0.6628418 -1.6173401 -1.4154053 -3.2160797 -2.7405396 -4.367859z" fill-rule="evenodd"/><path fill="#21215b" d="m775.7701 199.38284c-4.814331 0.9970093 -8.722717 5.419113 -6.0117188 18.690918c0 0 0.74432373 -14.1371 12.250305 -16.519882c1.5988159 -0.33110046 3.3933716 -0.44067383 5.418396 -0.2516632c0 0 -6.3754883 -3.0131073 -11.656982 -1.9193726z" fill-rule="evenodd"/><path fill="#21215b" d="m810.85736 169.9946c-4.019226 0.8323364 -7.626465 4.9216614 -8.485779 16.212555c0 0 3.5910034 -10.461624 12.510559 -12.308777c2.5715332 -0.532547 5.581726 -0.35076904 9.067627 0.9963684c0 0 -7.0231934 -6.157028 -13.092407 -4.9001465z" fill-rule="evenodd"/><path fill="#e66239" d="m837.38873 227.24428c-0.16137695 4.8809204 -2.5075684 9.717346 -6.295166 12.845779c-2.227234 1.9239197 -4.975464 3.23378 -7.8707886 3.833374c-1.8972778 0.39289856 -3.848816 0.47825623 -5.7539673 0.24458313l-0.32086182 2.0729675c2.1541138 0.30400085 4.3881226 0.17889404 6.474182 -0.2531128c3.210083 -0.6647644 6.326355 -2.1445923 8.896179 -4.2707367c4.127075 -3.5269012 6.7683105 -8.93074 6.990967 -14.330673l-2.1205444 -0.1421814z" fill-rule="evenodd"/><path fill="#e66239" d="m846.14325 255.92477c-0.4576416 0.0947876 -0.9112549 0.2541809 -1.3518677 0.4764099c-1.361084 0.7028198 -2.3007202 1.8141785 -2.5913696 3.2120972l0.9610596 0.21255493c0.28582764 -1.0601196 1.0166016 -1.9598389 2.07135 -2.5150452c0.3456421 -0.18383789 0.7203369 -0.3175354 1.0882568 -0.3937378c0.75372314 -0.15609741 1.5072021 -0.08761597 2.1257935 0.23330688c1.003479 0.37216187 1.7753296 1.2974854 2.1690063 2.3852844c0.3297119 1.1852417 0.2388916 2.3733826 -0.3303833 3.2396545c-0.46557617 0.7792969 -1.2545776 1.3075256 -2.0532227 1.4729004c-0.26916504 0.055755615 -0.54766846 0.06665039 -0.8066406 0.036102295c-0.5180054 -0.06112671 -1.0112915 -0.45477295 -1.3538818 -0.88897705c-0.25994873 -0.44195557 -0.36029053 -0.92633057 -0.28045654 -1.3544617c0.07788086 -0.43710327 0.50335693 -0.777771 1.0519409 -0.97558594c0.47558594 -0.098480225 0.91278076 -0.020629883 1.1411743 0.26882935l0.77905273 -0.6664734c-0.48864746 -0.50686646 -1.2055664 -0.76065063 -1.9862671 -0.5989685c-0.071777344 0.014862061 -0.14355469 0.029724121 -0.21350098 0.05355835c-0.87939453 0.18209839 -1.5699463 0.9144592 -1.8161621 1.7138367c-0.11035156 0.68704224 -0.040649414 1.4303284 0.43096924 2.0810242c0.4883423 0.7314453 1.3381348 1.219635 2.1228638 1.3938904c0.4204712 -0.0028686523 0.75128174 0.012817383 1.1550903 -0.07080078c1.0408936 -0.21557617 2.0621948 -0.93222046 2.6954956 -1.895935c0.76135254 -1.1586304 0.86798096 -2.6774597 0.40734863 -4.0881653c-0.37982178 -1.4274597 -1.4421997 -2.535797 -2.6502686 -3.127533c-0.85406494 -0.32829285 -1.814209 -0.40074158 -2.7653809 -0.20376587z" fill-rule="evenodd"/><path fill="#21215b" d="m819.3107 137.8403c-0.3484497 0.6398163 -0.508667 1.4145966 -0.6016846 2.0838928c0.24676514 -0.70114136 0.4232788 -1.3969116 0.6016846 -2.0838928z" fill-rule="evenodd"/><path fill="#f29e79" d="m924.7996 348.466l-45.104492 110.15997l-58.317017 -12.705536l-14.598633 26.557129l95.82251 45.81064l79.59772 -143.77524l-57.400085 -26.046967z" fill-rule="evenodd"/><path fill="#ffffff" d="m946.0709 267.44354c-7.6862183 1.5917358 -14.835266 6.094757 -19.612915 13.119812c-1.3583984 1.9615173 -2.6118774 3.9764404 -3.8743896 5.9931946c-20.577942 33.660614 -22.901855 67.71811 -22.624756 86.415344c8.581604 6.2672424 19.797424 13.152924 33.531128 19.18863c18.879395 8.311737 36.13153 11.938599 49.038757 13.621063c2.7529907 -14.218384 8.85907 -49.819427 6.4627075 -84.82367c0 0 -2.2885132 -34.529083 -17.57129 -47.274628c-0.016784668 -0.08099365 -0.11456299 -0.14523315 -0.31011963 -0.27368164c-7.3444214 -5.91333 -16.524841 -7.7292786 -25.039124 -5.9660645z" fill-rule="evenodd"/><path fill="#0060c1" d="m913.3708 350.65863l-1.5082397 1.2312012l6.012268 7.2027893l-9.707214 31.113678l1.8660889 0.5418091l10.008484 -32.10434l-6.6713867 -7.985138z" fill-rule="evenodd"/><path fill="#f29e79" d="m763.71765 412.98038c-1.2331543 0.2553711 -2.140625 1.222229 -2.3117065 3.388031c-0.65319824 8.178131 17.972107 20.059479 17.972107 20.059479l1.7070312 5.8405457c0 0 -1.4575195 0.39569092 -3.8338623 0.88778687c-4.0145264 0.8313904 -10.646545 1.9420166 -17.273804 1.8973389c-15.364258 -0.16860962 -26.703247 -6.7829895 -32.091248 -10.181335c-1.1914062 -1.0390015 -2.7695312 -1.4066772 -4.164673 -1.1177368c-0.5310669 0.109954834 -1.0255127 0.30621338 -1.470581 0.6048584c-1.9056396 1.3143616 -1.9810791 3.7606506 -1.9475098 3.922638c0.9094238 1.9889526 1.8920898 3.878296 2.8825073 5.8504944c-0.06298828 0.013031006 -0.40008545 0.017150879 -0.8411865 0.10848999c-0.65704346 0.13607788 -1.5543823 0.4720459 -2.1253662 1.341095c-0.8279419 1.2601013 -0.6414795 2.976471 0.4519043 4.176544c1.8044434 1.0528259 3.5350342 2.1115417 5.3394775 3.1643677c-0.35473633 0.32684326 -0.6855469 0.72384644 -0.9899292 1.2936707c-1.0749512 2.0620422 0.22558594 4.3078613 0.3550415 4.525055c4.460266 3.7687683 8.929565 7.535675 13.371155 11.214478c-0.41033936 -0.16842651 -0.857605 -0.19778442 -1.2716675 -0.11206055c-0.68408203 0.14169312 -1.3010864 0.6072998 -1.5812988 1.2941284c-0.5206909 1.1119995 -0.07727051 2.4372864 1.0368042 2.9667664l19.808472 13.560242c0 0 42.76288 -1.1132202 54.40143 -3.523468c1.0531006 -0.21807861 1.8501587 -0.44885254 2.3442993 -0.69195557c2.2908936 -1.1313477 2.8804932 -1.9104004 3.8706665 -2.115448c1.5391846 -0.3187561 4.048523 0.73825073 15.357605 3.9896545l16.103577 -31.799286l-35.667175 -9.271881l-16.821228 -14.094391l-23.22705 -13.115051c0 0 -5.963379 -4.771393 -9.383789 -4.0630493z" fill-rule="evenodd"/><path fill="#e66239" d="m723.01514 443.64062c-0.089904785 0.018615723 -0.17419434 0.06417847 -0.22406006 0.14013672c-0.20019531 0.21020508 -0.21411133 0.5505371 0.067993164 0.73583984c4.2512207 3.5534668 8.991699 6.255707 14.211853 8.014954c4.7731323 1.6831055 9.876892 2.4728394 14.982666 2.5028381l0.16174316 -0.0335083c0.24273682 -0.05026245 0.3619995 -0.24368286 0.39263916 -0.5031433c-0.0670166 -0.32357788 -0.27716064 -0.5237732 -0.51086426 -0.4753723c-5.0338745 -0.044891357 -9.966797 -0.8699951 -14.732239 -2.470337c-5.034424 -1.7227173 -9.76532 -4.333191 -13.909851 -7.824402c-0.119384766 -0.07839966 -0.2960205 -0.11679077 -0.43988037 -0.087005615z" fill-rule="evenodd"/><path fill="#e66239" d="m725.89624 452.4278c-0.044921875 0.009307861 -0.08807373 0.02758789 -0.13116455 0.045898438c-0.22601318 0.13104248 -0.31195068 0.48587036 -0.18084717 0.71151733c0.105407715 0.14666748 2.1868896 3.7225342 7.140808 7.0405884c4.5632324 3.0618896 12.382629 6.451233 24.024475 5.2948303c0.23376465 -0.048431396 0.44311523 -0.26028442 0.47381592 -0.5194092c-0.06506348 -0.31420898 -0.35803223 -0.50631714 -0.6008301 -0.45602417c-21.559631 2.124298 -30.10962 -11.720825 -30.143066 -11.882416c-0.112854004 -0.18258667 -0.3673706 -0.2796631 -0.5831909 -0.23498535z" fill-rule="evenodd"/><path fill="#e66239" d="m738.6453 469.5381c-0.12579346 0.026031494 -0.2602539 0.100616455 -0.36035156 0.20544434c-0.13012695 0.18582153 -0.06335449 0.50842285 0.14849854 0.7168884c0.46209717 0.24072266 10.811951 7.0128174 18.552124 5.662201c0.24255371 -0.050231934 0.43499756 -0.34240723 0.3682251 -0.66500854c-0.04827881 -0.23297119 -0.34094238 -0.42468262 -0.5834961 -0.37445068c-7.319214 1.3475342 -17.669067 -5.4245605 -17.766602 -5.4884644c-0.097595215 -0.06390381 -0.22363281 -0.08453369 -0.35839844 -0.056610107z" fill-rule="evenodd"/><path fill="#ffffff" d="m876.2028 296.1111l0.10040283 0.12545776l0.12823486 -0.09967041c-0.0713501 0.014770508 -0.15722656 -0.04055786 -0.2286377 -0.025787354z" fill-rule="evenodd"/><path fill="#ffffff" d="m852.92596 518.211l147.09924 0l0 30.00946l-147.09924 0z" fill-rule="evenodd"/><path fill="#41d5ff" d="m652.1277 162.93227l-1.6657104 -1.625l11.287476 -11.78598l1.6657104 1.625l-11.287476 11.78598z" fill-rule="evenodd"/><path fill="#41d5ff" d="m639.7269 158.06221l-0.37670898 -16.222336l2.3361206 -0.0152282715l0.37677002 16.22232l-2.3361816 0.01524353z" fill-rule="evenodd"/><path fill="#41d5ff" d="m629.9505 163.44493l-11.824646 -11.161957l1.7000732 -1.762558l11.74884 11.2582245l-1.6242676 1.6662903z" fill-rule="evenodd"/><path fill="#41d5ff" d="m610.5216 174.56656l-0.1899414 -2.3175507l16.3266 -0.46809387l0.11401367 2.4139252l-16.250671 0.37171936z" fill-rule="evenodd"/><path fill="#41d5ff" d="m620.7725 195.83301l-1.6662598 -1.6242676l11.161926 -11.8246155l1.7625732 1.7000427l-11.25824 11.74884z" fill-rule="evenodd"/><path fill="#41d5ff" d="m640.77454 203.48369l-0.37677002 -16.22232l2.3361816 -0.0152282715l0.37670898 16.22232l-2.3361206 0.0152282715z" fill-rule="evenodd"/><path fill="#41d5ff" d="m662.72736 194.84215l-11.752197 -11.253891l1.6108398 -1.6493073l11.752258 11.253906l-1.6109009 1.649292z" fill-rule="evenodd"/><path fill="#41d5ff" d="m655.7986 173.54344l-0.017578125 -2.337967l16.24231 -0.3610077l0.11401367 2.4139252l-16.338745 0.28504944z" fill-rule="evenodd"/><path fill="#000000" fill-opacity="0.0" d="m599.74274 110.52606l0 0c-2.5957642 3.296257 -2.0212402 8.077911 1.2832031 10.68013l0 0c1.586853 1.2496262 3.6038818 1.8192673 5.607422 1.5835953c2.003479 -0.235672 3.8293457 -1.2573471 5.0758667 -2.8402634l0 0c2.5957642 -3.2962494 2.0212402 -8.077911 -1.2832031 -10.680122l0 0c-3.3044434 -2.6022186 -8.087524 -2.039589 -10.683289 1.2566605z" fill-rule="evenodd"/><path stroke="#41d5ff" stroke-width="2.0" stroke-linejoin="round" stroke-linecap="butt" d="m599.74274 110.52606l0 0c-2.5957642 3.296257 -2.0212402 8.077911 1.2832031 10.68013l0 0c1.586853 1.2496262 3.6038818 1.8192673 5.607422 1.5835953c2.003479 -0.235672 3.8293457 -1.2573471 5.0758667 -2.8402634l0 0c2.5957642 -3.2962494 2.0212402 -8.077911 -1.2832031 -10.680122l0 0c-3.3044434 -2.6022186 -8.087524 -2.039589 -10.683289 1.2566605z" fill-rule="evenodd"/><path fill="#41d5ff" d="m693.8835 94.71496l0 0c0 -2.5674667 -2.0813599 -4.648819 -4.6488647 -4.648819l0 0c-1.2329102 0 -2.4153442 0.48978424 -3.2871704 1.3616104c-0.8718262 0.87181854 -1.3616333 2.054268 -1.3616333 3.2872086l0 0c0 2.5674744 2.0813599 4.648819 4.6488037 4.648819l0 0c2.567505 0 4.6488647 -2.0813446 4.6488647 -4.648819z" fill-rule="evenodd"/><path fill="#41d5ff" d="m324.6748 156.99713l0 0c0.83251953 -2.4287567 -0.46151733 -5.072525 -2.8902588 -5.905014l0 0c-1.1663513 -0.39978027 -2.4437256 -0.31987 -3.551117 0.22216797c-1.1074219 0.54203796 -1.9541321 1.5017853 -2.3539124 2.668106l0 0c-0.832489 2.4287567 0.46151733 5.072525 2.8902893 5.9050293l0 0c2.4287415 0.832489 5.07251 -0.4615326 5.904999 -2.8902893z" fill-rule="evenodd"/><path fill="#41d5ff" d="m554.4945 462.3118l0 0c0 -2.5674438 -2.0813599 -4.6488037 -4.6488647 -4.6488037l0 0c-1.2329102 0 -2.4153442 0.4897766 -3.2871704 1.3616028c-0.8718262 0.8718262 -1.3616333 2.0542603 -1.3616333 3.287201l0 0c0 2.5674744 2.0813599 4.648834 4.6488037 4.648834l0 0c2.567505 0 4.6488647 -2.0813599 4.6488647 -4.648834z" fill-rule="evenodd"/><path fill="#000000" fill-opacity="0.0" d="m866.6457 64.27087l0 0c0 -4.2060623 -3.409729 -7.6157494 -7.6157837 -7.6157494l0 0c-2.0198364 0 -3.9569092 0.802372 -5.385132 2.2306023c-1.4282227 1.4282303 -2.2305908 3.365326 -2.2305908 5.385147l0 0c0 4.2060623 3.409668 7.6157455 7.6157227 7.6157455l0 0c4.2060547 0 7.6157837 -3.4096832 7.6157837 -7.6157455z" fill-rule="evenodd"/><path stroke="#41d5ff" stroke-width="2.0" stroke-linejoin="round" stroke-linecap="butt" d="m866.6457 64.27087l0 0c0 -4.2060623 -3.409729 -7.6157494 -7.6157837 -7.6157494l0 0c-2.0198364 0 -3.9569092 0.802372 -5.385132 2.2306023c-1.4282227 1.4282303 -2.2305908 3.365326 -2.2305908 5.385147l0 0c0 4.2060623 3.409668 7.6157455 7.6157227 7.6157455l0 0c4.2060547 0 7.6157837 -3.4096832 7.6157837 -7.6157455z" fill-rule="evenodd"/><path fill="#000000" fill-opacity="0.0" d="m287.06046 108.98039l0 0c3.745575 -7.2043915 0.9416504 -16.0811 -6.2627563 -19.826675l0 0c-3.4596558 -1.7986908 -7.492157 -2.1493607 -11.210388 -0.9748688c-3.7182007 1.1744919 -6.817566 3.7779388 -8.616272 7.23761l0 0c-3.745575 7.2043915 -0.9416504 16.0811 6.2627563 19.826675l0 0c7.204376 3.745575 16.081085 0.9416504 19.82666 -6.262741z" fill-rule="evenodd"/><path stroke="#41d5ff" stroke-width="2.0" stroke-linejoin="round" stroke-linecap="butt" d="m287.06046 108.98039l0 0c3.745575 -7.2043915 0.9416504 -16.0811 -6.2627563 -19.826675l0 0c-3.4596558 -1.7986908 -7.492157 -2.1493607 -11.210388 -0.9748688c-3.7182007 1.1744919 -6.817566 3.7779388 -8.616272 7.23761l0 0c-3.745575 7.2043915 -0.9416504 16.0811 6.2627563 19.826675l0 0c7.204376 3.745575 16.081085 0.9416504 19.82666 -6.262741z" fill-rule="evenodd"/><path fill="#41d5ff" d="m573.46716 431.44226l1.5501709 0.1652832l-1.0577393 10.89035l-1.5501709 -0.1652832l1.0577393 -10.89035z" fill-rule="evenodd"/><path fill="#41d5ff" d="m582.0307 428.9008l6.96167 8.421356l-1.2306519 0.98049927l-6.961731 -8.421356l1.2307129 -0.98049927z" fill-rule="evenodd"/><path fill="#41d5ff" d="m585.0095 421.98425l10.908569 0.9756775l-0.16540527 1.6322021l-10.908569 -1.0577393l0.16540527 -1.5501404z" fill-rule="evenodd"/><path fill="#41d5ff" d="m590.6228 408.03778l1.0622559 1.1480408l-8.415283 7.0535583l-1.0621948 -1.2307129l8.415222 -6.970886z" fill-rule="evenodd"/><path fill="#41d5ff" d="m576.3396 401.04565l1.5501709 0.16543579l-0.975708 10.9086l-1.6322021 -0.16543579l1.0577393 -10.9086z" fill-rule="evenodd"/><path fill="#41d5ff" d="m562.5753 405.31653l6.96167 8.421356l-1.2306519 0.98049927l-6.961731 -8.421356l1.2307129 -0.98049927z" fill-rule="evenodd"/><path fill="#41d5ff" d="m554.5843 419.04532l10.90863 1.0540466l-0.16540527 1.5356445l-10.90863 -1.0540466l0.16540527 -1.5356445z" fill-rule="evenodd"/><path fill="#41d5ff" d="m567.1118 427.43594l0.97979736 1.2307129l-8.415222 6.9617004l-1.0621948 -1.2307129l8.49762 -6.9617004z" fill-rule="evenodd"/></g></svg>