<svg version="1.1" viewBox="0.0 0.0 960.0 540.0" fill="none" stroke="none" stroke-linecap="square" stroke-miterlimit="10" xmlns:xlink="http://www.w3.org/1999/xlink" xmlns="http://www.w3.org/2000/svg"><clipPath id="p3.0"><path d="m0 0l960.0 0l0 540.0l-960.0 0l0 -540.0z" clip-rule="nonzero"/></clipPath><g clip-path="url(#p3.0)"><path fill="#0060c1" d="m0 0l960.0 0l0 540.0l-960.0 0z" fill-rule="evenodd"/><path fill="#184eab" d="m-36.283466 -44.749607l0 314.44797c4.2104454 -1.1705933 8.263653 -2.6469116 12.31686 -4.3591003c25.01807 -10.832184 45.35399 -32.112198 54.936676 -57.67267c7.7919407 -20.808289 9.276953 -44.96231 24.240625 -61.3329c16.833035 -18.388512 44.340687 -20.493797 68.6512 -25.639091c47.930923 -10.203217 92.03575 -37.563232 122.5833 -75.90394c20.729004 -26.02346 35.142365 -56.965084 41.999603 -89.54027z" fill-rule="evenodd"/><path fill="#184eab" fill-opacity="0.49803922" d="m0.23690249 429.42993l0 112.47876l430.73248 0c-8.3984375 -1.3570557 -16.807037 -2.9874268 -25.12445 -4.8811646c-0.90164185 -0.18231201 -1.7120972 -0.364563 -2.6137695 -0.53674316c-25.945038 -5.873535 -51.606445 -13.65094 -77.09561 -22.228394c-0.90164185 -0.364563 -1.8032837 -0.62786865 -2.806244 -0.99243164c-57.92807 -19.696686 -115.31923 -43.72766 -174.33131 -59.991333c-29.55162 -8.04071 -59.832672 -14.177582 -90.46831 -18.339722c-0.8205986 -0.09112549 -1.6310616 -0.26327515 -2.3503532 -0.35443115c-10.850117 -1.4481201 -21.781284 -2.6228333 -32.72258 -3.5241394c-7.6791687 -0.63797 -15.449515 -1.1747131 -23.219862 -1.6304016z" fill-rule="evenodd"/><path fill="#184eab" d="m940.9126 368.46616c-36.10559 0 -71.040344 17.181366 -83.423645 51.24881c-1.6349487 -0.042175293 -3.2593384 -0.06326294 -4.883728 -0.06326294c-44.01654 0 -87.92761 15.884064 -121.58612 44.19275c-24.745483 20.799072 -43.84778 47.989746 -55.239563 78.10202l284.18268 0l0 -171.90878c-2.637024 -0.4640808 -5.3688965 -0.8437805 -8.00592 -1.0336304c-3.6706543 -0.35861206 -7.3624268 -0.53790283 -11.043701 -0.53790283z" fill-rule="evenodd"/><path fill="#184eab" fill-opacity="0.49803922" d="m1092.2585 215.25047l45.30017 -202.99422l-777.11804 -173.42169c14.605804 5.830414 29.119751 12.158356 43.36316 18.924774c1.5533142 0.6919861 2.9421082 1.3472748 4.4995117 2.020996c44.44394 21.046227 87.609344 45.414177 130.14182 71.15661c1.4799194 1.0209656 3.0006104 1.859169 4.663269 2.9209213c96.579895 58.87032 190.44537 125.346695 290.3636 178.4578c50.078064 26.409431 102.23889 49.676598 155.83472 69.52267c1.4437866 0.49487305 2.83667 1.1318817 4.0977173 1.585968c18.99231 6.9819794 38.240967 13.503128 57.618042 19.534897c13.597656 4.2431946 27.400513 8.340347 41.236084 12.291275z" fill-rule="evenodd"/><path fill="#184eab" fill-opacity="0.49803922" d="m761.5108 -2.2299213c-0.98547363 7.526462 -1.5233765 15.143226 -1.5233765 22.763916c0 23.568777 4.8411865 47.047256 15.147888 68.554794c26.883728 56.100998 80.65912 90.87114 132.63623 124.56549c17.2995 11.201355 34.86212 22.493011 51.62372 34.77014l0 -3.2233887c-16.310059 -11.829544 -33.429016 -22.854218 -50.186707 -33.698288c-54.13263 -35.03711 -105.21454 -68.01691 -131.74493 -123.48972c-13.439941 -28.13884 -17.476196 -59.595287 -13.439941 -90.24294z" fill-rule="evenodd"/><path fill="#184eab" fill-opacity="0.49803922" d="m675.81354 -2.2299213c12.7247925 20.614012 23.565613 41.404716 32.61267 62.376038c37.89569 88.102325 42.19751 182.74223 11.735718 259.7287c-9.765381 24.913513 -23.381104 48.664764 -36.553345 71.60718c-14.063232 24.469818 -28.57782 49.74063 -38.523743 76.53885c-8.419067 22.40448 -13.348816 45.888763 -14.958069 69.72641l2.5080566 0c1.6995239 -23.480347 6.5390015 -46.783997 14.781494 -68.83118c9.941956 -26.617584 24.366272 -51.802032 38.34314 -76.17761c13.258606 -23.032715 26.878296 -46.783966 36.82025 -71.968414c30.642334 -77.61076 26.340576 -172.96922 -11.825989 -261.6095c-8.866516 -20.700394 -19.5307 -41.13379 -31.980713 -61.390488z" fill-rule="evenodd"/><path fill="#184eab" fill-opacity="0.49803922" d="m859.5289 315.67007c-15.50116 0 -29.848022 5.759918 -38.86682 16.042969c-8.873535 10.035706 -12.187378 23.38916 -15.414795 36.295013c-3.137146 12.187317 -6.274292 24.826202 -14.068054 34.323975c-8.068665 9.768707 -19.537476 15.057495 -31.638428 20.61325c-6.721924 3.046814 -13.530212 6.18396 -19.804443 10.035706c-18.46167 11.830017 -30.919922 31.728668 -35.042603 56.103333c-0.98547363 5.7363586 -1.4331055 11.649414 -1.4331055 17.476105c0 10.663879 1.5234375 21.241455 4.6605835 31.186829l2.6895142 0c-4.8411865 -15.324463 -6.093689 -31.99173 -3.408081 -48.305634c3.945984 -23.569763 16.04303 -42.836273 33.966797 -54.30902c6.003357 -3.7614136 12.815552 -6.8985596 19.356812 -9.855072c11.920349 -5.469391 24.19806 -11.0251465 32.53363 -21.331757c8.2453 -9.949341 11.472778 -22.851257 14.606018 -35.30951c3.227417 -12.634918 6.454895 -25.631073 14.967163 -35.30948c8.512329 -9.631287 22.187744 -15.096741 37.03717 -15.096741c2.972229 0 5.9954834 0.21987915 9.030579 0.66748047c14.248657 2.0613098 28.854675 8.692871 45.97351 20.880219c16.757568 11.920349 31.815063 26.259308 44.720947 42.211975l0 -4.2129517c-12.72522 -15.234161 -27.335144 -28.677917 -43.28784 -40.060364c-17.385864 -12.36792 -32.353027 -19.176178 -47.049316 -21.32782c-3.1999512 -0.48294067 -6.3881836 -0.71850586 -9.529236 -0.71850586z" fill-rule="evenodd"/><path fill="#184eab" fill-opacity="0.49803922" d="m162.84874 -2.2299213c-1.7904358 8.964312 -3.3138885 18.282013 -4.6606445 27.874573c-3.0468903 23.209833 -4.570343 46.5139 -4.570343 69.90435c0 63.456963 11.292343 126.909996 33.339127 186.60138c19.537796 52.96524 43.46924 86.753204 75.37128 106.38202c15.831268 9.72998 35.475098 15.121124 54.836212 15.121124c25.584442 0 50.685974 -9.404083 65.88507 -30.627075c9.230988 -12.99295 13.711029 -28.679504 18.014374 -43.82422c3.9421082 -13.89212 8.064819 -28.322205 15.952972 -40.510193c15.41507 -23.932343 41.31366 -35.40178 68.73959 -47.6801c14.068329 -6.184311 28.497833 -12.639557 41.31363 -20.885315c31.277771 -19.98613 53.95276 -53.055527 64.07898 -93.11811c9.678589 -38.80609 6.721985 -79.76392 -8.331848 -115.43662c-2.0613403 -4.8375087 -4.2130127 -9.411939 -6.545288 -13.801821l-2.866272 0c2.5089722 4.7511244 4.8412476 9.678944 7.0792847 14.787384c9.230957 21.78057 13.534302 45.17102 13.534302 68.29447c0 55.297585 -25.003357 109.34261 -68.29199 137.12686c-12.635132 8.155441 -27.064697 14.516464 -40.95633 20.700775c-26.617096 11.830688 -54.04303 24.109024 -69.90573 48.665634c-8.064819 12.458954 -12.187561 27.069641 -16.21997 41.13846c-4.3033447 14.968018 -8.693054 30.383636 -17.747375 43.019287c-14.649414 20.504425 -38.918518 29.598328 -63.701996 29.598328c-18.88208 0 -38.06259 -5.2772827 -53.520844 -14.807007c-31.368057 -19.271515 -55.02858 -52.70215 -74.38577 -105.04306c-29.934921 -81.19711 -39.88443 -169.47772 -28.501785 -255.24925c1.2564545 -9.769255 2.8702087 -19.181194 4.6606445 -28.23189z" fill-rule="evenodd"/><path fill="#184eab" fill-opacity="0.49803922" d="m535.4497 346.17087c-39.43167 0 -83.12683 17.042358 -102.90939 33.503662c-39.34137 32.62036 -62.547333 87.013824 -62.547333 144.811c0 4.3931274 0.17666626 8.872559 0.4475708 13.261719l2.598938 0c-3.8552246 -61.919403 19.354645 -121.42044 61.110413 -156.09799c19.421387 -16.170807 62.39029 -32.922638 101.08386 -32.922638c9.339722 0 18.432068 0.9736328 26.880615 3.1721191c19.802185 5.107605 33.06775 16.217926 39.608337 32.883392c2.1513672 5.7357483 3.0464478 12.189941 3.0464478 19.268372c0 23.476929 -10.215149 52.689575 -17.654724 73.65787c-1.1659546 3.2270813 -2.237732 6.27359 -3.1367798 9.053131c-6.0026855 17.560577 -13.081055 34.58725 -21.32544 50.98575l2.8659058 0c7.977417 -16.127625 14.965515 -32.973694 20.881836 -50.18094c0.89508057 -2.779541 1.9707642 -5.82605 3.1367798 -9.049225c9.763672 -27.512756 24.371948 -69.178406 14.513977 -94.630035c-6.8114014 -17.564514 -20.697266 -29.122375 -41.217896 -34.49695c-8.617371 -2.2299194 -17.874634 -3.2192383 -27.383118 -3.2192383z" fill-rule="evenodd"/><path fill="#184eab" fill-opacity="0.49803922" d="m38.74204 -2.2299213c-9.677559 20.614012 -13.890144 43.737045 -13.890144 67.127075c0 30.740402 7.2591515 61.92842 18.821182 88.63632c17.023079 39.166626 42.29466 74.47745 66.84778 108.62604c13.799843 19.357544 28.227844 39.433624 40.8656 59.867004c30.198685 48.931793 61.111908 121.25751 36.919968 188.74582c-3.4077454 9.58844 -7.706711 18.552612 -12.814407 26.974915l2.9562683 0c4.8368073 -8.155273 8.959091 -16.84851 12.27655 -26.169983c24.553131 -68.37961 -6.721283 -141.51422 -37.190872 -190.80722c-12.724121 -20.614014 -27.061829 -40.686157 -40.951965 -60.047638c-24.46283 -34.054337 -49.644108 -69.27878 -66.58081 -108.264786c-20.25024 -46.69368 -27.061827 -107.63655 -4.4795494 -154.68755z" fill-rule="evenodd"/><path fill="#184eab" fill-opacity="0.49803922" d="m-0.6008005 289.66693l0 3.4939575c9.939199 9.049042 19.077927 18.9068 26.957088 29.84021c26.69026 36.918457 38.065605 94.89502 8.063581 134.14151c-9.58605 12.546936 -22.570183 21.866821 -35.020668 28.945099l0 2.8658447c13.074383 -7.1685486 26.866837 -16.936005 36.99046 -30.28772c30.810337 -40.14157 19.254501 -99.46472 -7.9733353 -137.18796c-8.416731 -11.73822 -18.269606 -22.22409 -29.017124 -31.810944z" fill-rule="evenodd"/><path fill="#184eab" fill-opacity="0.49803922" d="m232.77313 -2.2299213c-0.71850586 6.5406547 -0.8951874 13.085236 -0.8951874 19.264702l0 1.2563076c0.09030151 33.602318 2.7758942 67.475525 7.974304 100.63422c3.6750183 23.65786 11.472641 56.545647 37.280197 69.26969c7.0280457 3.4627075 14.330963 4.9388733 21.590698 4.9388733c19.042542 0 37.763123 -10.156479 50.284058 -21.247314c12.010559 -10.757141 21.779175 -23.928757 31.190521 -36.6528c5.645996 -7.6163635 11.468689 -15.41333 17.652618 -22.672432c7.6170044 -8.872681 16.133148 -17.113274 24.378387 -25.18113c12.81543 -12.366783 25.98816 -25.18113 35.937378 -40.23327c8.69281 -12.994938 15.771942 -31.545116 15.862244 -49.37684l-2.5089111 0c-0.09030151 8.511488 -1.7943115 17.293869 -4.574127 25.448093c-2.7759094 8.33482 -6.631531 16.131784 -10.840515 22.495768c-9.858917 14.875477 -22.945282 27.599522 -35.58008 39.87601c-8.335541 8.063927 -16.93805 16.39875 -24.555084 25.267494c-6.2742004 7.3494034 -12.10083 15.236664 -17.746857 22.853035c-9.40741 12.633743 -19.085724 25.718979 -30.91565 36.20131c-12.933228 11.518768 -31.182648 20.49353 -48.870605 20.49353c-6.9456177 0 -13.808777 -1.3819427 -20.228271 -4.542343c-24.64537 -12.0959015 -32.26239 -44.265244 -35.84709 -67.38523c-5.108124 -32.978096 -7.797638 -66.67071 -7.9743195 -100.18666c0 -6.540654 0.17668152 -13.532795 0.98550415 -20.52101z" fill-rule="evenodd"/><path fill="#000000" fill-opacity="0.0" d="m74.872444 131.30078l810.21735 0l0 196.34647l-810.21735 0z" fill-rule="evenodd"/><path fill="#ffffff" d="m339.24542 157.44788q9.625 0 16.859375 3.90625q7.234375 3.90625 11.125 10.84375q3.90625 6.921875 3.90625 15.765625q0 8.75 -3.90625 15.765625q-3.890625 7.015625 -11.125 11.046875q-7.234375 4.03125 -16.859375 4.03125l-25.5625 0l0 -61.359375l25.5625 0zm-1.734375 44.203125q6.5 0 10.3125 -3.546875q3.8125 -3.5625 3.8125 -10.140625q0 -6.59375 -3.8125 -10.140625q-3.8125 -3.5625 -10.3125 -3.5625l-4.578125 0l0 27.390625l4.578125 0zm70.463776 17.765625q-8.671875 0 -15.90625 -4.078125q-7.234375 -4.078125 -11.484375 -11.265625q-4.25 -7.1875 -4.25 -16.203125q0 -9.015625 4.25 -16.203125q4.25 -7.1875 11.484375 -11.21875q7.234375 -4.03125 15.90625 -4.03125q8.65625 0 15.84375 4.03125q7.203125 4.03125 11.40625 11.21875q4.203125 7.1875 4.203125 16.203125q0 9.015625 -4.203125 16.203125q-4.203125 7.1875 -11.4375 11.265625q-7.234375 4.078125 -15.8125 4.078125zm0 -17.9375q5.71875 0 8.828125 -3.6875q3.125 -3.6875 3.125 -9.921875q0 -6.328125 -3.125 -10.0q-3.109375 -3.6875 -8.828125 -3.6875q-5.8125 0 -8.9375 3.6875q-3.109375 3.671875 -3.109375 10.0q0 6.234375 3.109375 9.921875q3.125 3.6875 8.9375 3.6875zm112.048004 -44.03125l-22.015625 42.734375l0 18.625l-19.234375 0l0 -18.625l-22.015625 -42.734375l22.015625 0l9.78125 21.75l9.796875 -21.75l21.671875 0zm34.227905 61.96875q-8.671875 0 -15.90625 -4.078125q-7.234375 -4.078125 -11.484375 -11.265625q-4.25 -7.1875 -4.25 -16.203125q0 -9.015625 4.25 -16.203125q4.25 -7.1875 11.484375 -11.21875q7.234375 -4.03125 15.90625 -4.03125q8.65625 0 15.84375 4.03125q7.203125 4.03125 11.40625 11.21875q4.203125 7.1875 4.203125 16.203125q0 9.015625 -4.203125 16.203125q-4.203125 7.1875 -11.4375 11.265625q-7.234375 4.078125 -15.8125 4.078125zm0 -17.9375q5.71875 0 8.828125 -3.6875q3.125 -3.6875 3.125 -9.921875q0 -6.328125 -3.125 -10.0q-3.109375 -3.6875 -8.828125 -3.6875q-5.8125 0 -8.9375 3.6875q-3.109375 3.671875 -3.109375 10.0q0 6.234375 3.109375 9.921875q3.125 3.6875 8.9375 3.6875zm57.191406 -44.03125l0 34.578125q0 4.25 1.859375 6.71875q1.859375 2.46875 6.015625 2.46875q4.171875 0 6.15625 -2.46875q2.0 -2.46875 2.0 -6.71875l0 -34.578125l19.140625 0l0 34.578125q0 8.75 -3.640625 14.953125q-3.625 6.203125 -9.953125 9.328125q-6.328125 3.109375 -14.125 3.109375q-7.796875 0 -13.828125 -3.109375q-6.015625 -3.125 -9.40625 -9.28125q-3.375 -6.15625 -3.375 -15.0l0 -34.578125l19.15625 0z" fill-rule="nonzero"/><path fill="#73f7ff" d="m328.11603 302.00723l-17.84375 -26.609375l0 26.609375l-19.25 0l0 -61.359375l19.25 0l0 25.828125l17.578125 -25.828125l21.75 0l-21.140625 29.390625l22.53125 31.96875l-22.875 0zm87.17554 0l-19.234375 0l-20.359375 -30.84375l0 30.84375l-19.25 0l0 -61.359375l19.25 0l20.359375 31.375l0 -31.375l19.234375 0l0 61.359375zm38.56778 0.609375q-8.671875 0 -15.90625 -4.078125q-7.234375 -4.078125 -11.484375 -11.265625q-4.25 -7.1875 -4.25 -16.203125q0 -9.015625 4.25 -16.203125q4.25 -7.1875 11.484375 -11.21875q7.234375 -4.03125 15.90625 -4.03125q8.65625 0 15.84375 4.03125q7.203125 4.03125 11.40625 11.21875q4.203125 7.1875 4.203125 16.203125q0 9.015625 -4.203125 16.203125q-4.203125 7.1875 -11.4375 11.265625q-7.234375 4.078125 -15.8125 4.078125zm0 -17.9375q5.71875 0 8.828125 -3.6875q3.125 -3.6875 3.125 -9.921875q0 -6.328125 -3.125 -10.0q-3.109375 -3.6875 -8.828125 -3.6875q-5.8125 0 -8.9375 3.6875q-3.109375 3.671875 -3.109375 10.0q0 6.234375 3.109375 9.921875q3.125 3.6875 8.9375 3.6875zm126.76956 -44.03125l-14.03125 61.359375l-23.921875 0l-7.109375 -34.828125l-7.09375 34.828125l-23.921875 0l-14.046875 -61.359375l20.71875 0l5.546875 38.65625l8.3125 -38.65625l20.96875 0l8.328125 38.65625l5.546875 -38.65625l20.703125 0z" fill-rule="nonzero"/><path fill="#ffffff" d="m635.6512 302.69473q-5.015625 0 -8.0625 -2.671875q-3.03125 -2.6875 -3.03125 -6.765625q0 -4.15625 3.03125 -6.890625q3.046875 -2.734375 8.0625 -2.734375q4.9375 0 7.96875 2.734375q3.046875 2.734375 3.046875 6.890625q0 4.078125 -3.046875 6.765625q-3.03125 2.671875 -7.96875 2.671875zm23.828125 0q-5.015625 0 -8.0625 -2.671875q-3.03125 -2.6875 -3.03125 -6.765625q0 -4.15625 3.03125 -6.890625q3.046875 -2.734375 8.0625 -2.734375q4.9375 0 7.96875 2.734375q3.046875 2.734375 3.046875 6.890625q0 4.078125 -3.046875 6.765625q-3.03125 2.671875 -7.96875 2.671875zm-47.65625 0q-5.015625 0 -8.0625 -2.671875q-3.03125 -2.6875 -3.03125 -6.765625q0 -4.15625 3.03125 -6.890625q3.046875 -2.734375 8.0625 -2.734375q4.9375 0 7.96875 2.734375q3.046875 2.734375 3.046875 6.890625q0 4.078125 -3.046875 6.765625q-3.03125 2.671875 -7.96875 2.671875z" fill-rule="nonzero"/><path fill="#000000" fill-opacity="0.0" d="m278.55118 337.5874l402.82205 0l0 71.055115l-402.82205 0z" fill-rule="evenodd"/><path fill="#ffffff" d="m294.6435 367.0674l6.4375 -14.25l0.46875 0.6875l-9.234375 0l0.796875 -0.75l0 3.546875l-1.515625 0l0 -4.171875l10.953125 0l0 1.09375l-6.25 13.84375l-1.65625 0zm12.76001 0l0 -14.296875l0.671875 0.734375l-4.203125 0l0 -1.375l5.0625 0l0 14.9375l-1.53125 0zm7.0901184 0l10.203125 -14.9375l1.25 0l-10.1875 14.9375l-1.265625 0zm1.15625 -6.9375q-1.0 0 -1.765625 -0.5q-0.765625 -0.5 -1.1875 -1.40625q-0.421875 -0.921875 -0.421875 -2.140625q0 -1.21875 0.421875 -2.125q0.421875 -0.921875 1.1875 -1.421875q0.765625 -0.5 1.765625 -0.5q1.0 0 1.75 0.5q0.765625 0.5 1.1875 1.421875q0.4375 0.90625 0.4375 2.125q0 1.21875 -0.4375 2.140625q-0.421875 0.90625 -1.1875 1.40625q-0.75 0.5 -1.75 0.5zm0 -0.953125q1.046875 0 1.671875 -0.8125q0.625 -0.828125 0.625 -2.28125q0 -1.453125 -0.625 -2.265625q-0.625 -0.828125 -1.671875 -0.828125q-1.0625 0 -1.6875 0.828125q-0.609375 0.8125 -0.609375 2.265625q0 1.453125 0.609375 2.28125q0.625 0.8125 1.6875 0.8125zm9.15625 8.0q-0.984375 0 -1.75 -0.5q-0.765625 -0.5 -1.203125 -1.421875q-0.421875 -0.921875 -0.421875 -2.140625q0 -1.203125 0.421875 -2.125q0.4375 -0.921875 1.203125 -1.421875q0.765625 -0.5 1.75 -0.5q1.015625 0 1.765625 0.5q0.765625 0.5 1.171875 1.421875q0.421875 0.921875 0.421875 2.125q0 1.21875 -0.421875 2.140625q-0.40625 0.921875 -1.171875 1.421875q-0.75 0.5 -1.765625 0.5zm0 -0.96875q1.03125 0 1.65625 -0.8125q0.640625 -0.828125 0.640625 -2.28125q0 -1.4375 -0.640625 -2.25q-0.625 -0.828125 -1.65625 -0.828125q-1.046875 0 -1.6875 0.828125q-0.625 0.8125 -0.625 2.25q0 1.453125 0.625 2.28125q0.640625 0.8125 1.6875 0.8125zm16.519073 0.96875q-1.609375 0 -2.90625 -0.734375q-1.296875 -0.734375 -2.046875 -2.03125q-0.734375 -1.296875 -0.734375 -2.953125q0 -1.6875 0.734375 -2.96875q0.75 -1.28125 2.03125 -2.0q1.28125 -0.71875 2.921875 -0.71875q1.671875 0 2.953125 0.71875q1.296875 0.71875 2.03125 2.0q0.734375 1.28125 0.734375 2.96875q0 1.65625 -0.734375 2.953125q-0.734375 1.296875 -2.046875 2.03125q-1.296875 0.734375 -2.9375 0.734375zm0 -1.34375q1.21875 0 2.15625 -0.546875q0.9375 -0.546875 1.484375 -1.53125q0.546875 -1.0 0.546875 -2.296875q0 -1.328125 -0.546875 -2.296875q-0.546875 -0.984375 -1.484375 -1.53125q-0.9375 -0.546875 -2.125 -0.546875q-1.203125 0 -2.140625 0.546875q-0.9375 0.546875 -1.5 1.53125q-0.546875 0.96875 -0.546875 2.296875q0 1.296875 0.546875 2.296875q0.5625 0.984375 1.5 1.53125q0.9375 0.546875 2.109375 0.546875zm9.075928 1.234375l0 -12.609375q0 -1.484375 0.859375 -2.40625q0.875 -0.921875 2.53125 -0.921875q0.640625 0 1.234375 0.171875q0.59375 0.171875 1.0 0.53125l-0.515625 1.140625q-0.3125 -0.28125 -0.75 -0.421875q-0.421875 -0.140625 -0.90625 -0.140625q-0.96875 0 -1.484375 0.53125q-0.5 0.53125 -0.5 1.578125l0 1.71875l0.03125 0.703125l0 10.125l-1.5 0zm-2.015625 -9.9375l0 -1.265625l6.9375 0l0 1.265625l-6.9375 0zm18.115143 10.046875q-1.578125 0 -2.4375 -0.84375q-0.84375 -0.859375 -0.84375 -2.421875l0 -10.515625l1.5 0l0 10.4375q0 0.96875 0.5 1.515625q0.515625 0.53125 1.453125 0.53125q1.0 0 1.65625 -0.578125l0.53125 1.078125q-0.4375 0.40625 -1.078125 0.609375q-0.625 0.1875 -1.28125 0.1875zm-5.296875 -10.046875l0 -1.265625l6.9375 0l0 1.265625l-6.9375 0zm16.12799 -1.359375q1.359375 0 2.390625 0.515625q1.046875 0.515625 1.625 1.59375q0.59375 1.0625 0.59375 2.6875l0 6.5l-1.515625 0l0 -6.359375q0 -1.765625 -0.890625 -2.671875q-0.875 -0.90625 -2.484375 -0.90625q-1.1875 0 -2.078125 0.484375q-0.890625 0.46875 -1.375 1.375q-0.46875 0.90625 -0.46875 2.1875l0 5.890625l-1.515625 0l0 -15.828125l1.515625 0l0 7.703125l-0.296875 -0.578125q0.53125 -1.21875 1.703125 -1.90625q1.171875 -0.6875 2.796875 -0.6875zm13.464752 11.40625q-1.75 0 -3.078125 -0.734375q-1.328125 -0.734375 -2.078125 -2.03125q-0.734375 -1.296875 -0.734375 -2.953125q0 -1.65625 0.703125 -2.9375q0.71875 -1.28125 1.96875 -2.015625q1.25 -0.734375 2.8125 -0.734375q1.578125 0 2.796875 0.71875q1.234375 0.703125 1.9375 2.0q0.703125 1.28125 0.703125 2.96875q0 0.109375 -0.015625 0.234375q-0.015625 0.109375 -0.015625 0.234375l-9.734375 0l0 -1.125l8.921875 0l-0.59375 0.4375q0 -1.203125 -0.53125 -2.15625q-0.515625 -0.953125 -1.40625 -1.484375q-0.890625 -0.53125 -2.0625 -0.53125q-1.15625 0 -2.078125 0.53125q-0.921875 0.53125 -1.4375 1.5q-0.5 0.953125 -0.5 2.1875l0 0.234375q0 1.28125 0.5625 2.25q0.5625 0.96875 1.578125 1.515625q1.015625 0.546875 2.3125 0.546875q1.03125 0 1.90625 -0.359375q0.890625 -0.375 1.53125 -1.109375l0.859375 0.96875q-0.75 0.90625 -1.875 1.375q-1.109375 0.46875 -2.453125 0.46875zm18.470245 0q-1.75 0 -3.078125 -0.734375q-1.328125 -0.734375 -2.078125 -2.03125q-0.734375 -1.296875 -0.734375 -2.953125q0 -1.65625 0.703125 -2.9375q0.71875 -1.28125 1.96875 -2.015625q1.25 -0.734375 2.8125 -0.734375q1.578125 0 2.796875 0.71875q1.234375 0.703125 1.9375 2.0q0.703125 1.28125 0.703125 2.96875q0 0.109375 -0.015625 0.234375q-0.015625 0.109375 -0.015625 0.234375l-9.734375 0l0 -1.125l8.921875 0l-0.59375 0.4375q0 -1.203125 -0.53125 -2.15625q-0.515625 -0.953125 -1.40625 -1.484375q-0.890625 -0.53125 -2.0625 -0.53125q-1.15625 0 -2.078125 0.53125q-0.921875 0.53125 -1.4375 1.5q-0.5 0.953125 -0.5 2.1875l0 0.234375q0 1.28125 0.5625 2.25q0.5625 0.96875 1.578125 1.515625q1.015625 0.546875 2.3125 0.546875q1.03125 0 1.90625 -0.359375q0.890625 -0.375 1.53125 -1.109375l0.859375 0.96875q-0.75 0.90625 -1.875 1.375q-1.109375 0.46875 -2.453125 0.46875zm14.812225 -0.109375l0 -2.46875l-0.0625 -0.40625l0 -4.140625q0 -1.4375 -0.796875 -2.203125q-0.796875 -0.765625 -2.375 -0.765625q-1.09375 0 -2.078125 0.375q-0.96875 0.359375 -1.65625 0.953125l-0.6875 -1.140625q0.859375 -0.71875 2.046875 -1.109375q1.203125 -0.390625 2.515625 -0.390625q2.1875 0 3.359375 1.078125q1.1875 1.0625 1.1875 3.265625l0 6.953125l-1.453125 0zm-3.859375 0.109375q-1.25 0 -2.1875 -0.40625q-0.921875 -0.421875 -1.421875 -1.15625q-0.484375 -0.75 -0.484375 -1.703125q0 -0.875 0.40625 -1.578125q0.421875 -0.71875 1.375 -1.15625q0.953125 -0.4375 2.546875 -0.4375l3.859375 0l0 1.125l-3.8125 0q-1.625 0 -2.25 0.578125q-0.625 0.578125 -0.625 1.421875q0 0.96875 0.734375 1.546875q0.75 0.5625 2.09375 0.5625q1.28125 0 2.203125 -0.578125q0.9375 -0.59375 1.359375 -1.703125l0.34375 1.046875q-0.421875 1.109375 -1.484375 1.78125q-1.046875 0.65625 -2.65625 0.65625zm9.427399 -0.109375l0 -11.203125l1.453125 0l0 3.0625l-0.15625 -0.546875q0.46875 -1.265625 1.578125 -1.9375q1.109375 -0.671875 2.75 -0.671875l0 1.46875q-0.078125 0 -0.171875 -0.015625q-0.078125 -0.015625 -0.15625 -0.015625q-1.78125 0 -2.78125 1.078125q-1.0 1.078125 -1.0 3.0625l0 5.71875l-1.515625 0zm12.419495 0.109375q-1.578125 0 -2.4375 -0.84375q-0.84375 -0.859375 -0.84375 -2.421875l0 -10.515625l1.5 0l0 10.4375q0 0.96875 0.5 1.515625q0.515625 0.53125 1.453125 0.53125q1.0 0 1.65625 -0.578125l0.53125 1.078125q-0.4375 0.40625 -1.078125 0.609375q-0.625 0.1875 -1.28125 0.1875zm-5.296875 -10.046875l0 -1.265625l6.9375 0l0 1.265625l-6.9375 0zm16.12799 -1.359375q1.359375 0 2.390625 0.515625q1.046875 0.515625 1.625 1.59375q0.59375 1.0625 0.59375 2.6875l0 6.5l-1.515625 0l0 -6.359375q0 -1.765625 -0.890625 -2.671875q-0.875 -0.90625 -2.484375 -0.90625q-1.1875 0 -2.078125 0.484375q-0.890625 0.46875 -1.375 1.375q-0.46875 0.90625 -0.46875 2.1875l0 5.890625l-1.515625 0l0 -15.828125l1.515625 0l0 7.703125l-0.296875 -0.578125q0.53125 -1.21875 1.703125 -1.90625q1.171875 -0.6875 2.796875 -0.6875zm7.606598 0.671875l0.953125 -3.921875l0.15625 0.890625q-0.484375 0 -0.8125 -0.296875q-0.328125 -0.3125 -0.328125 -0.828125q0 -0.515625 0.328125 -0.828125q0.328125 -0.328125 0.796875 -0.328125q0.484375 0 0.796875 0.34375q0.3125 0.328125 0.3125 0.8125q0 0.171875 -0.03125 0.34375q-0.015625 0.171875 -0.078125 0.375q-0.046875 0.203125 -0.140625 0.5l-0.921875 2.9375l-1.03125 0zm8.117737 10.734375q-1.390625 0 -2.625 -0.390625q-1.234375 -0.40625 -1.953125 -1.0l0.6875 -1.1875q0.6875 0.5 1.75 0.875q1.0625 0.375 2.234375 0.375q1.609375 0 2.3125 -0.5q0.703125 -0.5 0.703125 -1.328125q0 -0.625 -0.40625 -0.96875q-0.390625 -0.359375 -1.03125 -0.53125q-0.640625 -0.1875 -1.4375 -0.3125q-0.78125 -0.125 -1.5625 -0.296875q-0.765625 -0.171875 -1.40625 -0.5q-0.640625 -0.34375 -1.046875 -0.90625q-0.390625 -0.578125 -0.390625 -1.546875q0 -0.90625 0.515625 -1.625q0.515625 -0.734375 1.5 -1.140625q1.0 -0.421875 2.421875 -0.421875q1.09375 0 2.171875 0.28125q1.09375 0.28125 1.796875 0.75l-0.65625 1.21875q-0.75 -0.515625 -1.609375 -0.734375q-0.84375 -0.21875 -1.703125 -0.21875q-1.515625 0 -2.234375 0.53125q-0.703125 0.515625 -0.703125 1.328125q0 0.640625 0.390625 1.0q0.390625 0.359375 1.046875 0.5625q0.65625 0.203125 1.421875 0.328125q0.78125 0.125 1.5625 0.3125q0.78125 0.171875 1.421875 0.484375q0.65625 0.3125 1.046875 0.875q0.40625 0.5625 0.40625 1.484375q0 0.984375 -0.546875 1.703125q-0.546875 0.703125 -1.578125 1.109375q-1.03125 0.390625 -2.5 0.390625zm15.996155 0q-1.390625 0 -2.625 -0.390625q-1.234375 -0.40625 -1.953125 -1.0l0.6875 -1.1875q0.6875 0.5 1.75 0.875q1.0625 0.375 2.234375 0.375q1.609375 0 2.3125 -0.5q0.703125 -0.5 0.703125 -1.328125q0 -0.625 -0.40625 -0.96875q-0.390625 -0.359375 -1.03125 -0.53125q-0.640625 -0.1875 -1.4375 -0.3125q-0.78125 -0.125 -1.5625 -0.296875q-0.765625 -0.171875 -1.40625 -0.5q-0.640625 -0.34375 -1.046875 -0.90625q-0.390625 -0.578125 -0.390625 -1.546875q0 -0.90625 0.515625 -1.625q0.515625 -0.734375 1.5 -1.140625q1.0 -0.421875 2.421875 -0.421875q1.09375 0 2.171875 0.28125q1.09375 0.28125 1.796875 0.75l-0.65625 1.21875q-0.75 -0.515625 -1.609375 -0.734375q-0.84375 -0.21875 -1.703125 -0.21875q-1.515625 0 -2.234375 0.53125q-0.703125 0.515625 -0.703125 1.328125q0 0.640625 0.390625 1.0q0.390625 0.359375 1.046875 0.5625q0.65625 0.203125 1.421875 0.328125q0.78125 0.125 1.5625 0.3125q0.78125 0.171875 1.421875 0.484375q0.65625 0.3125 1.046875 0.875q0.40625 0.5625 0.40625 1.484375q0 0.984375 -0.546875 1.703125q-0.546875 0.703125 -1.578125 1.109375q-1.03125 0.390625 -2.5 0.390625zm12.017548 0q-1.421875 0 -2.5 -0.53125q-1.0625 -0.53125 -1.65625 -1.59375q-0.578125 -1.078125 -0.578125 -2.671875l0 -6.515625l1.515625 0l0 6.34375q0 1.78125 0.890625 2.6875q0.890625 0.90625 2.484375 0.90625q1.171875 0 2.03125 -0.46875q0.875 -0.484375 1.328125 -1.390625q0.453125 -0.921875 0.453125 -2.203125l0 -5.875l1.515625 0l0 11.203125l-1.453125 0l0 -3.078125l0.234375 0.5625q-0.53125 1.234375 -1.65625 1.9375q-1.109375 0.6875 -2.609375 0.6875zm9.707581 -0.109375l0 -11.203125l1.453125 0l0 3.0625l-0.15625 -0.546875q0.46875 -1.265625 1.578125 -1.9375q1.109375 -0.671875 2.75 -0.671875l0 1.46875q-0.078125 0 -0.171875 -0.015625q-0.078125 -0.015625 -0.15625 -0.015625q-1.78125 0 -2.78125 1.078125q-1.0 1.078125 -1.0 3.0625l0 5.71875l-1.515625 0zm8.818207 0l0 -12.609375q0 -1.484375 0.859375 -2.40625q0.875 -0.921875 2.53125 -0.921875q0.640625 0 1.234375 0.171875q0.59375 0.171875 1.0 0.53125l-0.515625 1.140625q-0.3125 -0.28125 -0.75 -0.421875q-0.421875 -0.140625 -0.90625 -0.140625q-0.96875 0 -1.484375 0.53125q-0.5 0.53125 -0.5 1.578125l0 1.71875l0.03125 0.703125l0 10.125l-1.5 0zm-2.015625 -9.9375l0 -1.265625l6.9375 0l0 1.265625l-6.9375 0zm15.782593 9.9375l0 -2.46875l-0.0625 -0.40625l0 -4.140625q0 -1.4375 -0.796875 -2.203125q-0.796875 -0.765625 -2.375 -0.765625q-1.09375 0 -2.078125 0.375q-0.96875 0.359375 -1.65625 0.953125l-0.6875 -1.140625q0.859375 -0.71875 2.046875 -1.109375q1.203125 -0.390625 2.515625 -0.390625q2.1875 0 3.359375 1.078125q1.1875 1.0625 1.1875 3.265625l0 6.953125l-1.453125 0zm-3.859375 0.109375q-1.25 0 -2.1875 -0.40625q-0.921875 -0.421875 -1.421875 -1.15625q-0.484375 -0.75 -0.484375 -1.703125q0 -0.875 0.40625 -1.578125q0.421875 -0.71875 1.375 -1.15625q0.953125 -0.4375 2.546875 -0.4375l3.859375 0l0 1.125l-3.8125 0q-1.625 0 -2.25 0.578125q-0.625 0.578125 -0.625 1.421875q0 0.96875 0.734375 1.546875q0.75 0.5625 2.09375 0.5625q1.28125 0 2.203125 -0.578125q0.9375 -0.59375 1.359375 -1.703125l0.34375 1.046875q-0.421875 1.109375 -1.484375 1.78125q-1.046875 0.65625 -2.65625 0.65625zm14.083679 0q-1.671875 0 -2.984375 -0.734375q-1.3125 -0.734375 -2.062561 -2.03125q-0.734375 -1.296875 -0.734375 -2.953125q0 -1.6875 0.734375 -2.96875q0.75006104 -1.28125 2.062561 -2.0q1.3125 -0.71875 2.984375 -0.71875q1.421875 0 2.578125 0.5625q1.15625 0.546875 1.8125 1.65625l-1.125 0.765625q-0.578125 -0.859375 -1.4375 -1.265625q-0.859375 -0.40625 -1.859375 -0.40625q-1.1875 0 -2.15625 0.546875q-0.953125 0.546875 -1.515625 1.53125q-0.546875 0.96875 -0.546875 2.296875q0 1.328125 0.546875 2.3125q0.5625 0.96875 1.515625 1.515625q0.96875 0.546875 2.15625 0.546875q1.0 0 1.859375 -0.40625q0.859375 -0.40625 1.4375 -1.234375l1.125 0.765625q-0.65625 1.078125 -1.8125 1.65625q-1.15625 0.5625 -2.578125 0.5625zm11.92511 0q-1.75 0 -3.078125 -0.734375q-1.328125 -0.734375 -2.078125 -2.03125q-0.734375 -1.296875 -0.734375 -2.953125q0 -1.65625 0.703125 -2.9375q0.71875 -1.28125 1.96875 -2.015625q1.25 -0.734375 2.8125 -0.734375q1.578125 0 2.796875 0.71875q1.234375 0.703125 1.9375 2.0q0.703125 1.28125 0.703125 2.96875q0 0.109375 -0.015625 0.234375q-0.015625 0.109375 -0.015625 0.234375l-9.734375 0l0 -1.125l8.921875 0l-0.59375 0.4375q0 -1.203125 -0.53125 -2.15625q-0.515625 -0.953125 -1.40625 -1.484375q-0.890625 -0.53125 -2.0625 -0.53125q-1.15625 0 -2.078125 0.53125q-0.921875 0.53125 -1.4375 1.5q-0.5 0.953125 -0.5 2.1875l0 0.234375q0 1.28125 0.5625 2.25q0.5625 0.96875 1.578125 1.515625q1.015625 0.546875 2.3125 0.546875q1.03125 0 1.90625 -0.359375q0.890625 -0.375 1.53125 -1.109375l0.859375 0.96875q-0.75 0.90625 -1.875 1.375q-1.109375 0.46875 -2.453125 0.46875zm13.704651 -0.109375l0 -11.203125l1.515625 0l0 11.203125l-1.515625 0zm0.78125 -13.671875q-0.484375 0 -0.796875 -0.3125q-0.3125 -0.328125 -0.3125 -0.78125q0 -0.4375 0.3125 -0.75q0.3125 -0.3125 0.796875 -0.3125q0.46875 0 0.78125 0.296875q0.3125 0.296875 0.3125 0.75q0 0.46875 -0.3125 0.796875q-0.296875 0.3125 -0.78125 0.3125zm7.9716797 13.78125q-1.390625 0 -2.625 -0.390625q-1.234375 -0.40625 -1.953125 -1.0l0.6875 -1.1875q0.6875 0.5 1.75 0.875q1.0625 0.375 2.234375 0.375q1.609375 0 2.3125 -0.5q0.703125 -0.5 0.703125 -1.328125q0 -0.625 -0.40625 -0.96875q-0.390625 -0.359375 -1.03125 -0.53125q-0.640625 -0.1875 -1.4375 -0.3125q-0.78125 -0.125 -1.5625 -0.296875q-0.765625 -0.171875 -1.40625 -0.5q-0.640625 -0.34375 -1.046875 -0.90625q-0.390625 -0.578125 -0.390625 -1.546875q0 -0.90625 0.515625 -1.625q0.515625 -0.734375 1.5 -1.140625q1.0 -0.421875 2.421875 -0.421875q1.09375 0 2.171875 0.28125q1.09375 0.28125 1.796875 0.75l-0.65625 1.21875q-0.75 -0.515625 -1.609375 -0.734375q-0.84375 -0.21875 -1.703125 -0.21875q-1.515625 0 -2.234375 0.53125q-0.703125 0.515625 -0.703125 1.328125q0 0.640625 0.390625 1.0q0.390625 0.359375 1.046875 0.5625q0.65625 0.203125 1.421875 0.328125q0.78125 0.125 1.5625 0.3125q0.78125 0.171875 1.421875 0.484375q0.65625 0.3125 1.046875 0.875q0.40625 0.5625 0.40625 1.484375q0 0.984375 -0.546875 1.703125q-0.546875 0.703125 -1.578125 1.109375q-1.03125 0.390625 -2.5 0.390625zm17.63678 0q-1.671875 0 -2.984375 -0.734375q-1.3125 -0.734375 -2.0625 -2.03125q-0.734375 -1.296875 -0.734375 -2.953125q0 -1.6875 0.734375 -2.96875q0.75 -1.28125 2.0625 -2.0q1.3125 -0.71875 2.984375 -0.71875q1.421875 0 2.578125 0.5625q1.15625 0.546875 1.8125 1.65625l-1.125 0.765625q-0.578125 -0.859375 -1.4375 -1.265625q-0.859375 -0.40625 -1.859375 -0.40625q-1.1875 0 -2.15625 0.546875q-0.953125 0.546875 -1.515625 1.53125q-0.546875 0.96875 -0.546875 2.296875q0 1.328125 0.546875 2.3125q0.5625 0.96875 1.515625 1.515625q0.96875 0.546875 2.15625 0.546875q1.0 0 1.859375 -0.40625q0.859375 -0.40625 1.4375 -1.234375l1.125 0.765625q-0.65625 1.078125 -1.8125 1.65625q-1.15625 0.5625 -2.578125 0.5625zm11.722046 0q-1.609375 0 -2.90625 -0.734375q-1.296875 -0.734375 -2.046875 -2.03125q-0.734375 -1.296875 -0.734375 -2.953125q0 -1.6875 0.734375 -2.96875q0.75 -1.28125 2.03125 -2.0q1.28125 -0.71875 2.921875 -0.71875q1.671875 0 2.953125 0.71875q1.296875 0.71875 2.03125 2.0q0.734375 1.28125 0.734375 2.96875q0 1.65625 -0.734375 2.953125q-0.734375 1.296875 -2.046875 2.03125q-1.296875 0.734375 -2.9375 0.734375zm0 -1.34375q1.21875 0 2.15625 -0.546875q0.9375 -0.546875 1.484375 -1.53125q0.546875 -1.0 0.546875 -2.296875q0 -1.328125 -0.546875 -2.296875q-0.546875 -0.984375 -1.484375 -1.53125q-0.9375 -0.546875 -2.125 -0.546875q-1.203125 0 -2.140625 0.546875q-0.9375 0.546875 -1.5 1.53125q-0.546875 0.96875 -0.546875 2.296875q0 1.296875 0.546875 2.296875q0.5625 0.984375 1.5 1.53125q0.9375 0.546875 2.109375 0.546875zm11.365295 1.234375l-4.96875 -11.203125l1.578125 0l4.5625 10.390625l-0.734375 0l4.625 -10.390625l1.484375 0l-4.984375 11.203125l-1.5625 0zm13.130493 0.109375q-1.75 0 -3.078125 -0.734375q-1.328125 -0.734375 -2.078125 -2.03125q-0.734375 -1.296875 -0.734375 -2.953125q0 -1.65625 0.703125 -2.9375q0.71875 -1.28125 1.96875 -2.015625q1.25 -0.734375 2.8125 -0.734375q1.578125 0 2.796875 0.71875q1.234375 0.703125 1.9375 2.0q0.703125 1.28125 0.703125 2.96875q0 0.109375 -0.015625 0.234375q-0.015625 0.109375 -0.015625 0.234375l-9.734375 0l0 -1.125l8.921875 0l-0.59375 0.4375q0 -1.203125 -0.53125 -2.15625q-0.515625 -0.953125 -1.40625 -1.484375q-0.890625 -0.53125 -2.0625 -0.53125q-1.15625 0 -2.078125 0.53125q-0.921875 0.53125 -1.4375 1.5q-0.5 0.953125 -0.5 2.1875l0 0.234375q0 1.28125 0.5625 2.25q0.5625 0.96875 1.578125 1.515625q1.015625 0.546875 2.3125 0.546875q1.03125 0 1.90625 -0.359375q0.890625 -0.375 1.53125 -1.109375l0.859375 0.96875q-0.75 0.90625 -1.875 1.375q-1.109375 0.46875 -2.453125 0.46875zm8.116638 -0.109375l0 -11.203125l1.453125 0l0 3.0625l-0.15625 -0.546875q0.46875 -1.265625 1.578125 -1.9375q1.109375 -0.671875 2.75 -0.671875l0 1.46875q-0.078125 0 -0.171875 -0.015625q-0.078125 -0.015625 -0.15625 -0.015625q-1.78125 0 -2.78125 1.078125q-1.0 1.078125 -1.0 3.0625l0 5.71875l-1.515625 0zm13.040894 0.109375q-1.75 0 -3.078125 -0.734375q-1.328125 -0.734375 -2.078125 -2.03125q-0.734375 -1.296875 -0.734375 -2.953125q0 -1.65625 0.703125 -2.9375q0.71875 -1.28125 1.96875 -2.015625q1.25 -0.734375 2.8125 -0.734375q1.578125 0 2.796875 0.71875q1.234375 0.703125 1.9375 2.0q0.703125 1.28125 0.703125 2.96875q0 0.109375 -0.015625 0.234375q-0.015625 0.109375 -0.015625 0.234375l-9.734375 0l0 -1.125l8.921875 0l-0.59375 0.4375q0 -1.203125 -0.53125 -2.15625q-0.515625 -0.953125 -1.40625 -1.484375q-0.890625 -0.53125 -2.0625 -0.53125q-1.15625 0 -2.078125 0.53125q-0.921875 0.53125 -1.4375 1.5q-0.5 0.953125 -0.5 2.1875l0 0.234375q0 1.28125 0.5625 2.25q0.5625 0.96875 1.578125 1.515625q1.015625 0.546875 2.3125 0.546875q1.03125 0 1.90625 -0.359375q0.890625 -0.375 1.53125 -1.109375l0.859375 0.96875q-0.75 0.90625 -1.875 1.375q-1.109375 0.46875 -2.453125 0.46875zm12.569763 0q-1.59375 0 -2.859375 -0.71875q-1.265625 -0.734375 -2.0 -2.015625q-0.71875 -1.296875 -0.71875 -2.984375q0 -1.703125 0.71875 -2.984375q0.734375 -1.28125 2.0 -1.984375q1.265625 -0.71875 2.859375 -0.71875q1.484375 0 2.640625 0.65625q1.15625 0.65625 1.84375 1.9375q0.703125 1.265625 0.703125 3.09375q0 1.8125 -0.6875 3.09375q-0.671875 1.28125 -1.84375 1.953125q-1.15625 0.671875 -2.65625 0.671875zm0.109375 -1.34375q1.203125 0 2.140625 -0.546875q0.953125 -0.546875 1.5 -1.53125q0.546875 -1.0 0.546875 -2.296875q0 -1.328125 -0.546875 -2.296875q-0.546875 -0.984375 -1.5 -1.53125q-0.9375 -0.546875 -2.140625 -0.546875q-1.171875 0 -2.109375 0.546875q-0.9375 0.546875 -1.5 1.53125q-0.546875 0.96875 -0.546875 2.296875q0 1.296875 0.546875 2.296875q0.5625 0.984375 1.5 1.53125q0.9375 0.546875 2.109375 0.546875zm4.234375 1.234375l0 -3.375l0.140625 -2.25l-0.21875 -2.265625l0 -7.9375l1.515625 0l0 15.828125l-1.4375 0z" fill-rule="nonzero"/><path fill="#ffffff" d="m441.86935 392.77676q-1.46875 0 -2.640625 -0.671875q-1.171875 -0.671875 -1.859375 -1.953125q-0.6875 -1.28125 -0.6875 -3.09375q0 -1.828125 0.6875 -3.09375q0.703125 -1.28125 1.875 -1.9375q1.171875 -0.65625 2.625 -0.65625q1.59375 0 2.859375 0.71875q1.28125 0.703125 2.0 1.984375q0.734375 1.28125 0.734375 2.984375q0 1.6875 -0.734375 2.984375q-0.71875 1.28125 -2.0 2.015625q-1.265625 0.71875 -2.859375 0.71875zm-5.78125 -0.109375l0 -15.828125l1.515625 0l0 7.9375l-0.21875 2.265625l0.15625 2.25l0 3.375l-1.453125 0zm5.671875 -1.234375q1.203125 0 2.140625 -0.546875q0.9375 -0.546875 1.484375 -1.53125q0.5625 -1.0 0.5625 -2.296875q0 -1.328125 -0.5625 -2.296875q-0.546875 -0.984375 -1.484375 -1.53125q-0.9375 -0.546875 -2.140625 -0.546875q-1.1875 0 -2.140625 0.546875q-0.953125 0.546875 -1.5 1.53125q-0.53125 0.96875 -0.53125 2.296875q0 1.296875 0.53125 2.296875q0.546875 0.984375 1.5 1.53125q0.953125 0.546875 2.140625 0.546875zm8.562378 5.484375q-0.796875 0 -1.515625 -0.265625q-0.703125 -0.25 -1.21875 -0.765625l0.703125 -1.125q0.421875 0.40625 0.921875 0.625q0.5 0.21875 1.125 0.21875q0.75 0 1.28125 -0.421875q0.546875 -0.40625 1.046875 -1.453125l0.71875 -1.640625l0.171875 -0.234375l4.609375 -10.390625l1.484375 0l-5.609375 12.546875q-0.46875 1.09375 -1.03125 1.734375q-0.5625 0.640625 -1.234375 0.90625q-0.65625 0.265625 -1.453125 0.265625zm2.984375 -3.9375l-5.171875 -11.515625l1.578125 0l4.5625 10.28125l-0.96875 1.234375zm16.351013 -0.3125l-4.21875 -11.203125l1.453125 0l3.828125 10.390625l-0.65625 0l3.953125 -10.390625l1.296875 0l3.90625 10.390625l-0.671875 0l3.90625 -10.390625l1.390625 0l-4.25 11.203125l-1.421875 0l-3.75 -9.765625l0.4375 0l-3.765625 9.765625l-1.4375 0zm23.140533 0l0 -2.46875l-0.0625 -0.40625l0 -4.140625q0 -1.4375 -0.796875 -2.203125q-0.796875 -0.765625 -2.375 -0.765625q-1.09375 0 -2.078125 0.375q-0.96875 0.359375 -1.65625 0.953125l-0.6875 -1.140625q0.859375 -0.71875 2.046875 -1.109375q1.203125 -0.390625 2.515625 -0.390625q2.1875 0 3.359375 1.078125q1.1875 1.0625 1.1875 3.265625l0 6.953125l-1.453125 0zm-3.859375 0.109375q-1.25 0 -2.1875 -0.40625q-0.921875 -0.421875 -1.421875 -1.15625q-0.484375 -0.75 -0.484375 -1.703125q0 -0.875 0.40625 -1.578125q0.421875 -0.71875 1.375 -1.15625q0.953125 -0.4375 2.546875 -0.4375l3.859375 0l0 1.125l-3.8125 0q-1.625 0 -2.25 0.578125q-0.625 0.578125 -0.625 1.421875q0 0.96875 0.734375 1.546875q0.75 0.5625 2.09375 0.5625q1.28125 0 2.203125 -0.578125q0.9375 -0.59375 1.359375 -1.703125l0.34375 1.046875q-0.421875 1.109375 -1.484375 1.78125q-1.046875 0.65625 -2.65625 0.65625zm12.974274 0q-1.578125 0 -2.4375 -0.84375q-0.84375 -0.859375 -0.84375 -2.421875l0 -10.515625l1.5 0l0 10.4375q0 0.96875 0.5 1.515625q0.515625 0.53125 1.453125 0.53125q1.0 0 1.65625 -0.578125l0.53125 1.078125q-0.4375 0.40625 -1.078125 0.609375q-0.625 0.1875 -1.28125 0.1875zm-5.296875 -10.046875l0 -1.265625l6.9375 0l0 1.265625l-6.9375 0zm14.769562 10.046875q-1.75 0 -3.078125 -0.734375q-1.328125 -0.734375 -2.078125 -2.03125q-0.734375 -1.296875 -0.734375 -2.953125q0 -1.65625 0.703125 -2.9375q0.71875 -1.28125 1.96875 -2.015625q1.25 -0.734375 2.8125 -0.734375q1.578125 0 2.796875 0.71875q1.234375 0.703125 1.9375 2.0q0.703125 1.28125 0.703125 2.96875q0 0.109375 -0.015625 0.234375q-0.015625 0.109375 -0.015625 0.234375l-9.734375 0l0 -1.125l8.921875 0l-0.59375 0.4375q0 -1.203125 -0.53125 -2.15625q-0.515625 -0.953125 -1.40625 -1.484375q-0.890625 -0.53125 -2.0625 -0.53125q-1.15625 0 -2.078125 0.53125q-0.921875 0.53125 -1.4375 1.5q-0.5 0.953125 -0.5 2.1875l0 0.234375q0 1.28125 0.5625 2.25q0.5625 0.96875 1.578125 1.515625q1.015625 0.546875 2.3125 0.546875q1.03125 0 1.90625 -0.359375q0.890625 -0.375 1.53125 -1.109375l0.859375 0.96875q-0.75 0.90625 -1.875 1.375q-1.109375 0.46875 -2.453125 0.46875zm8.116577 -0.109375l0 -11.203125l1.453125 0l0 3.0625l-0.15625 -0.546875q0.46875 -1.265625 1.578125 -1.9375q1.109375 -0.671875 2.75 -0.671875l0 1.46875q-0.078125 0 -0.171875 -0.015625q-0.078125 -0.015625 -0.15625 -0.015625q-1.78125 0 -2.78125 1.078125q-1.0 1.078125 -1.0 3.0625l0 5.71875l-1.515625 0z" fill-rule="nonzero"/><path fill="#000000" fill-opacity="0.0" d="m648.1512 336.0756l-336.30237 0.03778076" fill-rule="evenodd"/><path stroke="#73f7ff" stroke-width="2.0" stroke-linejoin="round" stroke-linecap="butt" d="m648.1512 336.0756l-336.30237 0.03778076" fill-rule="evenodd"/><path fill="#41d5ff" d="m133.48419 80.32524l-1.7298584 0.18502808l1.1803741 12.191261l1.7298584 -0.18502808l-1.1803741 -12.191261z" fill-rule="evenodd"/><path fill="#41d5ff" d="m123.91886 77.480316l-7.7637405 9.435974l1.3724823 1.0986404l7.763733 -9.435974l-1.3724747 -1.0986404z" fill-rule="evenodd"/><path fill="#41d5ff" d="m120.609085 69.77008l-12.174438 1.0887909l0.18461609 1.8214417l12.174438 -1.1803741l-0.18461609 -1.7298584z" fill-rule="evenodd"/><path fill="#41d5ff" d="m114.310425 54.16063l-1.1891632 1.2803001l9.421051 7.8661575l1.1891708 -1.3724823l-9.421059 -7.7739754z" fill-rule="evenodd"/><path fill="#41d5ff" d="m130.27159 46.33701l-1.7298584 0.18461609l1.0887909 12.174438l1.8214417 -0.18461609l-1.1803741 -12.174438z" fill-rule="evenodd"/><path fill="#41d5ff" d="m145.6787 51.13701l-7.763733 9.435974l1.3724823 1.0986404l7.763733 -9.435978l-1.3724823 -1.0986366z" fill-rule="evenodd"/><path fill="#41d5ff" d="m154.58704 66.45423l-12.174438 1.1762695l0.18461609 1.7136917l12.174438 -1.1762619l-0.18461609 -1.7136993z" fill-rule="evenodd"/><path fill="#41d5ff" d="m140.57172 75.82757l-1.0968933 1.3724747l9.421051 7.7637405l1.1891632 -1.3724823l-9.513321 -7.763733z" fill-rule="evenodd"/><path fill="#000000" fill-opacity="0.0" d="m68.18268 100.36536l0 0c0 -4.2060623 3.4096832 -7.615753 7.6157455 -7.615753l0 0c2.0198212 0 3.9569168 0.8023758 5.385147 2.230606c1.4282303 1.4282303 2.230606 3.365326 2.230606 5.385147l0 0c0 4.2060623 -3.4096909 7.6157455 -7.615753 7.6157455l0 0c-4.2060623 0 -7.6157455 -3.4096832 -7.6157455 -7.6157455z" fill-rule="evenodd"/><path stroke="#41d5ff" stroke-width="2.0" stroke-linejoin="round" stroke-linecap="butt" d="m68.18268 100.36536l0 0c0 -4.2060623 3.4096832 -7.615753 7.6157455 -7.615753l0 0c2.0198212 0 3.9569168 0.8023758 5.385147 2.230606c1.4282303 1.4282303 2.230606 3.365326 2.230606 5.385147l0 0c0 4.2060623 -3.4096909 7.6157455 -7.615753 7.6157455l0 0c-4.2060623 0 -7.6157455 -3.4096832 -7.6157455 -7.6157455z" fill-rule="evenodd"/><path fill="#41d5ff" d="m96.41575 174.84094l0 0c0 -2.5674744 2.0813446 -4.648819 4.648819 -4.648819l0 0c1.2329407 0 2.41539 0.48979187 3.2872086 1.3616028c0.8718262 0.8718262 1.3616104 2.0542755 1.3616104 3.2872162l0 0c0 2.5674744 -2.0813446 4.648819 -4.648819 4.648819l0 0c-2.5674744 0 -4.648819 -2.0813446 -4.648819 -4.648819z" fill-rule="evenodd"/><path fill="#41d5ff" d="m756.737 405.4677l0 0c0 -2.5674744 2.0813599 -4.6488037 4.6488037 -4.6488037l0 0c1.2329712 0 2.4154053 0.4897766 3.2872314 1.3616028c0.8718262 0.8718262 1.3616333 2.0542603 1.3616333 3.287201l0 0c0 2.5674744 -2.0813599 4.648834 -4.6488647 4.648834l0 0c-2.5674438 0 -4.6488037 -2.0813599 -4.6488037 -4.648834z" fill-rule="evenodd"/><path fill="#41d5ff" d="m874.66675 447.24515l-2.3139648 0.24597168l1.5789185 16.205444l2.3139648 -0.24594116l-1.5789185 -16.205475z" fill-rule="evenodd"/><path fill="#41d5ff" d="m861.947 443.45197l-10.330261 12.547485l1.8262329 1.460907l10.330261 -12.547485l-1.8262329 -1.460907z" fill-rule="evenodd"/><path fill="#41d5ff" d="m857.55597 433.20944l-16.195312 1.4564514l0.24554443 2.4364624l16.195374 -1.578949l-0.24560547 -2.3139648z" fill-rule="evenodd"/><path fill="#41d5ff" d="m849.1418 412.45984l-1.5827026 1.7035522l12.539001 10.466522l1.5827637 -1.8261719l-12.5390625 -10.343903z" fill-rule="evenodd"/><path fill="#41d5ff" d="m870.3959 402.06613l-2.3139648 0.24560547l1.4564209 16.195343l2.4364624 -0.24557495l-1.5789185 -16.195374z" fill-rule="evenodd"/><path fill="#41d5ff" d="m890.8846 408.41574l-10.330261 12.547485l1.8262329 1.460907l10.3302 -12.547485l-1.8261719 -1.460907z" fill-rule="evenodd"/><path fill="#41d5ff" d="m902.7213 428.80096l-16.195312 1.5734558l0.24554443 2.292328l16.195374 -1.5734253l-0.24560547 -2.2923584z" fill-rule="evenodd"/><path fill="#41d5ff" d="m884.06885 441.27347l-1.4598999 1.8262024l12.539001 10.330261l1.5827637 -1.8262024l-12.661865 -10.330261z" fill-rule="evenodd"/><path fill="#41d5ff" d="m806.862 101.83414l-2.3139648 0.24594879l1.5789185 16.20546l2.3139648 -0.24594879l-1.5789185 -16.20546z" fill-rule="evenodd"/><path fill="#41d5ff" d="m794.14233 98.04095l-10.330261 12.547478l1.8261719 1.4609146l10.330261 -12.547478l-1.8261719 -1.4609146z" fill-rule="evenodd"/><path fill="#41d5ff" d="m789.7513 87.79842l-16.195374 1.4564438l0.24560547 2.43647l16.195312 -1.5789413l-0.24554443 -2.3139725z" fill-rule="evenodd"/><path fill="#41d5ff" d="m781.3749 67.011024l-1.5827637 1.703537l12.5390625 10.466537l1.5827637 -1.8261871l-12.5390625 -10.343887z" fill-rule="evenodd"/><path fill="#41d5ff" d="m802.5911 56.655117l-2.3139648 0.24559021l1.4564209 16.195354l2.4365234 -0.24559021l-1.5789795 -16.195354z" fill-rule="evenodd"/><path fill="#41d5ff" d="m823.07983 63.004723l-10.3302 12.547478l1.8261719 1.4609146l10.330261 -12.547478l-1.8262329 -1.4609146z" fill-rule="evenodd"/><path fill="#41d5ff" d="m834.9166 83.38994l-16.195374 1.5734482l0.24560547 2.2923431l16.195374 -1.5734482l-0.24560547 -2.2923431z" fill-rule="evenodd"/><path fill="#41d5ff" d="m816.30194 95.82465l-1.4599609 1.8261948l12.5390625 10.330254l1.5827637 -1.8261948l-12.661865 -10.330254z" fill-rule="evenodd"/><path fill="#41d5ff" d="m880.4409 158.66457l0 0c0 -2.5674744 2.0813599 -4.648819 4.6488647 -4.648819l0 0c1.2329102 0 2.4153442 0.48979187 3.2871704 1.3616028c0.8718262 0.8718262 1.3616333 2.0542755 1.3616333 3.2872162l0 0c0 2.5674744 -2.0813599 4.648819 -4.6488037 4.648819l0 0c-2.567505 0 -4.6488647 -2.0813446 -4.6488647 -4.648819z" fill-rule="evenodd"/><path fill="#000000" fill-opacity="0.0" d="m854.2866 187.14331l0 0c0 -4.20607 3.409668 -7.615753 7.6157227 -7.615753l0 0c2.0198364 0 3.9569092 0.80236816 5.385193 2.230606c1.4282227 1.4282227 2.2305908 3.365326 2.2305908 5.385147l0 0c0 4.2060547 -3.409729 7.615738 -7.6157837 7.615738l0 0c-4.2060547 0 -7.6157227 -3.4096832 -7.6157227 -7.615738z" fill-rule="evenodd"/><path stroke="#41d5ff" stroke-width="2.0" stroke-linejoin="round" stroke-linecap="butt" d="m854.2866 187.14331l0 0c0 -4.20607 3.409668 -7.615753 7.6157227 -7.615753l0 0c2.0198364 0 3.9569092 0.80236816 5.385193 2.230606c1.4282227 1.4282227 2.2305908 3.365326 2.2305908 5.385147l0 0c0 4.2060547 -3.409729 7.615738 -7.6157837 7.615738l0 0c-4.2060547 0 -7.6157227 -3.4096832 -7.6157227 -7.615738z" fill-rule="evenodd"/><path fill="#41d5ff" d="m99.53159 418.80753c5.1269226 5.4026794 8.705093 12.814545 10.196693 19.30655c3.2661514 13.743988 -6.1266785 33.633484 -19.020714 36.849213c-4.118019 1.0247498 -7.947342 -0.39944458 -10.515015 -3.105194c-2.6686935 -2.8122253 -3.97818 -6.998596 -2.845604 -11.293671c1.9756546 -7.4387207 -3.0623627 -15.589661 -6.9677887 -22.724731c-8.030941 -14.786255 0.7524185 -31.534637 18.81092 -25.80896c3.895462 1.2096863 7.3781586 3.6540833 10.341507 6.7767944z" fill-rule="evenodd"/><path fill="#73f7ff" d="m98.19307 421.03854c4.6295853 4.87854 7.8812485 11.553589 9.304367 17.384583c2.7663574 12.412079 -5.56575 30.383148 -17.130783 33.2493c-3.7408295 0.88635254 -7.208763 -0.42492676 -9.531975 -2.8730774c-2.398964 -2.527954 -3.5902557 -6.2862854 -2.6271744 -10.099762c1.7930832 -6.8263855 -2.655304 -14.0346985 -6.190155 -20.457855c-7.213623 -13.299774 0.7320404 -28.358551 16.95182 -23.30188c3.4648743 1.0950012 6.572418 3.304596 9.2239 6.098694z" fill-rule="evenodd"/><path fill="#ffffff" d="m97.97228 423.9234c2.920288 3.077362 5.196785 10.787598 6.2218094 13.367615c2.2226105 5.8006897 2.8689117 10.734314 2.7187042 16.557861c-0.047409058 1.8381348 -0.4000473 3.5134277 -1.4340515 4.947113c-1.53759 2.2970276 -4.5125885 2.673523 -6.1693726 0.9276123c-0.4100113 -0.43203735 -0.7310333 -0.9820862 -0.9370651 -1.6579895c-0.7216263 -2.0132751 -0.119140625 -4.378113 0.23664093 -6.5088806c0.0039901733 -0.15460205 0.087272644 -0.38446045 0.09126282 -0.5390625c0.9152527 -5.493805 0.2131424 -11.262665 -1.6364746 -16.529114c-0.7889557 -2.4018555 -7.064247 -11.696747 -1.5336685 -11.850586c0.8514328 -0.020355225 1.6640244 0.46539307 2.442215 1.2854309z" fill-rule="evenodd"/><path fill="#ffffff" d="m92.12361 417.76364c0.4650421 0.49005127 0.7011795 1.1640625 0.600441 1.9082947c-0.12690735 1.3012695 -1.3073959 2.27182 -2.5998077 2.1677551c-0.65171814 -0.013549805 -1.2095566 -0.28250122 -1.6081619 -0.70254517c-0.45674133 -0.48129272 -0.7017212 -1.1469116 -0.68727875 -1.8757935c0.19767761 -1.3684387 1.3781586 -2.3389893 2.670578 -2.2348938c0.667778 0.048187256 1.2339172 0.3258667 1.6242294 0.7371826z" fill-rule="evenodd"/><path fill="#41d5ff" d="m150.75807 415.0665c2.9872894 -0.2288208 5.9340515 0.13400269 8.528793 1.3452759c11.908478 5.4390564 8.724564 18.152344 -2.3655396 21.956665c-5.21257 1.9196167 -11.647186 3.7366638 -14.126785 8.512207c-1.3984222 2.718689 -3.9903717 4.26593 -6.636261 4.4685974c-2.5727234 0.197052 -5.1928406 -0.8651428 -6.840805 -3.3259888c-5.1679993 -7.5860596 -0.70321655 -22.150757 7.2783966 -27.789124c3.8078613 -2.645752 9.041138 -4.7753906 14.162201 -5.167633z" fill-rule="evenodd"/><path fill="#73f7ff" d="m150.34296 416.85168c2.6820679 -0.20544434 5.318939 0.11968994 7.6564026 1.1787109c10.649368 4.8720703 7.8132477 16.354492 -2.0973358 19.847137c-4.788803 1.6784058 -10.463776 3.3143616 -12.756271 7.645447c-1.2649536 2.376892 -3.6229858 3.7710571 -6.024658 3.955017c-2.3285217 0.17834473 -4.694168 -0.7681885 -6.1543884 -3.0221558c-4.674225 -6.7516785 -0.6577759 -19.954803 6.620102 -24.998718c3.4133606 -2.3453064 8.135666 -4.251526 12.756149 -4.605438z" fill-rule="evenodd"/><path fill="#ffffff" d="m150.98978 418.89566c0.7923889 -0.060668945 1.4411774 0.08493042 1.8778534 0.5031128c2.8244324 2.615448 -4.8049774 4.50589 -6.3677673 5.394562c-3.361969 1.8931274 -6.446869 4.5217896 -8.603867 7.7385254c0.008361816 0.10922241 -0.09298706 0.22683716 -0.19433594 0.3444519c-0.7744446 1.2555237 -1.5321655 2.7294617 -2.7872925 3.4725037c-0.4230652 0.23989868 -0.8423004 0.36965942 -1.2445831 0.40048218c-1.7066956 0.1307373 -3.1177673 -1.4822388 -2.8192444 -3.348236c0.12741089 -1.2181396 0.7113495 -2.2393494 1.5108948 -3.1672363c2.7139282 -3.1495361 5.2744293 -5.420685 9.173706 -7.342743c1.751236 -0.829895 6.516693 -3.7703857 9.454636 -3.9954224z" fill-rule="evenodd"/><path fill="#ffffff" d="m156.8803 418.45074c0.3973236 -0.030426025 0.81677246 0.07003784 1.1888733 0.34292603c0.6867676 0.5863037 0.87683105 1.6446228 0.2882843 2.3406677c-0.3179474 0.43423462 -0.7857666 0.6508789 -1.2432861 0.6859436c-0.3973236 0.030426025 -0.7926941 -0.071899414 -1.1120453 -0.2885437c-0.796051 -0.58999634 -0.8777466 -1.6566162 -0.28450012 -2.449463c0.2623291 -0.36968994 0.69311523 -0.59555054 1.162674 -0.63153076z" fill-rule="evenodd"/><path fill="#000000" fill-opacity="0.0" d="m105.71339 383.1874l0 0c0 -4.2060547 3.4096832 -7.615753 7.6157455 -7.615753l0 0c2.0198212 0 3.9569168 0.80236816 5.385147 2.2305908c1.4282303 1.4282532 2.230606 3.365326 2.230606 5.3851624l0 0c0 4.2060547 -3.4096909 7.615753 -7.615753 7.615753l0 0c-4.2060623 0 -7.6157455 -3.4096985 -7.6157455 -7.615753z" fill-rule="evenodd"/><path stroke="#41d5ff" stroke-width="2.0" stroke-linejoin="round" stroke-linecap="butt" d="m105.71339 383.1874l0 0c0 -4.2060547 3.4096832 -7.615753 7.6157455 -7.615753l0 0c2.0198212 0 3.9569168 0.80236816 5.385147 2.2305908c1.4282303 1.4282532 2.230606 3.365326 2.230606 5.3851624l0 0c0 4.2060547 -3.4096909 7.615753 -7.615753 7.615753l0 0c-4.2060623 0 -7.6157455 -3.4096985 -7.6157455 -7.615753z" fill-rule="evenodd"/><path fill="#41d5ff" d="m170.11653 478.67715l0 0c0 -2.5674744 2.0813446 -4.6488037 4.648819 -4.6488037l0 0c1.2329407 0 2.41539 0.4897766 3.2872162 1.3616028c0.8718262 0.8718262 1.3616028 2.0542603 1.3616028 3.287201l0 0c0 2.5674744 -2.0813446 4.648834 -4.648819 4.648834l0 0c-2.5674744 0 -4.648819 -2.0813599 -4.648819 -4.648834z" fill-rule="evenodd"/></g></svg>