<svg version="1.1" viewBox="0.0 0.0 960.0 540.0" fill="none" stroke="none" stroke-linecap="square" stroke-miterlimit="10" xmlns:xlink="http://www.w3.org/1999/xlink" xmlns="http://www.w3.org/2000/svg"><clipPath id="p5.0"><path d="m0 0l960.0 0l0 540.0l-960.0 0l0 -540.0z" clip-rule="nonzero"/></clipPath><g clip-path="url(#p5.0)"><path fill="#0060c1" d="m0 0l960.0 0l0 540.0l-960.0 0z" fill-rule="evenodd"/><path fill="#184eab" fill-opacity="0.49803922" d="m197.27972 -1.0204724c0.9855194 7.526462 1.5234222 15.143226 1.5234222 22.763914c0 23.568779 -4.841202 47.04726 -15.147888 68.554794c-26.883759 56.101006 -80.659134 90.87113 -132.63625 124.5655c-17.299526 11.201355 -34.86212 22.493011 -51.623737 34.770126l0 -3.2233734c16.310085 -11.829544 33.429 -22.854218 50.18669 -33.698288c54.13268 -35.037125 105.21457 -68.01692 131.74496 -123.48973c13.439926 -28.13884 17.476212 -59.595287 13.439926 -90.24294z" fill-rule="evenodd"/><path fill="#184eab" fill-opacity="0.49803922" d="m282.86362 -1.0204724c-12.7247925 20.614012 -23.565582 41.404716 -32.61267 62.376038c-37.895706 88.102325 -42.197495 182.74223 -11.7357025 259.7287c9.76535 24.913513 23.381119 48.664795 36.55336 71.60721c14.063202 24.469788 28.57779 49.7406 38.52368 76.53882c8.419098 22.40451 13.348877 45.888794 14.95813 69.72644l-2.5080872 0c-1.6994934 -23.480347 -6.5390015 -46.784027 -14.781464 -68.83118c-9.941986 -26.617615 -24.366302 -51.802032 -38.34314 -76.17761c-13.258606 -23.032745 -26.878296 -46.783997 -36.820267 -71.968445c-30.642334 -77.61076 -26.34056 -172.96922 11.8259735 -261.60947c8.866516 -20.700394 19.5307 -41.13379 31.980743 -61.39049z" fill-rule="evenodd"/><path fill="#184eab" fill-opacity="0.49803922" d="m99.18609 316.87952c15.501183 0 29.84803 5.759918 38.86683 16.043c8.87352 10.035675 12.187347 23.38913 15.414795 36.294983c3.137146 12.187347 6.274292 24.826202 14.068069 34.323975c8.068619 9.768738 19.53746 15.057495 31.638428 20.61325c6.7218933 3.0468445 13.530167 6.18396 19.804459 10.035706c18.46164 11.830017 30.919907 31.728668 35.042557 56.103333c0.9855194 5.7363586 1.4331207 11.649414 1.4331207 17.476105c0 10.66391 -1.5234222 21.241425 -4.660568 31.18686l-2.6895447 0c4.8411713 -15.324463 6.0936737 -31.99176 3.4080658 -48.305664c-3.9459686 -23.569763 -16.043015 -42.836273 -33.96675 -54.30902c-6.003372 -3.7614136 -12.815567 -6.8985596 -19.356842 -9.855072c-11.920364 -5.469391 -24.198029 -11.0251465 -32.533646 -21.331757c-8.2453 -9.949341 -11.472748 -22.851257 -14.605972 -35.30951c-3.2274475 -12.634918 -6.454895 -25.631073 -14.967194 -35.30948c-8.512306 -9.631287 -22.187744 -15.096741 -37.037148 -15.096741c-2.9722443 0 -5.9955215 0.21987915 -9.030579 0.66748047c-14.24868 2.0613098 -28.85466 8.692902 -45.97349 20.880219c-16.757612 11.920349 -31.815117 26.259308 -44.72099 42.211975l0 -4.2129517c12.725262 -15.234161 27.335165 -28.677917 43.287872 -40.060333c17.385826 -12.36795 32.353027 -19.176208 47.04931 -21.32785c3.1999664 -0.48294067 6.388153 -0.71850586 9.529221 -0.71850586z" fill-rule="evenodd"/><path fill="#184eab" fill-opacity="0.49803922" d="m795.8662 -1.0204724c1.7904663 8.964312 3.3139038 18.282013 4.6606445 27.874573c3.046875 23.209833 4.5703735 46.5139 4.5703735 69.90435c0 63.45697 -11.292358 126.91 -33.33911 186.60141c-19.537842 52.96521 -43.4693 86.753174 -75.37134 106.38199c-15.831238 9.72998 -35.475037 15.121155 -54.83618 15.121155c-25.584473 0 -50.685974 -9.404114 -65.88507 -30.627106c-9.231018 -12.99295 -13.710999 -28.679504 -18.014343 -43.82422c-3.9421387 -13.89212 -8.06488 -28.322174 -15.953003 -40.510193c-15.4151 -23.932312 -41.31366 -35.40178 -68.73959 -47.680084c-14.068329 -6.184326 -28.497864 -12.639572 -41.31366 -20.88533c-31.27774 -19.98613 -53.95276 -53.055527 -64.07895 -93.1181c-9.678589 -38.80609 -6.7220154 -79.76392 8.331848 -115.43662c2.0613403 -4.8375087 4.2130127 -9.411939 6.5453186 -13.801821l2.866272 0c-2.5089722 4.7511244 -4.841278 9.678944 -7.079315 14.787384c-9.230988 21.780571 -13.534332 45.171024 -13.534332 68.294464c0 55.2976 25.003357 109.34261 68.29199 137.12689c12.635162 8.155441 27.064728 14.516449 40.95633 20.70076c26.617126 11.830704 54.04309 24.109024 69.90576 48.665665c8.064819 12.458923 12.187561 27.06961 16.21997 41.13846c4.3033447 14.967987 8.693054 30.383636 17.747375 43.019257c14.649414 20.504456 38.918518 29.598328 63.701965 29.598328c18.882141 0 38.062622 -5.2772827 53.520874 -14.807007c31.368042 -19.271515 55.028564 -52.70215 74.38574 -105.04306c29.934937 -81.1971 39.88446 -169.4777 28.501831 -255.24925c-1.2564697 -9.769255 -2.8702393 -19.181192 -4.6606445 -28.231888z" fill-rule="evenodd"/><path fill="#184eab" fill-opacity="0.49803922" d="m423.18967 347.3803c39.43164 0 83.12683 17.042358 102.90939 33.503693c39.34137 32.62036 62.547302 87.013794 62.547302 144.811c0 4.3930664 -0.17663574 8.872559 -0.44750977 13.261719l-2.598938 0c3.8552246 -61.919434 -19.354675 -121.42047 -61.110474 -156.09799c-19.421387 -16.170807 -62.39026 -32.92267 -101.08386 -32.92267c-9.339691 0 -18.432068 0.9736328 -26.880585 3.1721497c-19.802185 5.107605 -33.06778 16.217896 -39.608307 32.883392c-2.1513977 5.7357483 -3.0465088 12.189941 -3.0465088 19.268341c0 23.476929 10.215179 52.689606 17.654755 73.65787c1.1659851 3.2270813 2.2377625 6.27359 3.1367798 9.053131c6.0026855 17.560577 13.081055 34.58722 21.32544 50.98578l-2.8659058 0c-7.977417 -16.127625 -14.965485 -32.973724 -20.881805 -50.18097c-0.8951111 -2.779541 -1.9707947 -5.82605 -3.1367798 -9.049194c-9.763702 -27.512756 -24.371948 -69.178406 -14.514038 -94.630066c6.811432 -17.564514 20.697296 -29.122375 41.217957 -34.49695c8.61731 -2.2299194 17.874573 -3.2192383 27.383087 -3.2192383z" fill-rule="evenodd"/><path fill="#184eab" fill-opacity="0.49803922" d="m919.9351 -1.0204724c9.677551 20.614012 13.890137 43.737045 13.890137 67.127075c0 30.740402 -7.2591553 61.928413 -18.821167 88.63633c-17.023071 39.16661 -42.294678 74.47743 -66.84778 108.62602c-13.799866 19.357544 -28.227844 39.433624 -40.8656 59.867004c-30.19867 48.931793 -61.11194 121.25751 -36.919983 188.74582c3.4077759 9.58847 7.706726 18.552643 12.814453 26.974945l-2.9562988 0c-4.836792 -8.155334 -8.959106 -16.848572 -12.27655 -26.169983c-24.5531 -68.37964 6.7212524 -141.51422 37.190857 -190.80725c12.724121 -20.614014 27.061829 -40.686157 40.951965 -60.047638c24.46283 -34.054337 49.644104 -69.27878 66.58081 -108.264786c20.250244 -46.69368 27.061829 -107.63655 4.479553 -154.68755z" fill-rule="evenodd"/><path fill="#184eab" fill-opacity="0.49803922" d="m959.3536 290.91415l0 3.493988c-9.939209 9.049042 -19.077942 18.906769 -26.957092 29.84021c-26.690247 36.918457 -38.065613 94.89502 -8.063599 134.14148c9.58606 12.546936 22.57019 21.866852 35.02069 28.94513l0 2.8658447c-13.074402 -7.1685486 -26.866882 -16.936005 -36.99048 -30.28775c-30.810364 -40.14154 -19.254517 -99.46469 7.9733276 -137.18793c8.416748 -11.73822 18.269592 -22.22409 29.01715 -31.810974z" fill-rule="evenodd"/><path fill="#184eab" fill-opacity="0.49803922" d="m725.90405 -1.0204724c0.71850586 6.5406547 0.8951416 13.085236 0.8951416 19.2647l0 1.2563095c-0.090270996 33.602318 -2.775879 67.475525 -7.974304 100.63422c-3.6749878 23.657852 -11.472595 56.545654 -37.28015 69.2697c-7.028076 3.4626923 -14.330994 4.938858 -21.590698 4.938858c-19.042542 0 -37.763123 -10.156464 -50.28412 -21.247314c-12.010498 -10.757141 -21.779114 -23.928741 -31.19049 -36.652786c-5.645996 -7.616379 -11.468689 -15.413338 -17.652588 -22.67244c-7.6170654 -8.872681 -16.133179 -17.113274 -24.378418 -25.18113c-12.81543 -12.366783 -25.988129 -25.18113 -35.937378 -40.233273c-8.69281 -12.994938 -15.771912 -31.545113 -15.862244 -49.37684l2.5089111 0c0.09030151 8.511488 1.7943115 17.293867 4.5741577 25.448092c2.775879 8.33482 6.6315002 16.131783 10.840485 22.49577c9.858917 14.875473 22.945282 27.599522 35.58011 39.87601c8.33551 8.063927 16.93805 16.398743 24.555054 25.267494c6.274231 7.3494034 12.10083 15.236664 17.746887 22.853027c9.407349 12.633759 19.085693 25.718994 30.91565 36.20131c12.933228 11.518784 31.182617 20.49353 48.870605 20.49353c6.9456177 0 13.808777 -1.3819427 20.228271 -4.542343c24.645325 -12.095886 32.26239 -44.26523 35.847107 -67.38522c5.1080933 -32.978096 7.7976074 -66.670715 7.974304 -100.18666c0 -6.540655 -0.17669678 -13.532796 -0.98553467 -20.52101z" fill-rule="evenodd"/><path fill="#184eab" d="m-17.19685 555.9685l0 -314.44794c4.2104425 1.1705627 8.26365 2.6468964 12.316856 4.35907c25.018072 10.832199 45.35399 32.112198 54.93668 57.672684c7.7919426 20.808289 9.276951 44.96231 24.240623 61.332886c16.833038 18.38852 44.34069 20.493805 68.65119 25.6391c47.930923 10.203217 92.03575 37.563232 122.5833 75.90393c20.729034 26.023468 35.142365 56.965088 41.999634 89.54028z" fill-rule="evenodd"/><path fill="#184eab" fill-opacity="0.49803922" d="m-17.2619 108.850395l0 -117.05197l448.19308 0c-8.738892 1.4121699 -17.488342 3.1088805 -26.142914 5.0795946c-0.9382019 0.1896944 -1.7815247 0.3793888 -2.7197266 0.5585444c-26.996765 6.1123743 -53.698395 14.206001 -80.220825 23.132175c-0.9382019 0.3793888 -1.8764038 0.6533909 -2.919983 1.0327797c-60.276337 20.497534 -119.99394 45.505577 -181.39821 62.430527c-30.749557 8.36763 -62.25811 14.754013 -94.13562 19.085365c-0.85386276 0.09484863 -1.6971817 0.27400208 -2.4456291 0.3688507c-11.289949 1.507019 -22.66423 2.7294922 -34.049053 3.667427c-7.9904594 0.6639252 -16.075792 1.2224731 -24.161125 1.6967087z" fill-rule="evenodd"/><path fill="#184eab" d="m950.33514 228.51024c-50.482544 0 -99.328064 -24.024002 -116.64227 -71.65904c-2.2859497 0.05899048 -4.55719 0.08848572 -6.828369 0.08848572c-61.54358 0 -122.93964 -22.210037 -170.00067 -61.792847c-34.598877 -29.08245 -61.307617 -67.10201 -77.23547 -109.20668l397.34174 0l0 240.37268c-3.6870117 0.64889526 -7.506775 1.1798096 -11.193787 1.4452667c-5.132324 0.50141907 -10.294128 0.75213623 -15.441162 0.75213623z" fill-rule="evenodd"/><path fill="#184eab" fill-opacity="0.49803922" d="m1092.1074 357.61252l45.30017 202.99423l-777.11816 173.42169c14.605804 -5.8304443 29.119751 -12.158386 43.36316 -18.924805c1.5533142 -0.69195557 2.9421082 -1.347229 4.4995117 -2.020996c44.44394 -21.046204 87.609375 -45.414185 130.14188 -71.15662c1.4798584 -1.020935 3.0005493 -1.8591309 4.663208 -2.9208984c96.579895 -58.8703 190.44537 -125.34668 290.3636 -178.4578c50.078064 -26.409424 102.23889 -49.676605 155.83472 -69.522675c1.4437866 -0.49487305 2.83667 -1.1318665 4.0977173 -1.585968c18.99231 -6.981964 38.241028 -13.503143 57.61798 -19.534912c13.597656 -4.2431946 27.400635 -8.340332 41.236206 -12.29126z" fill-rule="evenodd"/><path fill="#000000" fill-opacity="0.0" d="m264.0 133.53072l680.0882 0l0 272.95746l-680.0882 0z" fill-rule="evenodd"/><path fill="#73f7ff" d="m744.65497 205.2167l-11.671875 50.96875l-19.875 0l-5.90625 -28.9375l-5.890625 28.9375l-19.875 0l-11.671875 -50.96875l17.21875 0l4.59375 32.109375l6.921875 -32.109375l17.421875 0l6.90625 32.109375l4.609375 -32.109375l17.21875 0zm38.434387 43.265625l-16.984375 0l-2.515625 7.703125l-16.78125 0l18.640625 -50.96875l18.4375 0l18.578125 50.96875l-16.84375 0l-2.53125 -7.703125zm-3.875 -12.03125l-4.609375 -14.171875l-4.609375 14.171875l9.21875 0zm66.874756 -31.234375l0 12.671875l-13.53125 0l0 38.296875l-15.984375 0l0 -38.296875l-13.390625 0l0 -12.671875l42.90625 0zm20.305176 12.734375l0 6.265625l15.84375 0l0 12.03125l-15.84375 0l0 7.1875l18.0 0l0 12.75l-33.984375 0l0 -50.96875l33.984375 0l0 12.734375l-18.0 0zm49.688232 38.234375l-9.578125 -18.28125l-0.078125 0l0 18.28125l-15.984375 0l0 -50.96875l23.765625 0q6.1875 0 10.578125 2.203125q4.40625 2.1875 6.59375 5.96875q2.203125 3.765625 2.203125 8.53125q0 5.109375 -2.84375 9.078125q-2.84375 3.953125 -8.171875 5.671875l11.078125 19.515625l-17.5625 0zm-9.65625 -28.9375l6.34375 0q2.296875 0 3.453125 -1.046875q1.15625 -1.046875 1.15625 -3.28125q0 -2.015625 -1.1875 -3.15625q-1.1875 -1.15625 -3.421875 -1.15625l-6.34375 0l0 8.640625z" fill-rule="nonzero"/><path fill="#ffffff" d="m460.88928 317.6023l-16.984375 0l-2.515625 7.703125l-16.78125 0l18.640625 -50.96875l18.4375 0l18.578125 50.96875l-16.84375 0l-2.53125 -7.703125zm-3.875 -12.03125l-4.609375 -14.171875l-4.609375 14.171875l9.21875 0zm78.187256 -31.234375l-17.140625 50.96875l-20.65625 0l-17.140625 -50.96875l16.984375 0l10.515625 35.0625l10.4375 -35.0625l17.0 0zm36.279785 43.265625l-16.984375 0l-2.515625 7.703125l-16.78125 0l18.640625 -50.96875l18.4375 0l18.578125 50.96875l-16.84375 0l-2.53125 -7.703125zm-3.875 -12.03125l-4.609375 -14.171875l-4.609375 14.171875l9.21875 0zm42.82788 -31.234375l0 50.96875l-15.984375 0l0 -50.96875l15.984375 0zm23.184021 38.875l15.40625 0l0 12.09375l-31.390625 0l0 -50.96875l15.984375 0l0 38.875zm53.13513 4.390625l-16.984375 0l-2.515625 7.703125l-16.78125 0l18.640625 -50.96875l18.4375 0l18.578125 50.96875l-16.84375 0l-2.53125 -7.703125zm-3.875 -12.03125l-4.609375 -14.171875l-4.609375 14.171875l9.21875 0zm60.98413 -6.40625q4.609375 1.078125 7.15625 4.4375q2.5625 3.34375 2.5625 7.734375q0 6.703125 -4.4375 10.34375q-4.421875 3.625 -12.703125 3.625l-26.71875 0l0 -50.96875l26.0 0q7.78125 0 12.234375 3.390625q4.46875 3.375 4.46875 9.84375q0 4.46875 -2.34375 7.53125q-2.34375 3.0625 -6.21875 4.0625zm-18.15625 -4.96875l6.203125 0q2.15625 0 3.203125 -0.859375q1.046875 -0.859375 1.046875 -2.65625q0 -1.875 -1.046875 -2.765625q-1.046875 -0.90625 -3.203125 -0.90625l-6.203125 0l0 7.1875zm7.28125 18.296875q2.15625 0 3.203125 -0.828125q1.046875 -0.828125 1.046875 -2.703125q0 -3.671875 -4.25 -3.671875l-7.28125 0l0 7.203125l7.28125 0zm41.966736 -38.15625l0 50.96875l-15.984375 0l0 -50.96875l15.984375 0zm23.184021 38.875l15.40625 0l0 12.09375l-31.390625 0l0 -50.96875l15.984375 0l0 38.875zm36.432007 -38.875l0 50.96875l-15.984375 0l0 -50.96875l15.984375 0zm47.230896 0l0 12.671875l-13.53125 0l0 38.296875l-15.984375 0l0 -38.296875l-13.390625 0l0 -12.671875l42.90625 0zm53.28955 0l-18.296875 35.484375l0 15.484375l-15.984375 0l0 -15.484375l-18.28125 -35.484375l18.28125 0l8.140625 18.0625l8.140625 -18.0625l18.0 0z" fill-rule="nonzero"/><path fill="#f29e79" d="m265.81592 191.34035l0 0c16.50821 24.212463 -10.22522 40.88246 -10.22522 40.88246l70.20059 -10.016724l71.22604 24.425354c-4.144745 9.906647 -12.771362 14.108032 -22.265991 15.369843c-18.051086 2.3988953 -39.325928 -5.8098145 -39.325928 -5.8098145l-54.821045 4.0395813l56.376923 7.6679993l21.27835 22.891174c0.7689514 0.75701904 1.4077148 1.684082 1.8576965 2.48349c7.837799 11.560089 0.08590698 26.223053 0.08590698 26.223053c9.549957 20.707489 -10.560181 34.6261 -10.560181 34.6261l12.67981 14.658966c-1.6048584 5.5976562 -6.8022156 8.445923 -13.519775 9.338654c-11.314758 1.5036926 -27.011353 -2.5202332 -37.27594 -8.201599c-5.0422363 -2.8813171 -14.317352 -2.9852295 -25.087952 -1.5538635c-23.905487 3.1769104 -55.183197 13.959045 -63.571228 18.949768c-2.2483978 1.329834 -5.5898438 2.1939697 -9.567841 2.7226257c-17.825912 2.368988 -48.2563 -2.0262756 -48.2563 -2.0262756l-217.27989 66.01242l-20.777138 -117.833435c0 0 174.12315 -28.085419 179.82208 -36.4993c5.8689957 -8.283691 49.052803 -70.57762 49.052803 -70.57762l109.95422 -37.772858z" fill-rule="evenodd"/><path fill="#73f7ff" d="m158.79684 160.74678l112.06024 -14.20488l4.2063293 -0.387146l17.579803 -2.3362885l27.490936 -3.3287964l21.425964 -2.8474274l-3.886383 259.10242c-5.3327637 2.2554016 -11.3246765 4.579315 -18.353333 6.7164c-0.14892578 0.17254639 -0.31777954 0.1949768 -0.4866333 0.21740723c-8.188232 2.4630432 -17.245667 4.8506165 -27.407196 6.5447693c-1.8386841 0.24435425 -3.8237305 0.6800232 -5.662384 0.9243469l-1.6885681 0.22442627c-2.1763916 0.2892151 -4.2063293 0.387146 -6.2138367 0.65393066l-0.33773804 0.04486084c-1.3320618 0.17703247 -2.5177612 0.16275024 -3.8685913 0.34228516c-17.374268 1.2969055 -32.3349 0.21081543 -43.768326 -1.3440552c-23.700119 -83.3703 -47.406418 -166.9307 -71.09029 -250.32225z" fill-rule="evenodd"/><path fill="#41d5ff" d="m169.78085 172.57152l164.51733 -20.679794l-1.5177612 91.16576l-2.076294 141.99196c-11.453003 4.7680664 -27.280243 10.098328 -46.827484 12.86792c-0.4878235 0.064819336 -0.97317505 0.14840698 -1.4609985 0.21322632c-19.607208 2.605713 -36.42354 1.4990845 -48.79059 -0.17974854c-8.009125 -28.225891 -15.998291 -56.301697 -23.984955 -84.358734c-0.36834717 -1.4785767 -0.7391815 -2.975891 -1.2763977 -4.4320374c-2.5564575 -9.035431 -4.960327 -18.072052 -7.5167847 -27.107483c-10.453369 -36.417023 -20.78157 -73.04161 -31.06607 -109.481064z" fill-rule="evenodd"/><path fill="#0060c1" d="m227.8769 270.4271c9.998886 -1.3287964 17.180786 0.99746704 26.871964 2.0937805c3.4700623 0.39715576 7.2366333 0.58325195 11.844879 0.63842773c-11.754547 10.240723 -22.507996 21.55008 -36.186752 28.803955c-0.33766174 0.044891357 -0.48408508 0.23599243 -0.6529236 0.25845337c-0.31526184 0.21356201 -0.6529236 0.25842285 -0.9681854 0.47198486c-0.29649353 0.21105957 -0.63417053 0.25595093 -0.9494324 0.46951294l-0.1688385 0.02243042c-0.48408508 0.23599243 -1.1395111 0.4756775 -1.7512665 0.9003296c-0.8217621 0.28085327 -1.6247711 0.5592346 -2.424118 1.0087891c-0.5065155 0.06732178 -0.9906006 0.3033142 -1.6247711 0.55926514c-4.22023 1.5717773 -8.84288 2.7010803 -13.510376 3.493042c-2.5549316 -9.025726 -4.957306 -18.052643 -7.5122375 -27.07837c5.240799 -4.091614 13.727493 -9.472931 24.900925 -11.301147c0.7266388 -0.13470459 1.437027 -0.24819946 2.131134 -0.3404541z" fill-rule="evenodd"/><path fill="#3fd5fe" d="m326.20743 243.72243c2.195221 -0.2917328 4.3979187 -0.52719116 6.5942993 -0.6663513l-2.079071 141.9677c-11.45282 4.767456 -27.279785 10.097107 -46.8266 12.866608c-0.487854 0.06484985 -0.97317505 0.1484375 -1.4609985 0.21325684c-19.606781 2.6056519 -36.4227 1.4995422 -48.78943 -0.17877197c-8.008362 -28.220886 -15.996765 -56.291718 -23.982697 -84.34378c-0.3683014 -1.478302 -0.7391052 -2.9754028 -1.2762756 -4.431244c7.6889496 -1.1936646 15.182114 -3.7167358 22.052841 -7.187958c18.907272 -10.168091 32.579758 -27.830414 50.158554 -40.380096c0.3152771 -0.2137146 0.6081238 -0.59625244 1.0735168 -0.82992554c13.170807 -9.081192 28.606537 -14.912491 44.53586 -17.029434z" fill-rule="evenodd"/><path fill="#10b2fd" d="m326.20743 243.72243c2.195221 -0.2917328 4.3979187 -0.52719116 6.5942993 -0.6663513l-2.079071 141.9677c-11.45282 4.767456 -27.279785 10.097107 -46.8266 12.866608c-0.487854 0.06484985 -0.97317505 0.1484375 -1.4609985 0.21325684c-19.606781 2.6056519 -36.4227 1.4995422 -48.78943 -0.17877197c-8.008362 -28.220886 -15.996765 -56.291718 -23.982697 -84.34378c-0.3683014 -1.478302 -0.7391052 -2.9754028 -1.2762756 -4.431244c7.6889496 -1.1936646 15.182114 -3.7167358 22.052841 -7.187958c18.907272 -10.168091 32.579758 -27.830414 50.158554 -40.380096c0.3152771 -0.2137146 0.6081238 -0.59625244 1.0735168 -0.82992554c13.170807 -9.081192 28.606537 -14.912491 44.53586 -17.029434z" fill-rule="evenodd"/><path fill="#ffffff" fill-opacity="0.44705883" d="m292.73944 143.84625l27.472992 -3.326416l-1.276886 263.18735c-8.182739 2.4623108 -17.234161 4.849121 -27.389038 6.5423584l1.1929321 -266.4033z" fill-rule="evenodd"/><path fill="#ffffff" fill-opacity="0.44705883" d="m285.293 144.79036l-1.157135 266.55103c-2.1739807 0.2889099 -4.2017517 0.38656616 -6.207062 0.65304565l1.179596 -266.3822z" fill-rule="evenodd"/><path fill="#f29e79" d="m265.7751 191.34613l0 0c16.506226 24.210602 -10.223633 40.879074 -10.223633 40.879074c0 0 -16.865158 21.505127 -55.19525 26.599014c-2.1388245 0.28424072 -4.3226624 0.5171814 -6.591522 0.6850586l0 0c0 0 7.8780823 37.442474 -29.649857 61.502686l-57.32551 -21.325134c5.8681793 -8.28302 49.046013 -70.57161 49.046013 -70.57161l109.93976 -37.76909z" fill-rule="evenodd"/><path fill="#f29e79" d="m349.22815 293.23038c3.720642 -0.15084839 7.4799805 -0.15411377 10.907928 0.077545166c7.8341064 11.557892 0.087005615 26.217285 0.087005615 26.217285c9.545685 20.703308 -10.553009 34.61801 -10.553009 34.61801c-10.771118 4.8293457 -21.73346 9.512299 -32.65213 14.380341c-10.335388 -12.428101 2.0082703 -32.279816 2.0082703 -32.279816l-1.7598572 -4.1948547c-7.3677063 -27.292267 31.961792 -38.818512 31.961792 -38.818512z" fill-rule="evenodd"/><path fill="#e66239" d="m348.8537 292.21854c0.5063782 -0.06729126 1.0575562 0.20275879 1.3160095 0.855011c0.06726074 0.5060425 -0.2055664 1.0381775 -0.8583069 1.2965698c-0.33755493 0.04486084 -38.145355 11.535004 -31.130157 37.323486l1.4148865 3.0352478l40.080597 -16.21701c0.11004639 -0.033721924 0.22006226 -0.06741333 0.33258057 -0.08236694c0.48760986 -0.06478882 0.9025574 0.18521118 1.088623 0.58010864c0.23602295 0.48358154 -0.011871338 1.2031555 -0.66708374 1.44281l-41.029724 16.686462l-0.31881714 0.0423584c-0.33758545 0.04486084 -0.8663635 -0.056518555 -1.0999146 -0.5213623l-1.7630005 -4.362213c-7.641693 -27.917664 32.15036 -39.84314 32.634308 -40.0791z" fill-rule="evenodd"/><path fill="#e66239" d="m318.8465 335.2082c0.22506714 -0.029907227 0.4413452 0.01763916 0.6113281 0.14764404c0.55126953 0.27008057 0.6409302 0.94485474 0.3680725 1.4770508c-0.1463623 0.19113159 -11.466644 18.70993 -2.5940857 30.463287l32.02365 -14.117279c0.07003784 -0.047454834 0.16381836 -0.059936523 0.25759888 -0.072387695c0.39389038 -0.052337646 0.8088684 0.19769287 0.9949646 0.59259033c0.25601196 0.63360596 -0.014373779 1.1845398 -0.49835205 1.4205322l-32.657715 14.373199l-0.31884766 0.042388916c-0.33761597 0.04486084 -0.69766235 -0.078948975 -0.88638306 -0.20648193c-10.73999 -12.8785095 1.4386597 -32.69403 2.0018005 -33.627228c0.15020752 -0.3060608 0.41662598 -0.4559021 0.6979675 -0.49331665z" fill-rule="evenodd"/><path fill="#e66239" d="m255.3931 231.16837c0.30015564 -0.039901733 0.59651184 0.035247803 0.8215027 0.29164124c0.40496826 0.4615326 0.49468994 1.1367493 0.030548096 1.5229187c-0.2614441 0.18743896 -19.832413 20.424805 -47.859756 24.14952c-3.8645477 0.5135803 -7.884033 0.7232666 -12.035889 0.51153564c-0.58732605 7.216614 -4.2942047 48.421997 -32.255585 63.704712l-0.31892395 0.042388916c-0.5065155 0.06732178 -0.8666229 -0.056610107 -1.102768 -0.5405884c-0.23364258 -0.46520996 -0.13209534 -0.9940491 0.32955933 -1.3989563c29.544937 -16.008514 31.228241 -62.384796 31.16095 -62.891205c0.10769653 -0.33880615 0.2541046 -0.5300293 0.4005127 -0.72128296c0.11387634 -0.14874268 0.28651428 -0.2862091 0.51164246 -0.31611633c0.09379578 -0.012466431 0.20884705 -0.008666992 0.31011963 0.035125732c4.3494263 0.2618103 8.56398 0.083465576 12.578613 -0.45007324c27.314468 -3.629959 46.46747 -23.277344 46.727737 -23.617325c0.20518494 -0.17996216 0.45785522 -0.28988647 0.70173645 -0.32229614z" fill-rule="evenodd"/><path fill="#ffffff" fill-opacity="0.44705883" d="m265.83002 188.49612c1.1625671 -0.15449524 1.9824829 -0.015457153 2.4835205 0.45211792c4.017151 3.3769684 -0.33892822 19.274872 -11.225525 25.662659c-2.4031525 1.444931 -5.9137726 2.8844147 -9.420197 3.3504028c-3.431427 0.4560089 -6.853668 -0.023971558 -9.192535 -2.4030304c-3.1534271 -3.3391418 -2.95932 -9.488724 -0.76623535 -13.519302c1.2335205 -2.2052002 3.0629883 -3.8028107 11.76712 -7.5158997c8.1927185 -3.39711 13.409973 -5.6357117 16.353851 -6.026947z" fill-rule="evenodd"/><path fill="#73f7ff" d="m248.73602 135.00975c50.549103 -6.717743 92.537384 -6.154999 93.51395 1.1934357c0.9989929 7.5171356 -39.384888 19.02678 -89.93402 25.744537c-50.717987 6.740204 -92.537384 6.154999 -93.53638 -1.3621368c-0.9765625 -7.348419 39.23845 -18.835632 89.95645 -25.575836z" fill-rule="evenodd"/><path fill="#41d5ff" d="m248.99774 136.3386c45.513275 -6.0485077 83.24283 -5.44487 84.111206 1.0892944c0.8908081 6.7031555 -35.37152 17.14 -80.88478 23.188507c-45.700882 6.0734406 -83.24283 5.44487 -84.13365 -1.2582855c-0.8683624 -6.5341644 35.20636 -16.946075 80.90723 -23.019516z" fill-rule="evenodd"/><path fill="#ffffff" fill-opacity="0.44705883" d="m329.5101 315.13797c3.296997 -0.43814087 6.6274414 -0.19445801 8.664795 1.3649292c2.461792 1.8842163 1.6575317 4.869751 1.2861938 5.948517c-1.5409241 5.618927 -9.299316 13.512939 -16.979828 14.53363c-0.26226807 0.034851074 -0.52700806 0.050964355 -0.81048584 0.06958008c-6.2266846 0.484375 -10.225861 -4.074188 -9.034821 -9.170013c0.96588135 -4.208008 6.0382996 -9.648041 13.036285 -11.93158c1.2301941 -0.35412598 2.5265808 -0.6407776 3.83786 -0.8150635z" fill-rule="evenodd"/><path fill="#ffffff" fill-opacity="0.44705883" d="m324.78897 345.68304c0.9559326 -0.12704468 1.9217834 -0.17938232 2.9138184 -0.17816162c4.4155884 -0.07354736 9.726837 1.4256287 11.814545 4.3606873c1.8768005 2.639923 0.20388794 5.409424 -0.48928833 6.5090027c-2.514923 4.0409546 -9.426941 8.438141 -16.005981 9.3124695c-1.8743591 0.24911499 -3.708496 0.22671509 -5.4236145 -0.19165039c-6.158325 -1.5576782 -8.623352 -7.3319397 -6.031555 -12.086426c1.9022217 -3.4842834 7.017914 -6.901428 13.222076 -7.7259216z" fill-rule="evenodd"/><path fill="#000000" fill-opacity="0.0" d="m74.872444 100.100784l0 0c0 -4.2060547 3.4096832 -7.6157455 7.6157455 -7.6157455l0 0c2.0198212 0 3.9569168 0.80236816 5.385147 2.2305984c1.4282303 1.4282303 2.2305984 3.365326 2.2305984 5.385147l0 0c0 4.2060623 -3.4096832 7.615753 -7.6157455 7.615753l0 0c-4.2060623 0 -7.6157455 -3.4096909 -7.6157455 -7.615753z" fill-rule="evenodd"/><path stroke="#41d5ff" stroke-width="2.0" stroke-linejoin="round" stroke-linecap="butt" d="m74.872444 100.100784l0 0c0 -4.2060547 3.4096832 -7.6157455 7.6157455 -7.6157455l0 0c2.0198212 0 3.9569168 0.80236816 5.385147 2.2305984c1.4282303 1.4282303 2.2305984 3.365326 2.2305984 5.385147l0 0c0 4.2060623 -3.4096832 7.615753 -7.6157455 7.615753l0 0c-4.2060623 0 -7.6157455 -3.4096909 -7.6157455 -7.615753z" fill-rule="evenodd"/><path fill="#41d5ff" d="m105.826775 205.87086l0 0c0 -2.5674744 2.0813446 -4.648819 4.648819 -4.648819l0 0c1.2329407 0 2.4153824 0.48979187 3.2872086 1.3616028c0.8718262 0.8718262 1.3616104 2.0542755 1.3616104 3.2872162l0 0c0 2.5674744 -2.0813522 4.648819 -4.648819 4.648819l0 0c-2.5674744 0 -4.648819 -2.0813446 -4.648819 -4.648819z" fill-rule="evenodd"/><path fill="#000000" fill-opacity="0.0" d="m140.84944 469.83875l0 0c-2.2053223 -7.803833 2.3331757 -15.917847 10.136993 -18.123169l0 0c3.7475433 -1.059021 7.7622833 -0.585968 11.161041 1.3150635c3.3987427 1.901062 5.9031067 5.074402 6.962143 8.82193l0 0c2.2053223 7.803833 -2.3331757 15.917877 -10.137009 18.1232l0 0c-7.803833 2.2053223 -15.917847 -2.333191 -18.123169 -10.137024z" fill-rule="evenodd"/><path stroke="#41d5ff" stroke-width="2.0" stroke-linejoin="round" stroke-linecap="butt" d="m140.84944 469.83875l0 0c-2.2053223 -7.803833 2.3331757 -15.917847 10.136993 -18.123169l0 0c3.7475433 -1.059021 7.7622833 -0.585968 11.161041 1.3150635c3.3987427 1.901062 5.9031067 5.074402 6.962143 8.82193l0 0c2.2053223 7.803833 -2.3331757 15.917877 -10.137009 18.1232l0 0c-7.803833 2.2053223 -15.917847 -2.333191 -18.123169 -10.137024z" fill-rule="evenodd"/><path fill="#41d5ff" d="m201.1101 486.4875l0 0c0.32044983 2.5473938 -1.4848328 4.8722534 -4.0322266 5.192688l0 0c-1.2233124 0.15390015 -2.4576416 -0.18447876 -3.4314575 -0.9406738c-0.9738159 -0.75619507 -1.6073608 -1.8682556 -1.7612457 -3.0915527l0 0c-0.3204651 -2.5473938 1.4848328 -4.8722534 4.0322266 -5.192688l0 0c2.5473938 -0.3204651 4.872238 1.4848328 5.1927032 4.0322266z" fill-rule="evenodd"/><path fill="#41d5ff" d="m880.4409 76.91338l0 0c0 -2.5674667 2.0813599 -4.648819 4.6488647 -4.648819l0 0c1.2329102 0 2.4153442 0.48978424 3.2871704 1.3616104c0.8718262 0.87181854 1.3616333 2.054268 1.3616333 3.2872086l0 0c0 2.5674744 -2.0813599 4.648819 -4.6488037 4.648819l0 0c-2.567505 0 -4.6488647 -2.0813446 -4.6488647 -4.648819z" fill-rule="evenodd"/><path fill="#000000" fill-opacity="0.0" d="m811.6157 56.63622l0 0c0 -4.2060585 3.409729 -7.6157455 7.6157837 -7.6157455l0 0c2.0198364 0 3.9569092 0.802372 5.385132 2.2305984c1.4282227 1.4282303 2.2305908 3.365326 2.2305908 5.385147l0 0c0 4.2060623 -3.409668 7.6157494 -7.6157227 7.6157494l0 0c-4.2060547 0 -7.6157837 -3.409687 -7.6157837 -7.6157494z" fill-rule="evenodd"/><path stroke="#41d5ff" stroke-width="2.0" stroke-linejoin="round" stroke-linecap="butt" d="m811.6157 56.63622l0 0c0 -4.2060585 3.409729 -7.6157455 7.6157837 -7.6157455l0 0c2.0198364 0 3.9569092 0.802372 5.385132 2.2305984c1.4282227 1.4282303 2.2305908 3.365326 2.2305908 5.385147l0 0c0 4.2060623 -3.409668 7.6157494 -7.6157227 7.6157494l0 0c-4.2060547 0 -7.6157837 -3.409687 -7.6157837 -7.6157494z" fill-rule="evenodd"/><path fill="#41d5ff" d="m148.4683 91.25146l-2.31398 0.24595642l1.578949 16.20546l2.3139648 -0.24595642l-1.5789337 -16.20546z" fill-rule="evenodd"/><path fill="#41d5ff" d="m135.74861 87.45827l-10.330261 12.547478l1.8261948 1.4609146l10.330254 -12.547478l-1.8261871 -1.4609146z" fill-rule="evenodd"/><path fill="#41d5ff" d="m131.35756 77.21575l-16.195358 1.4564362l0.24559784 2.43647l16.19535 -1.5789413l-0.24559021 -2.3139648z" fill-rule="evenodd"/><path fill="#41d5ff" d="m122.94336 56.46614l-1.5827332 1.7035408l12.5390625 10.466541l1.5827332 -1.8261948l-12.5390625 -10.343887z" fill-rule="evenodd"/><path fill="#41d5ff" d="m144.19743 46.07244l-2.3139648 0.24559021l1.4564362 16.195354l2.4364777 -0.24559021l-1.578949 -16.195354z" fill-rule="evenodd"/><path fill="#41d5ff" d="m164.68616 52.422047l-10.330246 12.547482l1.8261871 1.4609146l10.330261 -12.547482l-1.8262024 -1.4609146z" fill-rule="evenodd"/><path fill="#41d5ff" d="m176.52292 72.80727l-16.195358 1.5734406l0.24559021 2.2923431l16.195358 -1.5734406l-0.24559021 -2.2923431z" fill-rule="evenodd"/><path fill="#41d5ff" d="m157.87042 85.27977l-1.4599304 1.8261948l12.5390625 10.330254l1.5827332 -1.8261948l-12.661865 -10.330254z" fill-rule="evenodd"/><path fill="#41d5ff" d="m431.01733 483.36377l0 0c0 -2.5674744 2.0813293 -4.6488037 4.6488037 -4.6488037l0 0c1.2329407 0 2.4154053 0.4897766 3.287201 1.3616028c0.8718262 0.8718262 1.3616333 2.0542603 1.3616333 3.287201l0 0c0 2.5674744 -2.0813599 4.648834 -4.648834 4.648834l0 0c-2.5674744 0 -4.6488037 -2.0813599 -4.6488037 -4.648834z" fill-rule="evenodd"/><path fill="#000000" fill-opacity="0.0" d="m486.77072 461.33966l0 0c1.8681946 -3.7800293 0.32595825 -8.355072 -3.4447327 -10.218658l0 0c-1.81073 -0.894928 -3.903717 -1.0321045 -5.8184814 -0.38134766c-1.9147644 0.65075684 -3.4944763 2.0361328 -4.3916016 3.8513794l0 0c-1.8682251 3.7800293 -0.32595825 8.355103 3.4447021 10.218689l0 0c3.770691 1.8635864 8.341919 0.30999756 10.210114 -3.4700623z" fill-rule="evenodd"/><path stroke="#41d5ff" stroke-width="2.0" stroke-linejoin="round" stroke-linecap="butt" d="m486.77072 461.33966l0 0c1.8681946 -3.7800293 0.32595825 -8.355072 -3.4447327 -10.218658l0 0c-1.81073 -0.894928 -3.903717 -1.0321045 -5.8184814 -0.38134766c-1.9147644 0.65075684 -3.4944763 2.0361328 -4.3916016 3.8513794l0 0c-1.8682251 3.7800293 -0.32595825 8.355103 3.4447021 10.218689l0 0c3.770691 1.8635864 8.341919 0.30999756 10.210114 -3.4700623z" fill-rule="evenodd"/></g></svg>