<svg version="1.1" viewBox="0.0 0.0 960.0 540.0" fill="none" stroke="none" stroke-linecap="square" stroke-miterlimit="10" xmlns:xlink="http://www.w3.org/1999/xlink" xmlns="http://www.w3.org/2000/svg"><clipPath id="p9.0"><path d="m0 0l960.0 0l0 540.0l-960.0 0l0 -540.0z" clip-rule="nonzero"/></clipPath><g clip-path="url(#p9.0)"><path fill="#0060c1" d="m0 0l960.0 0l0 540.0l-960.0 0z" fill-rule="evenodd"/><path fill="#184eab" fill-opacity="0.49803922" d="m197.27972 -1.0204724c0.9855194 7.526462 1.5234222 15.143226 1.5234222 22.763914c0 23.568779 -4.841202 47.04726 -15.147888 68.554794c-26.883759 56.101006 -80.659134 90.87113 -132.63625 124.5655c-17.299526 11.201355 -34.86212 22.493011 -51.623737 34.770126l0 -3.2233734c16.310085 -11.829544 33.429 -22.854218 50.18669 -33.698288c54.13268 -35.037125 105.21457 -68.01692 131.74496 -123.48973c13.439926 -28.13884 17.476212 -59.595287 13.439926 -90.24294z" fill-rule="evenodd"/><path fill="#184eab" fill-opacity="0.49803922" d="m282.86362 -1.0204724c-12.7247925 20.614012 -23.565582 41.404716 -32.61267 62.376038c-37.895706 88.102325 -42.197495 182.74223 -11.7357025 259.7287c9.76535 24.913513 23.381119 48.664795 36.55336 71.60721c14.063202 24.469788 28.57779 49.7406 38.52368 76.53882c8.419098 22.40451 13.348877 45.888794 14.95813 69.72644l-2.5080872 0c-1.6994934 -23.480347 -6.5390015 -46.784027 -14.781464 -68.83118c-9.941986 -26.617615 -24.366302 -51.802032 -38.34314 -76.17761c-13.258606 -23.032745 -26.878296 -46.783997 -36.820267 -71.968445c-30.642334 -77.61076 -26.34056 -172.96922 11.8259735 -261.60947c8.866516 -20.700394 19.5307 -41.13379 31.980743 -61.39049z" fill-rule="evenodd"/><path fill="#184eab" fill-opacity="0.49803922" d="m99.18609 316.87952c15.501183 0 29.84803 5.759918 38.86683 16.043c8.87352 10.035675 12.187347 23.38913 15.414795 36.294983c3.137146 12.187347 6.274292 24.826202 14.068069 34.323975c8.068619 9.768738 19.53746 15.057495 31.638428 20.61325c6.7218933 3.0468445 13.530167 6.18396 19.804459 10.035706c18.46164 11.830017 30.919907 31.728668 35.042557 56.103333c0.9855194 5.7363586 1.4331207 11.649414 1.4331207 17.476105c0 10.66391 -1.5234222 21.241425 -4.660568 31.18686l-2.6895447 0c4.8411713 -15.324463 6.0936737 -31.99176 3.4080658 -48.305664c-3.9459686 -23.569763 -16.043015 -42.836273 -33.96675 -54.30902c-6.003372 -3.7614136 -12.815567 -6.8985596 -19.356842 -9.855072c-11.920364 -5.469391 -24.198029 -11.0251465 -32.533646 -21.331757c-8.2453 -9.949341 -11.472748 -22.851257 -14.605972 -35.30951c-3.2274475 -12.634918 -6.454895 -25.631073 -14.967194 -35.30948c-8.512306 -9.631287 -22.187744 -15.096741 -37.037148 -15.096741c-2.9722443 0 -5.9955215 0.21987915 -9.030579 0.66748047c-14.24868 2.0613098 -28.85466 8.692902 -45.97349 20.880219c-16.757612 11.920349 -31.815117 26.259308 -44.72099 42.211975l0 -4.2129517c12.725262 -15.234161 27.335165 -28.677917 43.287872 -40.060333c17.385826 -12.36795 32.353027 -19.176208 47.04931 -21.32785c3.1999664 -0.48294067 6.388153 -0.71850586 9.529221 -0.71850586z" fill-rule="evenodd"/><path fill="#184eab" fill-opacity="0.49803922" d="m795.8662 -1.0204724c1.7904663 8.964312 3.3139038 18.282013 4.6606445 27.874573c3.046875 23.209833 4.5703735 46.5139 4.5703735 69.90435c0 63.45697 -11.292358 126.91 -33.33911 186.60141c-19.537842 52.96521 -43.4693 86.753174 -75.37134 106.38199c-15.831238 9.72998 -35.475037 15.121155 -54.83618 15.121155c-25.584473 0 -50.685974 -9.404114 -65.88507 -30.627106c-9.231018 -12.99295 -13.710999 -28.679504 -18.014343 -43.82422c-3.9421387 -13.89212 -8.06488 -28.322174 -15.953003 -40.510193c-15.4151 -23.932312 -41.31366 -35.40178 -68.73959 -47.680084c-14.068329 -6.184326 -28.497864 -12.639572 -41.31366 -20.88533c-31.27774 -19.98613 -53.95276 -53.055527 -64.07895 -93.1181c-9.678589 -38.80609 -6.7220154 -79.76392 8.331848 -115.43662c2.0613403 -4.8375087 4.2130127 -9.411939 6.5453186 -13.801821l2.866272 0c-2.5089722 4.7511244 -4.841278 9.678944 -7.079315 14.787384c-9.230988 21.780571 -13.534332 45.171024 -13.534332 68.294464c0 55.2976 25.003357 109.34261 68.29199 137.12689c12.635162 8.155441 27.064728 14.516449 40.95633 20.70076c26.617126 11.830704 54.04309 24.109024 69.90576 48.665665c8.064819 12.458923 12.187561 27.06961 16.21997 41.13846c4.3033447 14.967987 8.693054 30.383636 17.747375 43.019257c14.649414 20.504456 38.918518 29.598328 63.701965 29.598328c18.882141 0 38.062622 -5.2772827 53.520874 -14.807007c31.368042 -19.271515 55.028564 -52.70215 74.38574 -105.04306c29.934937 -81.1971 39.88446 -169.4777 28.501831 -255.24925c-1.2564697 -9.769255 -2.8702393 -19.181192 -4.6606445 -28.231888z" fill-rule="evenodd"/><path fill="#184eab" fill-opacity="0.49803922" d="m423.18967 347.3803c39.43164 0 83.12683 17.042358 102.90939 33.503693c39.34137 32.62036 62.547302 87.013794 62.547302 144.811c0 4.3930664 -0.17663574 8.872559 -0.44750977 13.261719l-2.598938 0c3.8552246 -61.919434 -19.354675 -121.42047 -61.110474 -156.09799c-19.421387 -16.170807 -62.39026 -32.92267 -101.08386 -32.92267c-9.339691 0 -18.432068 0.9736328 -26.880585 3.1721497c-19.802185 5.107605 -33.06778 16.217896 -39.608307 32.883392c-2.1513977 5.7357483 -3.0465088 12.189941 -3.0465088 19.268341c0 23.476929 10.215179 52.689606 17.654755 73.65787c1.1659851 3.2270813 2.2377625 6.27359 3.1367798 9.053131c6.0026855 17.560577 13.081055 34.58722 21.32544 50.98578l-2.8659058 0c-7.977417 -16.127625 -14.965485 -32.973724 -20.881805 -50.18097c-0.8951111 -2.779541 -1.9707947 -5.82605 -3.1367798 -9.049194c-9.763702 -27.512756 -24.371948 -69.178406 -14.514038 -94.630066c6.811432 -17.564514 20.697296 -29.122375 41.217957 -34.49695c8.61731 -2.2299194 17.874573 -3.2192383 27.383087 -3.2192383z" fill-rule="evenodd"/><path fill="#184eab" fill-opacity="0.49803922" d="m919.9351 -1.0204724c9.677551 20.614012 13.890137 43.737045 13.890137 67.127075c0 30.740402 -7.2591553 61.928413 -18.821167 88.63633c-17.023071 39.16661 -42.294678 74.47743 -66.84778 108.62602c-13.799866 19.357544 -28.227844 39.433624 -40.8656 59.867004c-30.19867 48.931793 -61.11194 121.25751 -36.919983 188.74582c3.4077759 9.58847 7.706726 18.552643 12.814453 26.974945l-2.9562988 0c-4.836792 -8.155334 -8.959106 -16.848572 -12.27655 -26.169983c-24.5531 -68.37964 6.7212524 -141.51422 37.190857 -190.80725c12.724121 -20.614014 27.061829 -40.686157 40.951965 -60.047638c24.46283 -34.054337 49.644104 -69.27878 66.58081 -108.264786c20.250244 -46.69368 27.061829 -107.63655 4.479553 -154.68755z" fill-rule="evenodd"/><path fill="#184eab" fill-opacity="0.49803922" d="m959.3536 290.91415l0 3.493988c-9.939209 9.049042 -19.077942 18.906769 -26.957092 29.84021c-26.690247 36.918457 -38.065613 94.89502 -8.063599 134.14148c9.58606 12.546936 22.57019 21.866852 35.02069 28.94513l0 2.8658447c-13.074402 -7.1685486 -26.866882 -16.936005 -36.99048 -30.28775c-30.810364 -40.14154 -19.254517 -99.46469 7.9733276 -137.18793c8.416748 -11.73822 18.269592 -22.22409 29.01715 -31.810974z" fill-rule="evenodd"/><path fill="#184eab" fill-opacity="0.49803922" d="m725.90405 -1.0204724c0.71850586 6.5406547 0.8951416 13.085236 0.8951416 19.2647l0 1.2563095c-0.090270996 33.602318 -2.775879 67.475525 -7.974304 100.63422c-3.6749878 23.657852 -11.472595 56.545654 -37.28015 69.2697c-7.028076 3.4626923 -14.330994 4.938858 -21.590698 4.938858c-19.042542 0 -37.763123 -10.156464 -50.28412 -21.247314c-12.010498 -10.757141 -21.779114 -23.928741 -31.19049 -36.652786c-5.645996 -7.616379 -11.468689 -15.413338 -17.652588 -22.67244c-7.6170654 -8.872681 -16.133179 -17.113274 -24.378418 -25.18113c-12.81543 -12.366783 -25.988129 -25.18113 -35.937378 -40.233273c-8.69281 -12.994938 -15.771912 -31.545113 -15.862244 -49.37684l2.5089111 0c0.09030151 8.511488 1.7943115 17.293867 4.5741577 25.448092c2.775879 8.33482 6.6315002 16.131783 10.840485 22.49577c9.858917 14.875473 22.945282 27.599522 35.58011 39.87601c8.33551 8.063927 16.93805 16.398743 24.555054 25.267494c6.274231 7.3494034 12.10083 15.236664 17.746887 22.853027c9.407349 12.633759 19.085693 25.718994 30.91565 36.20131c12.933228 11.518784 31.182617 20.49353 48.870605 20.49353c6.9456177 0 13.808777 -1.3819427 20.228271 -4.542343c24.645325 -12.095886 32.26239 -44.26523 35.847107 -67.38522c5.1080933 -32.978096 7.7976074 -66.670715 7.974304 -100.18666c0 -6.540655 -0.17669678 -13.532796 -0.98553467 -20.52101z" fill-rule="evenodd"/><path fill="#184eab" d="m-17.19685 555.9685l0 -314.44794c4.2104425 1.1705627 8.26365 2.6468964 12.316856 4.35907c25.018072 10.832199 45.35399 32.112198 54.93668 57.672684c7.7919426 20.808289 9.276951 44.96231 24.240623 61.332886c16.833038 18.38852 44.34069 20.493805 68.65119 25.6391c47.930923 10.203217 92.03575 37.563232 122.5833 75.90393c20.729034 26.023468 35.142365 56.965088 41.999634 89.54028z" fill-rule="evenodd"/><path fill="#184eab" fill-opacity="0.49803922" d="m-17.2619 108.850395l0 -117.05197l448.19308 0c-8.738892 1.4121699 -17.488342 3.1088805 -26.142914 5.0795946c-0.9382019 0.1896944 -1.7815247 0.3793888 -2.7197266 0.5585444c-26.996765 6.1123743 -53.698395 14.206001 -80.220825 23.132175c-0.9382019 0.3793888 -1.8764038 0.6533909 -2.919983 1.0327797c-60.276337 20.497534 -119.99394 45.505577 -181.39821 62.430527c-30.749557 8.36763 -62.25811 14.754013 -94.13562 19.085365c-0.85386276 0.09484863 -1.6971817 0.27400208 -2.4456291 0.3688507c-11.289949 1.507019 -22.66423 2.7294922 -34.049053 3.667427c-7.9904594 0.6639252 -16.075792 1.2224731 -24.161125 1.6967087z" fill-rule="evenodd"/><path fill="#184eab" d="m992.8926 185.99055c-50.482544 0 -99.328064 -24.024002 -116.64221 -71.65905c-2.2859497 0.05899048 -4.55719 0.08848572 -6.828369 0.08848572c-61.54358 0 -122.9397 -22.21003 -170.00067 -61.79284c-34.598938 -29.082455 -61.307617 -67.10201 -77.23547 -109.20668l397.34174 0l0 240.37268c-3.6870117 0.64889526 -7.506775 1.1798096 -11.193787 1.4452667c-5.132324 0.50141907 -10.294128 0.75213623 -15.441223 0.75213623z" fill-rule="evenodd"/><path fill="#184eab" fill-opacity="0.49803922" d="m1092.1074 357.61252l45.30017 202.99423l-777.11816 173.42169c14.605804 -5.8304443 29.119751 -12.158386 43.36316 -18.924805c1.5533142 -0.69195557 2.9421082 -1.347229 4.4995117 -2.020996c44.44394 -21.046204 87.609375 -45.414185 130.14188 -71.15662c1.4798584 -1.020935 3.0005493 -1.8591309 4.663208 -2.9208984c96.579895 -58.8703 190.44537 -125.34668 290.3636 -178.4578c50.078064 -26.409424 102.23889 -49.676605 155.83472 -69.522675c1.4437866 -0.49487305 2.83667 -1.1318665 4.0977173 -1.585968c18.99231 -6.981964 38.241028 -13.503143 57.61798 -19.534912c13.597656 -4.2431946 27.400635 -8.340332 41.236206 -12.29126z" fill-rule="evenodd"/><path fill="#2160bb" d="m1072.2894 442.19626c-33.733887 -0.51226807 -66.52551 11.685303 -78.51819 36.581787c-1.463562 -0.03866577 -2.9436035 -0.0776062 -4.4074097 -0.099823c-40.954224 -0.6219177 -82.15326 10.543518 -113.91693 30.880493c-23.110168 14.910034 -41.178528 34.731384 -52.222107 56.715088l264.5578 4.017456l1.9221191 -126.58072c-2.4954834 -0.33392334 -4.990967 -0.66781616 -7.338745 -0.9830322c-3.3513184 -0.31399536 -6.7213135 -0.48028564 -10.076538 -0.53125z" fill-rule="evenodd"/><path fill="#73f7ff" d="m1016.2885 330.67743c-8.076111 -0.12265015 -15.989929 -0.09475708 -24.068237 -0.06939697c-22.166992 0.403656 -44.34723 1.6789856 -66.246826 3.978485c-0.5921631 -0.009002686 -1.3345337 0.1277771 -1.9102173 0.11904907c-18.967651 2.0643616 -37.946228 4.8523865 -56.638 8.253418c-0.5941162 0.12258911 -1.1697998 0.11383057 -1.7641602 0.25286865c-25.605835 4.760132 -50.80591 10.97406 -75.133606 18.23758c-16.807983 5.0253296 -33.32892 10.647247 -49.85205 16.417175l-1.6206665 0.55114746c-11.214355 3.9422913 -22.282837 8.034851 -33.497192 11.977173c-0.59436035 0.13900757 -1.1907349 0.40960693 -1.637085 0.5508728c-21.9823 7.743347 -43.81433 15.340881 -66.22052 21.74527c-0.59436035 0.13903809 -1.0407104 0.28030396 -1.6209106 0.56762695c-24.619202 6.962982 -49.662537 12.603546 -75.389404 15.585175c-0.87402344 0.13479614 -1.7644653 0.26931763 -2.4881592 0.2583313c-10.448181 1.1573792 -21.16919 1.8664246 -31.883667 2.1478882c-3.9005127 0.08883667 -7.7835083 0.11212158 -11.648865 0.05340576c-3.881775 -0.058929443 -7.7294006 -0.19961548 -11.543152 -0.4055786l-2.2040405 -0.033477783c-20.67862 -1.1858826 -41.036438 -3.9954834 -61.080444 -7.968292c-0.72146606 -0.1590271 -1.4594116 -0.31826782 -2.1973267 -0.47753906c-21.207336 -4.2865906 -42.263123 -9.886902 -63.145416 -16.076782c-0.7359314 -0.29083252 -1.4738464 -0.45010376 -2.1953125 -0.60910034c-47.49475 -14.22699 -94.33649 -31.372223 -142.74097 -43.11258c-24.12709 -5.943054 -49.014343 -10.5816345 -74.203674 -13.744232c-0.5921478 -0.009002686 -1.1655731 -0.16577148 -1.9057465 -0.17700195c-8.784058 -1.1697693 -17.720901 -2.0292969 -26.821968 -2.9077759c-9.382935 -0.7346802 -18.749672 -1.4526978 -28.1371 -1.8913574c-7.4816895 -0.2616577 -14.815338 -0.52108765 -22.167686 -0.63272095c-8.651764 -0.13137817 -17.305767 -0.114746094 -25.830433 0.0519104c-18.348492 0.29711914 -36.56044 1.3530579 -54.635345 3.1348572l-3.1480994 207.30911l1095.0887 16.629517l3.5582275 -234.31439c-9.376465 -1.162323 -18.902954 -2.1953125 -28.283691 -3.078003c-4.107788 -0.34204102 -8.06958 -0.55026245 -12.177124 -0.90875244l-2.2039795 -0.033477783c-0.42541504 -0.1545105 -0.7215576 -0.15899658 -1.1656494 -0.16574097c-10.404907 -0.60217285 -20.828613 -1.0565491 -31.240295 -1.2146606z" fill-rule="evenodd"/><path fill="#41d5ff" d="m1003.1232 387.52774c-9.391907 -0.14263916 -18.934204 -0.13943481 -28.476196 -0.15270996c-25.983032 0.34588623 -52.12732 1.5613708 -77.99133 3.817749c-0.74017334 -0.011230469 -1.4661255 0.12582397 -2.2085571 0.26263428c-22.485107 1.8469849 -44.835938 4.6009827 -66.899414 7.9352417c-0.59436035 0.1390686 -1.3203735 0.27612305 -1.9147339 0.41519165c-30.309875 4.673462 -60.047546 10.671967 -88.76697 17.870636c-19.75232 4.9818726 -39.20111 10.560699 -58.670837 16.435394l-1.9169922 0.5632324c-13.122131 3.8978577 -26.392517 7.809906 -39.514893 11.724213c-0.5966797 0.28710938 -1.3226318 0.42419434 -1.9169922 0.5632324c-25.800415 7.8189087 -51.5943 15.210083 -77.96686 21.703949c-0.5944214 0.1390686 -1.3203735 0.27612305 -2.0628052 0.41293335c-28.862976 6.9003296 -58.314545 12.475342 -88.87952 15.53241c-0.8882141 -0.0134887695 -1.9102478 0.11907959 -2.8007202 0.2536621c-12.339722 1.1289368 -24.821014 1.8279419 -37.60556 1.9135132c-4.6242065 0.07788086 -9.198059 0.09069824 -13.754242 0.021514893c-4.5397034 -0.06893921 -9.061737 -0.21987915 -13.533417 -0.43588257l-2.6317139 -0.03994751c-24.496918 -1.0960083 -48.374725 -3.9596558 -72.10095 -8.137329c-0.86953735 -0.1612854 -1.757721 -0.17477417 -2.4792175 -0.3338318c-25.185883 -4.4795837 -49.892975 -10.153046 -74.60802 -16.386078c-0.86950684 -0.1612854 -1.7532196 -0.47088623 -2.6391754 -0.6324463c-55.982178 -14.35907 -111.34419 -31.637604 -168.41702 -43.512207c-26.321526 -5.5334167 -53.121334 -9.905884 -80.36654 -13.116852l-2.271017 149.55136l1095.0925 16.629578l1.5777588 -103.901276l1.1678467 0.017730713l1.1143799 -73.38562c-0.2960205 -0.004486084 -0.7401123 -0.011230469 -1.1655273 -0.16577148c-10.71106 -1.034729 -21.405396 -2.0856628 -32.25244 -2.826294c-4.699707 -0.3675232 -9.531006 -0.73709106 -14.216553 -0.95632935c-0.8859863 -0.16152954 -1.7741699 -0.17501831 -2.645874 -0.18826294l-1.315918 -0.019989014c-12.327148 -0.779541 -24.6427 -1.2462769 -36.962463 -1.4333496z" fill-rule="evenodd"/><path fill="#10b2fd" d="m-5.595478 444.72604l-1.6542325 108.934784l417.59457 6.3413696c-8.2039795 -1.4396973 -16.238708 -3.189209 -24.287903 -5.0704346c-0.8694763 -0.16119385 -1.753418 -0.45410156 -2.6229248 -0.6152344c-25.012573 -6.100708 -49.702362 -13.955566 -74.36224 -22.697632c-0.8836975 -0.30932617 -1.7511902 -0.60198975 -2.6348877 -0.9113159c-55.910538 -20.06659 -111.16907 -44.068756 -168.15056 -60.781555c-28.632797 -8.210602 -57.901115 -14.655426 -87.479996 -19.066467c-0.72146225 -0.15890503 -1.4593697 -0.31808472 -2.183075 -0.32907104c-10.553757 -1.623352 -21.095306 -2.9670715 -31.641602 -3.9985046c-7.4747877 -0.70532227 -14.949575 -1.4106445 -22.577137 -1.8059387z" fill-rule="evenodd"/><path fill="#10b2fd" d="m1065.5559 465.699c-9.539795 -0.14486694 -18.933716 -0.13949585 -28.461548 0.011871338c-26.128052 0.17889404 -52.272034 1.4102173 -78.13519 3.6490784c-0.7423706 0.13674927 -1.3345337 0.12774658 -2.0604858 0.2647705c-22.484802 1.8625183 -44.8349 4.598816 -66.89783 7.9315796c-0.5944214 0.13900757 -1.336792 0.27575684 -1.9147339 0.41500854c-30.309143 4.6713867 -60.046387 10.683716 -88.78162 17.879028c-19.735413 4.9799805 -39.348206 10.553925 -58.80078 16.409912l-1.7689209 0.5652466c-13.270081 3.9104004 -26.39215 7.823059 -39.513916 11.719238c-0.74468994 0.284729 -1.3226318 0.42401123 -1.9169922 0.5629883c-25.799988 7.8320312 -51.74109 15.201355 -77.96521 21.71106c-0.74243164 0.13677979 -1.336792 0.27575684 -2.0625 0.3963623c-26.816284 6.5007324 -54.039978 11.663086 -82.120605 14.756409l552.60016 8.391541l1.5771484 -103.85895c-7.923462 -0.41638184 -15.848999 -0.6847534 -23.776978 -0.80514526z" fill-rule="evenodd"/><path fill="#0060c1" d="m740.60944 377.78214l-1.6203003 0.55096436c1.5536499 3.8388672 3.5513916 7.6844482 6.2771606 11.245087c3.7393188 5.0560913 8.517212 9.963501 13.13269 14.736877c11.568237 11.605011 22.256897 22.637512 19.265259 35.501465c-2.2091675 10.08017 -13.77655 18.998627 -29.99701 23.455597c-10.916321 2.876587 -22.720642 3.5689087 -33.44287 3.4060974c-4.736145 -0.07192993 -9.272217 -0.3217163 -13.3966675 -0.59814453c-50.002136 -3.406952 -98.95068 -16.615631 -140.16931 -37.337433c-0.87384033 0.1347351 -1.7640991 0.26922607 -2.487671 0.25823975c41.78546 21.306 91.61731 34.840546 142.49121 38.244293c4.2383423 0.36038208 8.939392 0.57977295 13.774231 0.65319824c10.853699 0.16479492 22.756958 -0.54248047 33.955627 -3.595642c16.795776 -4.431793 28.682373 -13.789429 31.03009 -24.327972c3.1461792 -13.289185 -8.419617 -25.058594 -19.548096 -36.37732c-4.6154175 -4.7733765 -9.393311 -9.680786 -13.135132 -14.572479c-2.5777588 -3.5583801 -4.7235107 -7.4062195 -6.1292114 -11.242828z" fill-rule="evenodd"/><path fill="#0060c1" d="m705.52026 390.2908c-0.59417725 0.13894653 -1.1903687 0.4093628 -1.6365967 0.5505371c10.766418 6.920105 18.84253 15.541901 21.221619 23.501831c2.6408691 9.1311035 0.03765869 17.01538 -7.0689697 21.444733c-5.0473633 3.1290283 -11.344421 4.069092 -17.461304 3.9761963c-7.9420776 -0.12060547 -15.561462 -1.9953308 -19.687683 -3.2087402c-11.3811035 -3.2634277 -31.778442 -12.812134 -43.20398 -23.983612c-0.59417725 0.13894653 -1.0404053 0.28012085 -1.6203613 0.5672302c3.7591553 3.7230835 8.392029 7.3114624 13.475647 10.46283c10.622925 6.6220093 22.56726 11.784515 30.755432 14.111755c4.241089 1.2315979 11.975586 3.1080627 20.197205 3.2329102c6.59375 0.100128174 13.21936 -0.81851196 18.699036 -4.2533264c7.5531006 -4.586975 10.460999 -13.041992 7.6766357 -22.47116c-2.3745728 -8.255768 -10.596436 -17.027771 -21.34668 -23.931183z" fill-rule="evenodd"/><path fill="#0060c1" d="m500.93927 430.79446c1.1642761 1.3339844 2.3141174 2.5361328 3.461914 3.869873c1.747406 1.9351807 3.3280945 4.01593 5.0590515 5.9508667c20.603485 24.53305 41.80429 49.815613 78.02463 61.07715c13.573181 4.303131 25.121643 5.432831 36.947754 5.6124268c5.098877 0.077423096 10.266296 -0.02508545 15.664001 -0.12411499c5.6448975 -0.12820435 11.536499 -0.2526245 17.83612 -0.1569519c15.1814575 0.23052979 32.77826 1.74823 55.277954 7.585541c24.268066 6.390625 40.733948 14.127197 50.500916 18.816833c20.107056 9.552429 36.963623 20.816101 51.308838 32.782043l2.3520508 0.035705566c-14.6345215 -12.414612 -32.07672 -24.11493 -52.60919 -33.82196c-9.914734 -4.708252 -26.526428 -12.595154 -50.942505 -18.988037c-22.991089 -5.9763794 -40.769836 -7.431061 -56.148743 -7.6645813c-6.2337646 -0.09466553 -12.075806 0.0140686035 -17.703491 0.09313965c-5.430603 0.09851074 -10.63092 0.20056152 -15.779114 0.12237549c-11.546509 -0.175354 -22.816101 -1.2514343 -35.94867 -5.3175354c-35.792725 -11.255035 -56.8313 -36.387054 -77.30768 -60.62201c-1.730957 -1.9349365 -3.3116455 -4.015686 -5.0426025 -5.9506226c-0.8727112 -1.0333862 -1.7267151 -2.214569 -2.7471924 -3.266693zm366.49902 -87.92572c-0.5941162 0.12258911 -1.1697998 0.113861084 -1.7641602 0.2529297c1.7318726 11.626312 1.2641602 22.923065 -1.6826782 33.885986c-3.9138794 15.061707 -10.484192 23.040833 -17.505005 31.440887c-7.4761963 9.133575 -16.006348 19.419373 -22.345093 40.31833c-12.826721 42.963867 -2.4403076 83.779205 10.978577 117.74643l1.907959 0.0289917c-13.566895 -33.969482 -23.955566 -74.63678 -11.1311035 -117.45261c6.1884766 -20.753143 14.265503 -30.453491 22.192566 -40.024475c7.021118 -8.416504 13.609802 -16.526947 17.657532 -31.734741c2.9490967 -11.110962 3.4212646 -22.703827 1.6914062 -34.46173z" fill-rule="evenodd"/><path fill="#0060c1" d="m1048.7206 331.9683c-6.526367 5.17984 -14.532837 10.337219 -24.005127 15.620331c-3.7005615 2.1474915 -7.5491333 4.292694 -11.395447 6.289978c-20.266785 10.990173 -41.277832 22.248596 -52.52893 38.52307c-7.196289 10.300598 -9.871887 21.853943 -12.524292 32.963593c-0.47521973 2.0484314 -0.95043945 4.0968933 -1.4089355 6.1291504c-3.2920532 13.155579 -7.8877563 26.587402 -20.527222 36.80536c-8.2595825 6.666504 -21.792175 11.789276 -35.210938 11.58551c-5.1470947 -0.07815552 -10.282288 -0.9455261 -15.106201 -2.8113098c-18.23108 -7.16745 -21.924805 -24.968018 -16.149597 -38.085938c4.4196777 -10.507202 13.505798 -19.611511 22.291443 -28.424347c2.988037 -2.881897 5.962097 -5.9284363 8.656372 -8.962799c18.795532 -20.254791 30.740723 -43.244873 35.21515 -67.10486c-0.59198 -0.009002686 -1.3342896 0.12774658 -1.90979 0.119018555c-4.4699707 23.564026 -16.262634 46.260406 -34.75995 66.371704c-2.6922607 2.902832 -5.6660767 5.932953 -8.654358 8.831268c-8.787903 8.960815 -18.024292 18.210846 -22.591736 28.699371c-5.931946 13.691101 -1.951416 32.104523 17.015198 39.579163c5.1016846 1.9851379 10.663208 2.9411926 16.089905 3.02359c13.944946 0.21176147 27.95813 -5.1503906 36.566833 -12.058258c12.641724 -10.365936 17.537903 -24.089203 20.829956 -37.244812c0.45874023 -2.048706 0.93395996 -4.0971375 1.4089355 -6.1291504c2.6688843 -11.1094055 5.3257446 -22.515015 12.24054 -32.688324c11.246338 -15.962097 31.961609 -27.241455 52.228394 -38.23163c3.6983032 -1.9995117 7.546631 -4.128296 11.393005 -6.1255493c9.904297 -5.572571 18.213501 -11.169373 25.040405 -16.640656z" fill-rule="evenodd"/><path fill="#0060c1" d="m1090.9197 360.3972c-11.5772705 18.165741 -35.44275 33.068756 -54.967407 43.77719l-4.8917236 2.5576782c-31.220032 17.143646 -63.482605 34.69919 -71.66742 61.2894c-3.074585 9.642242 -2.3378296 19.62201 -1.7634888 29.467712c0.73651123 9.996216 1.4500732 20.41977 -1.9227905 30.205536c-5.371826 15.759644 -20.987366 29.027771 -35.977295 40.101196l2.499878 0.037963867c14.69165 -10.929871 29.715088 -24.207031 35.084656 -39.818604c3.5231934 -9.93158 2.8118286 -20.503143 2.0775757 -30.64737c-0.5765991 -9.697693 -1.3133545 -19.67749 1.6274414 -29.173706c8.161621 -26.146423 40.125916 -43.55841 71.06183 -60.41028l4.8776855 -2.722412c18.942383 -10.273132 41.760498 -24.451813 53.916626 -41.736908l0.044433594 -2.9273987z" fill-rule="evenodd"/><path fill="#0060c1" d="m885.9074 513.0382c0.92041016 0.013977051 1.840271 0.060791016 2.7427368 0.1730957c5.560425 0.8237915 9.931946 3.0755005 12.362305 6.4971313c2.2991333 3.4031982 2.086609 7.6555176 -0.74664307 11.276489c-2.8516235 3.7521973 -7.723816 6.3235474 -12.860657 6.837036c-0.75701904 0.054260254 -1.4973755 0.092285156 -2.253418 0.08081055c-5.0949707 -0.07739258 -9.982971 -1.876831 -13.521301 -4.871643c-4.055481 -3.5777588 -5.305664 -7.852295 -3.4872437 -11.768005c0.91448975 -1.7606201 2.4016724 -3.3482666 4.328125 -4.633484c3.5055542 -2.4277954 8.456177 -3.6670532 13.436096 -3.5914307zm-0.1628418 -1.1854858c-5.275757 -0.08010864 -10.738098 1.2992554 -14.443359 3.8883667c-2.20813 1.428772 -3.7139893 3.1640015 -4.761963 5.054016c-2.1210327 4.3547974 -0.73187256 9.222961 3.7651367 12.955261c3.9120483 3.2798462 9.158936 5.265442 14.73053 5.3500366c0.87109375 0.013244629 1.758606 0.026733398 2.5004272 -0.10986328c5.8600464 -0.5025635 11.194397 -3.1983032 14.3324585 -7.406189c2.987854 -4.062317 3.3547974 -8.739502 0.6328125 -12.444824c-2.7384033 -3.7056274 -7.5324707 -6.275879 -13.536926 -7.090027c-1.0167236 -0.16333008 -2.052185 -0.17904663 -3.2191162 -0.19677734z" fill-rule="evenodd"/><path fill="#0060c1" d="m1089.8523 436.84998c-10.960571 5.985321 -20.311523 13.179413 -27.18811 22.03946c-8.537476 11.022491 -12.247314 23.582245 -15.950317 35.697968c-1.8572998 6.436096 -3.864502 13.001495 -6.4451904 19.426575c-8.83252 20.706238 -24.792847 38.656006 -45.430725 54.92279l2.3345337 0.035461426c20.339722 -16.12323 36.020508 -34.07727 44.70288 -54.637756c2.7286377 -6.4228516 4.73584 -12.988251 6.595337 -19.572357c3.5528564 -11.969971 7.2790527 -24.52945 15.795898 -35.272644c6.4422607 -8.406097 15.196777 -15.313141 25.563354 -21.175903l0.022338867 -1.4635925z" fill-rule="evenodd"/><path fill="#0060c1" d="m221.84517 396.02838c-28.290512 -0.42959595 -56.383804 4.5703125 -83.34018 9.455963c-20.17604 3.6566162 -40.93 7.4524536 -61.779846 8.895355c-7.888817 0.55441284 -15.838181 0.76257324 -23.782555 0.64193726c-19.589535 -0.29748535 -39.197456 -2.6343079 -58.019566 -6.883148l-0.022219181 1.4631958c19.201908 4.155945 38.89257 6.4611206 58.350525 6.756592c7.9608192 0.12088013 15.893982 -0.10397339 23.7499 -0.6588745c21.00013 -1.5885925 41.75409 -5.3844604 61.91369 -9.041321c27.316986 -4.797943 55.47705 -9.86261 84.01428 -9.42926c0.36186218 0.005493164 0.7401581 0.011260986 1.1184692 0.016998291c64.401276 1.5699463 120.89133 31.171906 172.21588 62.915405c2.9174805 1.8038025 5.818512 3.6073608 8.735992 5.4111633c47.396545 29.315918 96.24124 59.68976 157.29837 69.13495c18.466309 2.7634888 37.668518 3.6470337 56.297363 4.3739014c28.0141 1.296936 57.197998 2.4801025 83.04901 10.798706c12.132324 3.8512573 22.912292 8.997498 32.511047 15.013733l2.7797241 0.042236328c-10.313477 -6.6191406 -21.681091 -12.070251 -34.532593 -16.228455c-26.29541 -8.308899 -55.47705 -9.640015 -83.789246 -10.8098755c-18.47876 -0.8562012 -37.699707 -1.592041 -55.85321 -4.3671875c-60.61331 -9.421997 -109.476685 -39.648163 -156.5792 -68.82803c-2.8987732 -1.9515381 -5.818512 -3.6073608 -8.719513 -5.4109497c-51.616394 -32.027435 -108.40225 -61.65036 -173.3959 -63.21286c-0.73991394 -0.027679443 -1.480072 -0.038909912 -2.22023 -0.0501709z" fill-rule="evenodd"/><path fill="#0060c1" d="m372.3557 405.64615l0 0c6.1439514 10.19577 18.595734 21.965729 27.415588 30.31305c3.3217468 3.2700806 6.208557 5.94223 7.9389343 7.873993c4.7724 5.2140503 9.389557 9.817963 16.255127 12.566925c2.7632751 1.0604248 6.124939 1.7028503 9.495575 1.7540283c5.146393 0.07815552 10.150574 -1.3078613 12.976196 -4.35318c3.8766785 -4.0314026 2.345642 -9.344055 0.65740967 -14.051331c-1.8249817 -5.4485474 -3.939209 -11.345001 -7.2253113 -16.963593c-0.7212219 -0.15878296 -1.4588623 -0.31784058 -2.1965027 -0.47686768l0 0c3.5798035 5.770874 5.8375244 11.96521 7.8059998 17.711609c1.6882324 4.7072754 2.9300232 9.5720215 -0.49621582 13.1831665c-2.4743652 2.6564026 -6.8816223 3.722931 -11.403229 3.6542664c-3.107544 -0.047180176 -6.2562256 -0.63708496 -8.872498 -1.6295776c-3.204956 -1.2149658 -5.9734497 -3.0146484 -8.425049 -5.1052246c-2.4702759 -1.9430237 -4.7836 -4.4750366 -7.080719 -6.9903564c-1.7304077 -1.9317932 -4.6333923 -4.620575 -8.103119 -7.892914c-8.380402 -8.044952 -20.101257 -19.212463 -26.547668 -28.985718c-0.73565674 -0.2904358 -1.4733276 -0.4494934 -2.194519 -0.60827637z" fill-rule="evenodd"/><path fill="#0060c1" d="m196.38307 449.05753c-34.836823 -0.5290222 -70.25772 4.9040527 -104.73784 10.137604c-7.355774 1.2041931 -14.857338 2.2581482 -22.213112 3.4623718c-1.9124603 0.2670288 -3.9729462 0.53182983 -6.0334396 0.79663086c-20.397343 3.0622864 -43.0189 6.3375244 -63.842037 6.0213013c-1.8586211 -0.02822876 -3.7002947 -0.08908081 -5.5085735 -0.18234253l-0.017980099 1.1840515c2.0876439 0.11395264 4.2089334 0.17907715 6.34717 0.21154785c20.839584 0.31643677 43.166084 -3.0290833 63.447784 -6.060211c2.0602417 -0.24835205 3.972702 -0.51538086 5.8851624 -0.7824402c7.3537827 -1.0726318 15.005615 -2.2723694 22.211113 -3.3308105c34.53096 -5.3314514 69.85267 -10.733124 104.50855 -10.206879c14.803177 0.22479248 29.507645 1.5337219 43.958344 4.38501c34.395508 6.838684 64.404144 21.966827 93.23749 36.484985c24.472717 12.412231 49.81067 25.26532 78.02048 33.177917c11.826477 3.4036255 24.277039 5.796814 36.26703 8.183044c9.365082 1.9022827 19.174255 3.8112793 28.532562 6.1575317c23.536896 5.7855835 40.44919 13.378601 51.752106 23.090637l2.187561 0.033203125c-11.425537 -10.30603 -28.925415 -18.204102 -53.346252 -24.282715c-9.506348 -2.3485107 -19.151031 -4.255005 -28.664154 -6.159485c-12.006439 -2.3864746 -24.292511 -4.7772217 -36.135468 -8.18103c-27.915955 -7.760193 -53.10565 -20.627441 -77.58084 -32.875214c-28.976898 -14.816406 -58.98526 -29.960999 -93.80867 -36.789764c-14.630646 -2.9197693 -29.499329 -4.24765 -44.46698 -4.474945z" fill-rule="evenodd"/><path fill="#0060c1" d="m135.24861 484.25848c-42.573387 -0.6464844 -84.898636 11.464844 -116.608284 34.725525c-14.165318 10.298828 -20.908836 21.135498 -20.189142 31.938354l1.7507118 0.026550293c-0.72416216 -10.508545 5.8678794 -21.06958 19.752565 -31.209167c31.29663 -23.00528 73.22621 -34.926422 115.25966 -34.288116c17.965256 0.27279663 35.880875 2.735962 53.036606 7.8201294c43.457657 12.465607 75.914734 38.05783 104.467285 62.11917l2.3233948 0.03527832c-28.826263 -24.359802 -61.863663 -50.533142 -106.20015 -63.322784c-17.369675 -5.0056763 -35.51288 -7.5703735 -53.59265 -7.84494z" fill-rule="evenodd"/><path fill="#0060c1" d="m314.5702 507.54962c-2.7780762 -0.042175293 -5.465271 0.390625 -7.7677 1.3192444l0.8668213 1.0420837c2.0387268 -0.78564453 4.3651733 -1.142273 6.783722 -1.1055603c2.8434448 0.043182373 5.7930603 0.6269226 8.521851 1.7626038c5.0697937 1.9714966 8.219421 5.5307007 8.166351 9.024902c0.091796875 3.6434326 -3.0171509 7.0912476 -8.015961 9.056824c-2.8788757 1.2138062 -6.0258484 1.7866211 -9.049042 1.7407227c-2.2224426 -0.03375244 -4.358246 -0.39282227 -6.259796 -1.107605c-4.352997 -1.8135986 -7.2087097 -5.352051 -7.291565 -9.583252c-0.23242188 -4.0701904 2.3070374 -7.6899414 6.5516663 -9.503662l-0.8482361 -1.1887817c-4.8539734 2.1147766 -7.6799316 6.301819 -7.4542236 10.812866c0.07839966 4.5250854 3.3686523 8.511047 8.291382 10.480347c2.1766357 0.8986206 4.5090027 1.2280273 7.123657 1.2677002c3.2192688 0.04888916 6.725281 -0.4857788 9.800995 -1.7456665c5.5774536 -2.397766 8.987244 -6.2819214 8.899658 -10.202942c0.059783936 -3.9350586 -3.5268555 -7.778534 -9.031189 -10.197601c-2.9731445 -1.188385 -6.183502 -1.8250732 -9.288391 -1.8722229z" fill-rule="evenodd"/><path fill="#73f7ff" d="m771.3701 287.09412c-2.1170654 0.6371765 -4.098816 1.9127808 -5.970337 3.1771545c-13.570679 9.364471 -23.693115 24.526825 -28.034302 42.046265c-0.7515869 3.1620483 -1.4857788 6.318878 -3.2730103 8.806671c-0.9418335 1.3351135 -2.3048706 2.4026184 -3.7451782 2.8361206c-1.2841187 0.3864746 -2.6379395 0.29000854 -3.8381348 -0.553772c-3.9545288 -2.5125122 -3.5690308 -9.091797 -6.322937 -13.148712c-2.102417 -3.4642944 -6.1082764 -4.4496155 -9.561584 -3.4102783c-1.4749756 0.4439392 -2.8411865 1.2494812 -3.9016113 2.3792725c-3.6369019 3.6360474 -4.654175 9.813934 -4.7888184 15.528961c-0.140625 5.694916 0.59710693 11.541779 -0.06048584 17.21701c-0.8508301 5.536194 -3.5284424 11.227844 -8.280823 12.855347c-4.7894897 1.4414673 -11.325562 -2.8574524 -11.190918 -8.572479c0.37738037 -7.738037 -2.741455 -17.534943 -6.3426514 -24.46991c-3.1729126 -6.077942 -10.000305 -10.464478 -15.397156 -8.84021c-0.76348877 0.22979736 -1.4794922 0.5548096 -2.1530762 1.0204773c-9.09137 6.2635803 -2.5596924 25.19925 -10.223267 33.37741c-7.7698364 -1.1670227 -15.171143 -5.008362 -22.379272 -8.710663c-7.3409424 -3.6404114 -14.687866 -7.300934 -22.56549 -8.260254c-3.3422852 -0.3524475 -6.781555 -0.08416748 -9.974548 0.87680054c-4.1474 1.24823 -7.9033813 3.6712952 -10.476257 7.447235c-4.3771973 6.7727966 -3.61792 18.287659 2.8718262 23.564545c9.139404 7.415283 22.20227 -0.24078369 31.766052 6.258026c6.1519165 4.217346 8.63092 12.454102 12.147705 19.611664c6.7267456 13.421509 13.369141 9.647736 23.946655 7.2529907c12.295471 -2.9117737 24.427673 -6.365967 36.505493 -10.000977c24.155579 -7.269989 47.960205 -16.209045 70.99225 -26.646393l0.010620117 -7.8247986c-1.4765015 -23.392944 4.6638184 -46.75595 16.99469 -64.13852c3.0524292 -4.4460754 6.602417 -10.00592 4.218506 -15.160126c-1.5447998 -3.4349365 -5.0770874 -5.110504 -8.244751 -4.945862c-0.94628906 -3.0517578E-5 -1.8441772 0.16064453 -2.729187 0.42700195z" fill-rule="evenodd"/><path fill="#000000" fill-opacity="0.0" d="m146.04094 56.655117l667.8803 0l0 219.51495l-667.8803 0z" fill-rule="evenodd"/><path fill="#ffffff" d="m269.57785 76.719475q5.546875 1.296875 8.625 5.328125q3.078125 4.03125 3.078125 9.3125q0 8.0625 -5.328125 12.4375q-5.328125 4.375 -15.296875 4.375l-32.156265 0l0 -61.359375l31.281265 0q9.359375 0 14.734375 4.078125q5.375 4.078125 5.375 11.875q0 5.375 -2.8125 9.0625q-2.8125 3.671875 -7.5 4.890625zm-21.82814 -5.984375l7.4375 0q2.6093903 0 3.8593903 -1.03125q1.265625 -1.046875 1.265625 -3.21875q0 -2.25 -1.265625 -3.328125q-1.25 -1.078125 -3.8593903 -1.078125l-7.4375 0l0 8.65625zm8.750015 22.015625q2.59375 0 3.84375 -1.0q1.265625 -1.0 1.265625 -3.25q0 -4.421875 -5.109375 -4.421875l-8.750015 0l0 8.671875l8.750015 0zm50.08542 -45.9375l0 34.578125q0 4.25 1.859375 6.71875q1.859375 2.46875 6.015625 2.46875q4.171875 0 6.15625 -2.46875q2.0 -2.46875 2.0 -6.71875l0 -34.578125l19.140625 0l0 34.578125q0 8.75 -3.640625 14.953125q-3.625 6.203125 -9.953125 9.328125q-6.328125 3.109375 -14.125 3.109375q-7.796875 0 -13.828125 -3.109375q-6.015625 -3.125 -9.40625 -9.28125q-3.375 -6.15625 -3.375 -15.0l0 -34.578125l19.15625 0zm91.68091 0l0 15.265625l-16.296875 0l0 46.09375l-19.234375 0l0 -46.09375l-16.125 0l0 -15.265625l51.65625 0z" fill-rule="nonzero"/><path fill="#73f7ff" d="m506.58105 46.813225l-14.03125 61.359375l-23.921875 0l-7.109375 -34.828125l-7.09375 34.828125l-23.921875 0l-14.046875 -61.359375l20.71875 0l5.546875 38.65625l8.3125 -38.65625l20.96875 0l8.328125 38.65625l5.546875 -38.65625l20.703125 0zm46.275085 52.09375l-20.453125 0l-3.03125 9.265625l-20.1875 0l22.4375 -61.359375l22.1875 0l22.359375 61.359375l-20.28125 0l-3.03125 -9.265625zm-4.671875 -14.484375l-5.546875 -17.0625l-5.546875 17.0625l11.09375 0zm80.50098 -37.609375l0 15.265625l-16.296875 0l0 46.09375l-19.234375 0l0 -46.09375l-16.125 0l0 -15.265625l51.65625 0zm24.44281 15.34375l0 7.546875l19.0625 0l0 14.46875l-19.0625 0l0 8.65625l21.65625 0l0 15.34375l-40.90625 0l0 -61.359375l40.90625 0l0 15.34375l-21.65625 0zm59.790283 46.015625l-11.53125 -22.015625l-0.078125 0l0 22.015625l-19.25 0l0 -61.359375l28.59375 0q7.453125 0 12.734375 2.65625q5.296875 2.640625 7.9375 7.1875q2.640625 4.546875 2.640625 10.265625q0 6.15625 -3.421875 10.921875q-3.421875 4.765625 -9.828125 6.84375l13.34375 23.484375l-21.140625 0zm-11.609375 -34.828125l7.625 0q2.765625 0 4.15625 -1.25q1.390625 -1.265625 1.390625 -3.953125q0 -2.4375 -1.4375 -3.8125q-1.4375 -1.390625 -4.109375 -1.390625l-7.625 0l0 10.40625z" fill-rule="nonzero"/><path fill="#ffffff" d="m283.8421 130.01323l0 61.359375l-19.25 0l0 -61.359375l19.25 0zm32.668945 61.96875q-11.015625 0 -18.171875 -5.15625q-7.140625 -5.15625 -7.75 -15.125l20.453125 0q0.4375 5.28125 4.6875 5.28125q1.546875 0 2.625 -0.734375q1.09375 -0.734375 1.09375 -2.296875q0 -2.15625 -2.34375 -3.5q-2.328125 -1.34375 -7.265625 -3.078125q-5.90625 -2.078125 -9.765625 -4.0625q-3.84375 -2.0 -6.625 -5.8125q-2.765625 -3.828125 -2.6875 -9.796875q0 -5.984375 3.078125 -10.1875q3.078125 -4.203125 8.40625 -6.359375q5.328125 -2.171875 12.0 -2.171875q11.265625 0 17.890625 5.203125q6.640625 5.1875 6.984375 14.640625l-20.703125 0q-0.09375 -2.59375 -1.3125 -3.71875q-1.203125 -1.140625 -2.9375 -1.140625q-1.21875 0 -2.0 0.828125q-0.78125 0.828125 -0.78125 2.296875q0 2.078125 2.296875 3.421875q2.296875 1.34375 7.328125 3.25q5.8125 2.171875 9.578125 4.171875q3.765625 1.984375 6.53125 5.546875q2.78125 3.546875 2.78125 8.90625q0 5.640625 -2.78125 10.109375q-2.765625 4.453125 -8.0625 6.96875q-5.28125 2.515625 -12.546875 2.515625zm88.204285 -61.96875l0 15.265625l-24.078125 0l0 8.484375l17.328125 0l0 14.46875l-17.328125 0l0 23.140625l-19.25 0l0 -61.359375l43.328125 0zm45.843018 52.09375l-20.453125 0l-3.03125 9.265625l-20.1875 0l22.4375 -61.359375l22.1875 0l22.359375 61.359375l-20.28125 0l-3.03125 -9.265625zm-4.671875 -14.484375l-5.546875 -17.0625l-5.546875 17.0625l11.09375 0zm30.579102 -7.015625q0 -9.09375 3.6875 -16.203125q3.6875 -7.109375 10.53125 -11.046875q6.84375 -3.9375 16.109375 -3.9375q7.984375 0 14.265625 2.984375q6.28125 2.984375 10.21875 8.453125q3.953125 5.453125 5.25 12.734375l-20.28125 0q-1.390625 -3.03125 -3.953125 -4.71875q-2.546875 -1.6875 -5.84375 -1.6875q-4.84375 0 -7.671875 3.640625q-2.8125 3.625 -2.8125 9.78125q0 6.15625 2.8125 9.796875q2.828125 3.640625 7.671875 3.640625q3.296875 0 5.84375 -1.6875q2.5625 -1.6875 3.953125 -4.734375l20.28125 0q-1.296875 7.28125 -5.25 12.75q-3.9375 5.453125 -10.21875 8.453125q-6.28125 2.984375 -14.265625 2.984375q-9.265625 0 -16.109375 -3.9375q-6.84375 -3.953125 -10.53125 -11.0625q-3.6875 -7.109375 -3.6875 -16.203125zm86.23657 -30.59375l0 61.359375l-19.25 0l0 -61.359375l19.25 0zm67.49713 61.359375l-19.234375 0l-20.359375 -30.84375l0 30.84375l-19.25 0l0 -61.359375l19.25 0l20.359375 31.375l0 -31.375l19.234375 0l0 61.359375zm46.270874 -40.375q-1.125 -1.828125 -3.203125 -2.8125q-2.078125 -1.0 -5.03125 -1.0q-5.546875 0 -8.578125 3.59375q-3.03125 3.59375 -3.03125 9.828125q0 7.1875 3.375 10.75q3.390625 3.546875 10.40625 3.546875q6.671875 0 10.75 -5.375l-15.34375 0l0 -13.59375l31.28125 0l0 19.234375q-3.984375 6.84375 -11.0 11.75q-7.015625 4.890625 -17.765625 4.890625q-9.53125 0 -16.59375 -3.9375q-7.0625 -3.953125 -10.84375 -11.0625q-3.765625 -7.109375 -3.765625 -16.203125q0 -9.09375 3.765625 -16.203125q3.78125 -7.109375 10.796875 -11.046875q7.015625 -3.9375 16.46875 -3.9375q12.046875 0 19.625 5.8125q7.578125 5.796875 8.96875 15.765625l-20.28125 0z" fill-rule="nonzero"/><path fill="#ff860d" d="m332.71054 213.21323l0 15.265625l-16.296875 0l0 46.09375l-19.234375 0l0 -46.09375l-16.125 0l0 -15.265625l51.65625 0zm61.958405 0l0 61.359375l-19.234375 0l0 -23.921875l-18.28125 0l0 23.921875l-19.25 0l0 -61.359375l19.25 0l0 22.109375l18.28125 0l0 -22.109375l19.234375 0zm39.519287 61.359375l-11.53125 -22.015625l-0.078125 0l0 22.015625l-19.25 0l0 -61.359375l28.59375 0q7.453125 0 12.734375 2.65625q5.296875 2.640625 7.9375 7.1875q2.640625 4.546875 2.640625 10.265625q0 6.15625 -3.421875 10.921875q-3.421875 4.765625 -9.828125 6.84375l13.34375 23.484375l-21.140625 0zm-11.609375 -34.828125l7.625 0q2.765625 0 4.15625 -1.25q1.390625 -1.265625 1.390625 -3.953125q0 -2.4375 -1.4375 -3.8125q-1.4375 -1.390625 -4.109375 -1.390625l-7.625 0l0 10.40625zm58.059753 -11.1875l0 7.546875l19.0625 0l0 14.46875l-19.0625 0l0 8.65625l21.65625 0l0 15.34375l-40.90625 0l0 -61.359375l40.90625 0l0 15.34375l-21.65625 0zm68.27466 36.75l-20.453125 0l-3.03125 9.265625l-20.1875 0l22.4375 -61.359375l22.1875 0l22.359375 61.359375l-20.28125 0l-3.03125 -9.265625zm-4.671875 -14.484375l-5.546875 -17.0625l-5.546875 17.0625l11.09375 0zm80.50098 -37.609375l0 15.265625l-16.296875 0l0 46.09375l-19.234375 0l0 -46.09375l-16.125 0l0 -15.265625l51.65625 0zm29.208435 61.96875q-11.015625 0 -18.171875 -5.15625q-7.140625 -5.15625 -7.75 -15.125l20.453125 0q0.4375 5.28125 4.6875 5.28125q1.546875 0 2.625 -0.734375q1.09375 -0.734375 1.09375 -2.296875q0 -2.15625 -2.34375 -3.5q-2.328125 -1.34375 -7.265625 -3.078125q-5.90625 -2.078125 -9.765625 -4.0625q-3.84375 -2.0 -6.625 -5.8125q-2.765625 -3.828125 -2.6875 -9.796875q0 -5.984375 3.078125 -10.1875q3.078125 -4.203125 8.40625 -6.359375q5.328125 -2.171875 12.0 -2.171875q11.265686 0 17.890686 5.203125q6.640625 5.1875 6.984375 14.640625l-20.703186 0q-0.09375 -2.59375 -1.3125 -3.71875q-1.203125 -1.140625 -2.9375 -1.140625q-1.21875 0 -2.0 0.828125q-0.78125 0.828125 -0.78125 2.296875q0 2.078125 2.296875 3.421875q2.296875 1.34375 7.328186 3.25q5.8125 2.171875 9.578125 4.171875q3.765625 1.984375 6.53125 5.546875q2.78125 3.546875 2.78125 8.90625q0 5.640625 -2.78125 10.109375q-2.765625 4.453125 -8.0625 6.96875q-5.28125 2.515625 -12.546936 2.515625z" fill-rule="nonzero"/><path fill="#41d5ff" d="m512.24567 353.21243c6.9868164 -2.5803528 15.209106 -2.9450073 21.763123 -1.7550964c13.917969 2.4195862 28.490295 18.895813 26.35962 32.01288c-0.6826172 4.1883545 -3.501709 7.1454773 -7.0008545 8.437775c-3.6368408 1.3431396 -8.000244 0.8952637 -11.500427 -1.8395691c-6.0564575 -4.7495117 -15.533691 -3.3348389 -23.630676 -2.5602722c-16.755096 1.547821 -28.681305 -13.129395 -16.29715 -27.465546c2.6481018 -3.1025085 6.267975 -5.338745 10.306366 -6.8301697z" fill-rule="evenodd"/><path fill="#73f7ff" d="m513.74274 355.3332c6.309021 -2.3300476 13.726074 -2.6835632 19.646545 -1.6891174c12.49884 2.3586426 25.731873 17.117828 23.807129 28.88382c-0.6600342 3.789734 -3.2323608 6.460602 -6.3983765 7.6298523c-3.269226 1.207367 -7.1931763 0.8183899 -10.3186035 -1.5733337c-5.567505 -4.344879 -13.946472 -3.101593 -21.243652 -2.388214c-15.067871 1.3800049 -25.77652 -11.873596 -14.734741 -24.790436c2.3723755 -2.753418 5.628296 -4.738098 9.241699 -6.072571z" fill-rule="evenodd"/><path fill="#ffffff" d="m516.31036 356.6439c3.9796753 -1.4697571 11.962769 -0.52059937 14.737915 -0.44488525c6.2070312 0.2454834 10.995605 1.5975342 16.287842 4.032501c1.6703491 0.7685547 3.0707397 1.7533875 3.9804077 3.269043c1.5043335 2.3189392 0.6768799 5.201233 -1.5809326 6.035095c-0.55877686 0.20635986 -1.1907959 0.2843933 -1.8931885 0.20715332c-2.1347046 -0.13095093 -4.0701904 -1.6173706 -5.8878784 -2.784729c-0.14050293 -0.06463623 -0.31884766 -0.23184204 -0.4593506 -0.29647827c-4.687439 -3.0079346 -10.265503 -4.6381226 -15.834534 -5.0156555c-2.5183105 -0.22235107 -13.53479 1.8780823 -11.494751 -3.264801c0.31707764 -0.7904358 1.0839844 -1.345581 2.1444702 -1.7372437z" fill-rule="evenodd"/><path fill="#ffffff" d="m508.3526 359.62057c0.63375854 -0.23406982 1.3447266 -0.18939209 1.9857788 0.18832397c1.1405029 0.61572266 1.5587158 2.061493 0.94873047 3.1956787c-0.27194214 0.58688354 -0.7402649 0.9902954 -1.2835083 1.190918c-0.622406 0.2298584 -1.3292236 0.19647217 -1.9906006 -0.096954346c-1.1737671 -0.70584106 -1.59198 -2.1516113 -0.9819946 -3.285797c0.3100586 -0.5881653 0.78970337 -0.99572754 1.3215942 -1.1921692z" fill-rule="evenodd"/><path fill="#41d5ff" d="m613.1792 299.91443c-2.3875732 -0.2749939 -4.7608643 -0.0741272 -6.8780518 0.81814575c-9.713074 3.9987793 -7.5513916 14.294952 1.2216187 17.68628c4.119446 1.6994934 9.22168 3.3540955 11.062622 7.260956c1.0374756 2.2237854 3.067627 3.5443115 5.182373 3.7878723c2.0562744 0.23684692 4.189209 -0.5350647 5.5858765 -2.4587402c4.3757935 -5.927429 1.2442627 -17.748047 -4.980652 -22.515472c-2.9711304 -2.2390137 -7.100708 -4.1076355 -11.193787 -4.5790405z" fill-rule="evenodd"/><path fill="#73f7ff" d="m613.3254 301.51407c-2.1433716 -0.24685669 -4.2667236 -0.06768799 -6.1724854 0.70809937c-8.684021 3.5722046 -6.7613525 12.849701 1.0751953 15.949768c3.7869873 1.4905701 8.285461 2.9743958 9.990662 6.511383c0.9412842 1.9413147 2.7886963 3.1296387 4.707947 3.350708c1.8609009 0.21432495 3.7857666 -0.47058105 5.0249634 -2.2297363c3.9523926 -5.260254 1.1362305 -15.951294 -4.5429688 -20.212036c-2.6641235 -1.9820557 -6.390869 -3.6529236 -10.083313 -4.078186z" fill-rule="evenodd"/><path fill="#ffffff" d="m612.72363 303.05438c-0.6326904 -0.07287598 -1.1568604 0.02456665 -1.5195312 0.34768677c-2.3432617 2.018219 3.708374 3.7705078 4.932434 4.532837c2.63385 1.6249084 5.022949 3.83313 6.650635 6.4862366c-0.010070801 0.08758545 0.06744385 0.18527222 0.1449585 0.28295898c0.5812988 1.0334778 1.142395 2.242157 2.1245728 2.8779907c0.33135986 0.20584106 0.66308594 0.322937 0.98431396 0.35992432c1.362854 0.15698242 2.5430298 -1.0977173 2.3618774 -2.6078186c-0.06427002 -0.98379517 -0.50024414 -1.822998 -1.1117554 -2.593689c-2.0758667 -2.6159363 -4.0560303 -4.52063 -7.1193237 -6.18515c-1.37677 -0.72073364 -5.102173 -3.230774 -7.448181 -3.5009766z" fill-rule="evenodd"/><path fill="#ffffff" d="m608.0421 302.53488c-0.3166504 -0.036468506 -0.6552124 0.03250122 -0.9614258 0.24258423c-0.567749 0.45474243 -0.75341797 1.3067627 -0.30499268 1.8883667c0.24035645 0.36135864 0.6074829 0.5508423 0.97216797 0.5928345c0.31671143 0.036468506 0.63604736 -0.034698486 0.8983154 -0.20077515c0.6552124 -0.45446777 0.7545166 -1.3164673 0.30541992 -1.9766235c-0.19793701 -0.30740356 -0.5352173 -0.5032654 -0.90948486 -0.5463867z" fill-rule="evenodd"/><path fill="#000000" fill-opacity="0.0" d="m64.21417 100.36536l0 0c0 -4.2060623 3.4096909 -7.615753 7.6157455 -7.615753l0 0c2.0198288 0 3.9569244 0.8023758 5.385147 2.230606c1.4282303 1.4282303 2.230606 3.365326 2.230606 5.385147l0 0c0 4.2060623 -3.4096909 7.6157455 -7.615753 7.6157455l0 0c-4.2060547 0 -7.6157455 -3.4096832 -7.6157455 -7.6157455z" fill-rule="evenodd"/><path stroke="#41d5ff" stroke-width="2.0" stroke-linejoin="round" stroke-linecap="butt" d="m64.21417 100.36536l0 0c0 -4.2060623 3.4096909 -7.615753 7.6157455 -7.615753l0 0c2.0198288 0 3.9569244 0.8023758 5.385147 2.230606c1.4282303 1.4282303 2.230606 3.365326 2.230606 5.385147l0 0c0 4.2060623 -3.4096909 7.6157455 -7.615753 7.6157455l0 0c-4.2060547 0 -7.6157455 -3.4096832 -7.6157455 -7.6157455z" fill-rule="evenodd"/><path fill="#41d5ff" d="m876.9931 180.75067l2.3139648 0.24595642l-1.5789185 16.20546l-2.3139648 -0.24595642l1.5789185 -16.20546z" fill-rule="evenodd"/><path fill="#41d5ff" d="m889.7506 176.95747l10.330261 12.547485l-1.8262329 1.4609222l-10.3302 -12.547485l1.8261719 -1.4609222z" fill-rule="evenodd"/><path fill="#41d5ff" d="m894.1039 166.71497l16.195312 1.4564362l-0.24554443 2.4364777l-16.195374 -1.578949l0.24560547 -2.3139648z" fill-rule="evenodd"/><path fill="#41d5ff" d="m902.55585 145.96535l1.5827637 1.7035522l-12.5390625 10.466537l-1.5827637 -1.8262024l12.5390625 -10.343887z" fill-rule="evenodd"/><path fill="#41d5ff" d="m881.264 135.57166l2.3139648 0.24559021l-1.4564209 16.195358l-2.4364624 -0.24559021l1.5789185 -16.195358z" fill-rule="evenodd"/><path fill="#41d5ff" d="m860.81305 141.92126l10.330261 12.54747l-1.8261719 1.4609222l-10.330261 -12.547485l1.8261719 -1.460907z" fill-rule="evenodd"/><path fill="#41d5ff" d="m848.9007 162.34427l16.195374 1.5734406l-0.24560547 2.2923431l-16.195374 -1.5734406l0.24560547 -2.2923431z" fill-rule="evenodd"/><path fill="#41d5ff" d="m867.6288 174.77898l1.4599609 1.8262024l-12.5390625 10.330261l-1.5827637 -1.8262024l12.661865 -10.330261z" fill-rule="evenodd"/><path fill="#000000" fill-opacity="0.0" d="m832.052 241.85461l0 0c1.3269653 -3.991272 -0.83288574 -8.302521 -4.8241577 -9.629471l0 0c-1.916687 -0.6372223 -4.0079956 -0.48693848 -5.813843 0.4177704c-1.8059082 0.90470886 -3.1784058 2.489746 -3.8156128 4.406418l0 0c-1.3269653 3.9912567 0.83288574 8.302521 4.8241577 9.629456l0 0c3.991272 1.3269501 8.302551 -0.83291626 9.629456 -4.824173z" fill-rule="evenodd"/><path stroke="#41d5ff" stroke-width="2.0" stroke-linejoin="round" stroke-linecap="butt" d="m832.052 241.85461l0 0c1.3269653 -3.991272 -0.83288574 -8.302521 -4.8241577 -9.629471l0 0c-1.916687 -0.6372223 -4.0079956 -0.48693848 -5.813843 0.4177704c-1.8059082 0.90470886 -3.1784058 2.489746 -3.8156128 4.406418l0 0c-1.3269653 3.9912567 0.83288574 8.302521 4.8241577 9.629456l0 0c3.991272 1.3269501 8.302551 -0.83291626 9.629456 -4.824173z" fill-rule="evenodd"/><path fill="#000000" fill-opacity="0.0" d="m81.6901 69.62783l0 0c-1.2156143 -8.028381 4.307228 -15.522118 12.335609 -16.737728l0 0c3.855362 -0.5837593 7.7847214 0.38793182 10.923653 2.7013054c3.138939 2.3133774 5.230324 5.7789383 5.8140793 9.6343l0 0c1.2156143 8.028381 -4.307228 15.522125 -12.335609 16.737732l0 0c-8.028381 1.2156143 -15.522118 -4.307228 -16.737732 -12.335609z" fill-rule="evenodd"/><path stroke="#41d5ff" stroke-width="2.0" stroke-linejoin="round" stroke-linecap="butt" d="m81.6901 69.62783l0 0c-1.2156143 -8.028381 4.307228 -15.522118 12.335609 -16.737728l0 0c3.855362 -0.5837593 7.7847214 0.38793182 10.923653 2.7013054c3.138939 2.3133774 5.230324 5.7789383 5.8140793 9.6343l0 0c1.2156143 8.028381 -4.307228 15.522125 -12.335609 16.737732l0 0c-8.028381 1.2156143 -15.522118 -4.307228 -16.737732 -12.335609z" fill-rule="evenodd"/><path fill="#41d5ff" d="m849.155 260.5553l0 0c-0.8032837 2.4275513 0.5214844 5.0493774 2.9589233 5.855957l0 0c1.1705322 0.3873291 2.44635 0.29571533 3.546814 -0.2546997c1.1004639 -0.55044556 1.9354248 -1.5145874 2.321167 -2.6803284l0 0c0.8033447 -2.4275818 -0.52142334 -5.049408 -2.9589233 -5.8559875l0 0c-2.437439 -0.8065796 -5.064636 0.5074768 -5.867981 2.9350586z" fill-rule="evenodd"/><path fill="#41d5ff" d="m94.226265 281.6993l1.8871231 0.20025635l-1.2876816 13.194824l-1.8871231 -0.20025635l1.2876816 -13.194824z" fill-rule="evenodd"/><path fill="#41d5ff" d="m104.4837 278.62677l8.437447 10.213867l-1.4915771 1.1891785l-8.437447 -10.213837l1.4915771 -1.189209z" fill-rule="evenodd"/><path fill="#41d5ff" d="m108.105934 270.2362l13.216904 1.1878052l-0.2004242 1.9869995l-13.216904 -1.2876587l0.2004242 -1.887146z" fill-rule="evenodd"/><path fill="#41d5ff" d="m114.92974 253.30394l1.2907333 1.3914032l-10.2257 8.548737l-1.2907333 -1.4915771l10.2257 -8.448563z" fill-rule="evenodd"/><path fill="#41d5ff" d="m97.70343 244.8378l1.8871231 0.2004242l-1.1877747 13.216904l-1.98703 -0.20043945l1.2876816 -13.216888z" fill-rule="evenodd"/><path fill="#41d5ff" d="m80.87279 250.01575l8.437447 10.213867l-1.4915771 1.1891785l-8.437447 -10.213837l1.4915771 -1.189209z" fill-rule="evenodd"/><path fill="#41d5ff" d="m71.21775 266.65674l13.216896 1.2832031l-0.2004242 1.8694763l-13.216896 -1.2832031l0.2004242 -1.8694763z" fill-rule="evenodd"/><path fill="#41d5ff" d="m86.445526 276.82373l1.1905899 1.4915771l-10.2257 8.437439l-1.2907333 -1.4915771l10.325844 -8.437439z" fill-rule="evenodd"/></g></svg>